EncodeSansSemiExpanded-Thin.ufo
<glyph name="exclam" format="2">
  <advance width="469.0"/>
  <unicode hex="0021"/>
  <outline>
    <contour>
      <point x="210.5" y="316.0" type="line"/>
      <point x="258.5" y="316.0" type="line"/>
      <point x="270.5" y="890.0" type="line"/>
      <point x="270.5" y="1480.0" type="line"/>
      <point x="198.5" y="1480.0" type="line"/>
      <point x="198.5" y="890.0" type="line"/>
    </contour>
    <contour>
      <point x="234.5" y="-10.0" type="curve" smooth="yes"/>
      <point x="270.5" y="-10.0"/>
      <point x="296.5" y="14.0"/>
      <point x="296.5" y="52.0" type="curve" smooth="yes"/>
      <point x="296.5" y="90.0"/>
      <point x="270.5" y="116.0"/>
      <point x="234.5" y="116.0" type="curve" smooth="yes"/>
      <point x="198.5" y="116.0"/>
      <point x="172.5" y="90.0"/>
      <point x="172.5" y="52.0" type="curve" smooth="yes"/>
      <point x="172.5" y="14.0"/>
      <point x="198.5" y="-10.0"/>
    </contour>
  </outline>
</glyph>
<glyph name="quotedbl" format="2">
  <advance width="702.0"/>
  <unicode hex="0022"/>
  <outline>
    <contour>
      <point x="183.5" y="956.0" type="line"/>
      <point x="223.5" y="956.0" type="line"/>
      <point x="243.5" y="1616.0" type="line"/>
      <point x="163.5" y="1616.0" type="line"/>
    </contour>
    <contour>
      <point x="478.5" y="956.0" type="line"/>
      <point x="518.5" y="956.0" type="line"/>
      <point x="538.5" y="1616.0" type="line"/>
      <point x="458.5" y="1616.0" type="line"/>
    </contour>
  </outline>
</glyph>
<glyph name="numbersign" format="2">
  <advance width="1150.0"/>
  <unicode hex="0023"/>
  <outline>
    <contour>
      <point x="644.5" y="0.0" type="line"/>
      <point x="710.5" y="0.0" type="line"/>
      <point x="879.5" y="1480.0" type="line"/>
      <point x="813.5" y="1480.0" type="line"/>
    </contour>
    <contour>
      <point x="105.0" y="494.0" type="line"/>
      <point x="1045.0" y="494.0" type="line"/>
      <point x="1045.0" y="560.0" type="line"/>
      <point x="105.0" y="560.0" type="line"/>
    </contour>
    <contour>
      <point x="270.5" y="0.0" type="line"/>
      <point x="336.5" y="0.0" type="line"/>
      <point x="505.5" y="1480.0" type="line"/>
      <point x="439.5" y="1480.0" type="line"/>
    </contour>
    <contour>
      <point x="105.0" y="920.0" type="line"/>
      <point x="1045.0" y="920.0" type="line"/>
      <point x="1045.0" y="986.0" type="line"/>
      <point x="105.0" y="986.0" type="line"/>
    </contour>
  </outline>
</glyph>
<glyph name="percent" format="2">
  <advance width="1777.5"/>
  <unicode hex="0025"/>
  <note>
450
</note>
  <outline>
    <contour>
      <point x="501.5" y="0.0" type="line"/>
      <point x="574.0" y="0.0" type="line"/>
      <point x="1276.0" y="1480.0" type="line"/>
      <point x="1203.5" y="1480.0" type="line"/>
    </contour>
    <contour>
      <point x="443.5" y="578.0" type="curve" smooth="yes"/>
      <point x="627.5" y="578.0"/>
      <point x="761.0" y="703.0"/>
      <point x="761.0" y="1038.0" type="curve" smooth="yes"/>
      <point x="761.0" y="1373.0"/>
      <point x="631.0" y="1498.0"/>
      <point x="443.5" y="1498.0" type="curve" smooth="yes"/>
      <point x="256.0" y="1498.0"/>
      <point x="126.0" y="1373.0"/>
      <point x="126.0" y="1038.0" type="curve" smooth="yes"/>
      <point x="126.0" y="703.0"/>
      <point x="259.5" y="578.0"/>
    </contour>
    <contour>
      <point x="443.5" y="641.5" type="curve" smooth="yes"/>
      <point x="294.5" y="641.5"/>
      <point x="193.5" y="745.5"/>
      <point x="193.5" y="1040.0" type="curve" smooth="yes"/>
      <point x="193.5" y="1333.5"/>
      <point x="294.5" y="1434.5"/>
      <point x="443.5" y="1434.5" type="curve" smooth="yes"/>
      <point x="591.0" y="1434.5"/>
      <point x="693.5" y="1333.5"/>
      <point x="693.5" y="1036.0" type="curve" smooth="yes"/>
      <point x="693.5" y="739.5"/>
      <point x="591.0" y="641.5"/>
    </contour>
    <contour>
      <point x="1334.0" y="-18.0" type="curve" smooth="yes"/>
      <point x="1518.5" y="-18.0"/>
      <point x="1651.5" y="107.0"/>
      <point x="1651.5" y="442.0" type="curve" smooth="yes"/>
      <point x="1651.5" y="777.0"/>
      <point x="1521.0" y="902.0"/>
      <point x="1334.0" y="902.0" type="curve" smooth="yes"/>
      <point x="1147.0" y="902.0"/>
      <point x="1016.5" y="777.0"/>
      <point x="1016.5" y="442.0" type="curve" smooth="yes"/>
      <point x="1016.5" y="107.0"/>
      <point x="1149.5" y="-18.0"/>
    </contour>
    <contour>
      <point x="1334.0" y="45.5" type="curve" smooth="yes"/>
      <point x="1186.5" y="45.5"/>
      <point x="1084.0" y="149.5"/>
      <point x="1084.0" y="444.0" type="curve" smooth="yes"/>
      <point x="1084.0" y="737.5"/>
      <point x="1186.5" y="838.5"/>
      <point x="1334.0" y="838.5" type="curve" smooth="yes"/>
      <point x="1481.5" y="838.5"/>
      <point x="1584.0" y="737.5"/>
      <point x="1584.0" y="440.0" type="curve" smooth="yes"/>
      <point x="1584.0" y="143.5"/>
      <point x="1481.5" y="45.5"/>
    </contour>
  </outline>
</glyph>
<glyph name="ampersand" format="2">
  <advance width="1527.0"/>
  <unicode hex="0026"/>
  <outline>
    <contour>
      <point x="1488.5" y="-20.0" type="line"/>
      <point x="1527.0" y="33.0" type="line"/>
      <point x="725.0" y="643.5" type="line" smooth="yes"/>
      <point x="470.0" y="837.5"/>
      <point x="413.5" y="937.0"/>
      <point x="413.5" y="1092.5" type="curve" smooth="yes"/>
      <point x="413.5" y="1309.5"/>
      <point x="540.0" y="1432.0"/>
      <point x="834.5" y="1432.0" type="curve" smooth="yes"/>
      <point x="932.5" y="1432.0"/>
      <point x="1016.5" y="1420.5"/>
      <point x="1095.0" y="1397.5" type="curve"/>
      <point x="1095.0" y="1465.5" type="line"/>
      <point x="1025.0" y="1485.5"/>
      <point x="937.5" y="1498.0"/>
      <point x="837.0" y="1498.0" type="curve" smooth="yes"/>
      <point x="502.5" y="1498.0"/>
      <point x="341.5" y="1349.0"/>
      <point x="341.5" y="1092.0" type="curve" smooth="yes"/>
      <point x="341.5" y="912.0"/>
      <point x="424.0" y="789.5"/>
      <point x="686.5" y="590.5" type="curve" smooth="yes"/>
    </contour>
    <contour>
      <point x="713.5" y="-18.0" type="curve" smooth="yes"/>
      <point x="1077.5" y="-18.0"/>
      <point x="1280.0" y="158.5"/>
      <point x="1280.0" y="478.5" type="curve" smooth="yes"/>
      <point x="1280.0" y="573.0"/>
      <point x="1265.5" y="670.0"/>
      <point x="1234.0" y="760.0" type="curve"/>
      <point x="1164.0" y="760.0" type="line"/>
      <point x="1196.0" y="670.0"/>
      <point x="1214.0" y="570.0"/>
      <point x="1214.0" y="479.5" type="curve" smooth="yes"/>
      <point x="1214.0" y="190.5"/>
      <point x="1036.5" y="48.0"/>
      <point x="715.5" y="48.0" type="curve" smooth="yes"/>
      <point x="372.0" y="48.0"/>
      <point x="237.5" y="198.5"/>
      <point x="237.5" y="407.0" type="curve" smooth="yes"/>
      <point x="237.5" y="569.5"/>
      <point x="318.0" y="689.5"/>
      <point x="494.0" y="763.5" type="curve"/>
      <point x="454.0" y="821.0" type="line"/>
      <point x="265.0" y="736.5"/>
      <point x="165.5" y="591.0"/>
      <point x="165.5" y="401.0" type="curve" smooth="yes"/>
      <point x="165.5" y="157.0"/>
      <point x="338.5" y="-18.0"/>
    </contour>
  </outline>
</glyph>
<glyph name="quotesingle" format="2">
  <advance width="407.0"/>
  <unicode hex="0027"/>
  <outline>
    <contour>
      <point x="183.5" y="956.0" type="line"/>
      <point x="223.5" y="956.0" type="line"/>
      <point x="243.5" y="1616.0" type="line"/>
      <point x="163.5" y="1616.0" type="line"/>
    </contour>
  </outline>
</glyph>
<glyph name="parenleft" format="2">
  <advance width="666.0"/>
  <unicode hex="0028"/>
  <outline>
    <contour>
      <point x="509.5" y="-440.0" type="curve"/>
      <point x="593.0" y="-440.0" type="line"/>
      <point x="326.0" y="-127.0"/>
      <point x="220.0" y="218.0"/>
      <point x="220.0" y="588.0" type="curve" smooth="yes"/>
      <point x="220.0" y="958.0"/>
      <point x="326.0" y="1303.0"/>
      <point x="593.0" y="1616.0" type="curve"/>
      <point x="509.5" y="1616.0" type="line"/>
      <point x="258.0" y="1316.0"/>
      <point x="148.0" y="964.0"/>
      <point x="148.0" y="588.0" type="curve" smooth="yes"/>
      <point x="148.0" y="212.0"/>
      <point x="258.0" y="-140.0"/>
    </contour>
  </outline>
</glyph>
<glyph name="parenright" format="2">
  <advance width="666.0"/>
  <unicode hex="0029"/>
  <outline>
    <contour>
      <point x="73.0" y="-440.0" type="curve"/>
      <point x="156.5" y="-440.0" type="line"/>
      <point x="408.0" y="-140.0"/>
      <point x="518.0" y="212.0"/>
      <point x="518.0" y="588.0" type="curve" smooth="yes"/>
      <point x="518.0" y="964.0"/>
      <point x="408.0" y="1316.0"/>
      <point x="156.5" y="1616.0" type="curve"/>
      <point x="73.0" y="1616.0" type="line"/>
      <point x="340.0" y="1303.0"/>
      <point x="446.0" y="958.0"/>
      <point x="446.0" y="588.0" type="curve" smooth="yes"/>
      <point x="446.0" y="218.0"/>
      <point x="340.0" y="-127.0"/>
    </contour>
  </outline>
</glyph>
<glyph name="asterisk" format="2">
  <advance width="888.0"/>
  <unicode hex="002A"/>
  <outline>
    <contour>
      <point x="470.0" y="1205.0" type="line"/>
      <point x="668.0" y="1253.0" type="line"/>
      <point x="858.0" y="1314.0" type="line"/>
      <point x="838.0" y="1374.0" type="line"/>
      <point x="650.0" y="1313.0" type="line"/>
      <point x="460.0" y="1235.0" type="line"/>
      <point x="476.0" y="1439.0" type="line"/>
      <point x="476.0" y="1616.0" type="line"/>
      <point x="412.0" y="1616.0" type="line"/>
      <point x="412.0" y="1439.0" type="line"/>
      <point x="428.0" y="1235.0" type="line"/>
      <point x="238.0" y="1313.0" type="line"/>
      <point x="50.0" y="1374.0" type="line"/>
      <point x="30.0" y="1314.0" type="line"/>
      <point x="220.0" y="1253.0" type="line"/>
      <point x="418.0" y="1205.0" type="line"/>
      <point x="286.0" y="1049.0" type="line"/>
      <point x="175.5" y="899.5" type="line"/>
      <point x="227.5" y="861.5" type="line"/>
      <point x="338.0" y="1011.0" type="line"/>
      <point x="444.0" y="1185.0" type="line"/>
      <point x="550.0" y="1011.0" type="line"/>
      <point x="660.5" y="861.5" type="line"/>
      <point x="712.5" y="899.5" type="line"/>
      <point x="602.0" y="1049.0" type="line"/>
    </contour>
  </outline>
</glyph>
<glyph name="plus" format="2">
  <advance width="1085.0"/>
  <unicode hex="002B"/>
  <outline>
    <contour>
      <point x="508.5" y="378.0" type="line"/>
      <point x="576.5" y="378.0" type="line"/>
      <point x="576.5" y="728.0" type="line"/>
      <point x="906.5" y="728.0" type="line"/>
      <point x="906.5" y="792.0" type="line"/>
      <point x="576.5" y="792.0" type="line"/>
      <point x="576.5" y="1142.0" type="line"/>
      <point x="508.5" y="1142.0" type="line"/>
      <point x="508.5" y="792.0" type="line"/>
      <point x="178.5" y="792.0" type="line"/>
      <point x="178.5" y="728.0" type="line"/>
      <point x="508.5" y="728.0" type="line"/>
    </contour>
  </outline>
</glyph>
<glyph name="comma" format="2">
  <advance width="429.0"/>
  <unicode hex="002C"/>
  <outline>
    <contour>
      <point x="164.5" y="-300.0" type="curve"/>
      <point x="208.5" y="-300.0" type="line"/>
      <point x="246.5" y="-206.0"/>
      <point x="276.5" y="-92.0"/>
      <point x="276.5" y="32.0" type="curve" smooth="yes"/>
      <point x="276.5" y="92.0"/>
      <point x="250.5" y="116.0"/>
      <point x="212.5" y="116.0" type="curve" smooth="yes"/>
      <point x="176.5" y="116.0"/>
      <point x="152.5" y="90.0"/>
      <point x="152.5" y="54.0" type="curve" smooth="yes"/>
      <point x="152.5" y="16.0"/>
      <point x="178.5" y="-10.0"/>
      <point x="214.5" y="-10.0" type="curve" smooth="yes"/>
      <point x="226.5" y="-10.0" type="line"/>
      <point x="222.5" y="12.0" type="line"/>
      <point x="222.5" y="-90.0"/>
      <point x="200.5" y="-186.0"/>
    </contour>
  </outline>
</glyph>
<glyph name="hyphen" format="2">
  <advance width="859.0"/>
  <unicode hex="002D"/>
  <outline>
    <contour>
      <point x="178.5" y="528.0" type="line"/>
      <point x="680.5" y="528.0" type="line"/>
      <point x="680.5" y="592.0" type="line"/>
      <point x="178.5" y="592.0" type="line"/>
    </contour>
  </outline>
</glyph>
<glyph name="slash" format="2">
  <advance width="566.5"/>
  <unicode hex="002F"/>
  <outline>
    <contour>
      <point x="0.0" y="-240.0" type="line"/>
      <point x="68.5" y="-240.0" type="line"/>
      <point x="566.5" y="1616.0" type="line"/>
      <point x="498.0" y="1616.0" type="line"/>
    </contour>
  </outline>
</glyph>
<glyph name="zero" format="2">
  <advance width="1279.0"/>
  <unicode hex="0030"/>
  <note>
600
</note>
  <outline>
    <contour>
      <point x="639.5" y="-18.0" type="curve" smooth="yes"/>
      <point x="942.0" y="-18.0"/>
      <point x="1141.0" y="180.0"/>
      <point x="1141.0" y="740.0" type="curve" smooth="yes"/>
      <point x="1141.0" y="1300.0"/>
      <point x="947.0" y="1498.0"/>
      <point x="639.5" y="1498.0" type="curve" smooth="yes"/>
      <point x="332.0" y="1498.0"/>
      <point x="138.0" y="1300.0"/>
      <point x="138.0" y="740.0" type="curve" smooth="yes"/>
      <point x="138.0" y="180.0"/>
      <point x="337.0" y="-18.0"/>
    </contour>
    <contour>
      <point x="639.5" y="48.0" type="curve" smooth="yes"/>
      <point x="381.5" y="48.0"/>
      <point x="210.0" y="206.0"/>
      <point x="210.0" y="744.0" type="curve" smooth="yes"/>
      <point x="210.0" y="1274.0"/>
      <point x="381.5" y="1432.0"/>
      <point x="639.5" y="1432.0" type="curve" smooth="yes"/>
      <point x="897.5" y="1432.0"/>
      <point x="1069.0" y="1274.0"/>
      <point x="1069.0" y="736.0" type="curve" smooth="yes"/>
      <point x="1069.0" y="206.0"/>
      <point x="897.5" y="48.0"/>
    </contour>
  </outline>
</glyph>
<glyph name="one" format="2">
  <advance width="733.5"/>
  <unicode hex="0031"/>
  <outline>
    <contour>
      <point x="452.5" y="0.0" type="line"/>
      <point x="520.5" y="0.0" type="line"/>
      <point x="520.5" y="1484.0" type="line"/>
      <point x="476.5" y="1484.0" type="line"/>
      <point x="24.5" y="1156.5" type="line"/>
      <point x="24.5" y="1078.0" type="line"/>
      <point x="476.5" y="1402.5" type="line"/>
      <point x="452.5" y="1406.0" type="line"/>
    </contour>
  </outline>
</glyph>
<glyph name="two" format="2">
  <advance width="1002.0"/>
  <unicode hex="0032"/>
  <outline>
    <contour>
      <point x="74.5" y="0.0" type="line"/>
      <point x="927.0" y="0.0" type="line"/>
      <point x="927.0" y="64.0" type="line"/>
      <point x="141.0" y="64.0" type="line"/>
      <point x="156.0" y="40.0" type="line"/>
      <point x="579.5" y="574.5" type="line" smooth="yes"/>
      <point x="769.0" y="811.5"/>
      <point x="832.0" y="946.0"/>
      <point x="832.5" y="1115.5" type="curve" smooth="yes"/>
      <point x="833.5" y="1379.0"/>
      <point x="675.0" y="1498.0"/>
      <point x="401.0" y="1498.0" type="curve" smooth="yes"/>
      <point x="268.5" y="1498.0"/>
      <point x="149.0" y="1476.5"/>
      <point x="57.0" y="1439.5" type="curve"/>
      <point x="57.0" y="1371.5" type="line"/>
      <point x="164.0" y="1412.5"/>
      <point x="275.0" y="1432.0"/>
      <point x="401.0" y="1432.0" type="curve" smooth="yes"/>
      <point x="638.5" y="1432.0"/>
      <point x="762.5" y="1337.0"/>
      <point x="762.5" y="1112.5" type="curve" smooth="yes"/>
      <point x="762.5" y="968.5"/>
      <point x="702.0" y="834.5"/>
      <point x="531.5" y="620.5" type="curve" smooth="yes"/>
      <point x="74.5" y="40.0" type="line"/>
    </contour>
  </outline>
</glyph>
<glyph name="three" format="2">
  <advance width="1024.5"/>
  <unicode hex="0033"/>
  <outline>
    <contour>
      <point x="422.0" y="-18.0" type="curve" smooth="yes"/>
      <point x="773.5" y="-18.0"/>
      <point x="945.5" y="137.5"/>
      <point x="945.5" y="398.5" type="curve" smooth="yes"/>
      <point x="945.5" y="617.0"/>
      <point x="804.0" y="754.5"/>
      <point x="540.5" y="783.0" type="curve"/>
      <point x="540.0" y="755.0" type="line"/>
      <point x="756.5" y="797.5"/>
      <point x="895.0" y="931.5"/>
      <point x="895.0" y="1133.5" type="curve" smooth="yes"/>
      <point x="895.0" y="1362.5"/>
      <point x="733.5" y="1498.0"/>
      <point x="451.0" y="1498.0" type="curve" smooth="yes"/>
      <point x="329.5" y="1498.0"/>
      <point x="211.5" y="1479.5"/>
      <point x="107.5" y="1444.0" type="curve"/>
      <point x="107.5" y="1376.0" type="line"/>
      <point x="223.5" y="1415.5"/>
      <point x="336.0" y="1432.0"/>
      <point x="450.0" y="1432.0" type="curve" smooth="yes"/>
      <point x="691.5" y="1432.0"/>
      <point x="825.0" y="1324.0"/>
      <point x="825.0" y="1132.5" type="curve" smooth="yes"/>
      <point x="825.0" y="907.5"/>
      <point x="655.0" y="794.0"/>
      <point x="348.0" y="794.0" type="curve" smooth="yes"/>
      <point x="282.5" y="794.0" type="line"/>
      <point x="282.5" y="728.0" type="line"/>
      <point x="461.5" y="728.0" type="line" smooth="yes"/>
      <point x="741.0" y="728.0"/>
      <point x="875.5" y="607.0"/>
      <point x="875.5" y="399.5" type="curve" smooth="yes"/>
      <point x="875.5" y="173.0"/>
      <point x="729.0" y="48.0"/>
      <point x="424.5" y="48.0" type="curve" smooth="yes"/>
      <point x="310.5" y="48.0"/>
      <point x="184.0" y="69.0"/>
      <point x="60.5" y="111.5" type="curve"/>
      <point x="60.5" y="43.5" type="line"/>
      <point x="172.0" y="3.0"/>
      <point x="302.0" y="-18.0"/>
    </contour>
  </outline>
</glyph>
<glyph name="four" format="2">
  <advance width="1195.0"/>
  <unicode hex="0034"/>
  <outline>
    <contour>
      <point x="56.0" y="384.0" type="line"/>
      <point x="1147.0" y="384.0" type="line"/>
      <point x="1147.0" y="448.0" type="line"/>
      <point x="114.0" y="448.0" type="line"/>
      <point x="131.0" y="422.0" type="line"/>
      <point x="783.0" y="1480.0" type="line"/>
      <point x="706.0" y="1480.0" type="line"/>
      <point x="56.0" y="424.0" type="line"/>
    </contour>
    <contour>
      <point x="849.0" y="0.0" type="line"/>
      <point x="917.0" y="0.0" type="line"/>
      <point x="917.0" y="980.0" type="line"/>
      <point x="863.0" y="980.0" type="line"/>
      <point x="849.0" y="448.0" type="line"/>
    </contour>
  </outline>
</glyph>
<glyph name="five" format="2">
  <advance width="1038.0"/>
  <unicode hex="0035"/>
  <outline>
    <contour>
      <point x="449.5" y="-18.0" type="curve" smooth="yes"/>
      <point x="792.0" y="-18.0"/>
      <point x="972.5" y="131.0"/>
      <point x="972.5" y="408.5" type="curve" smooth="yes"/>
      <point x="972.5" y="669.5"/>
      <point x="801.0" y="802.5"/>
      <point x="364.5" y="828.5" type="curve" smooth="yes"/>
      <point x="170.0" y="840.0" type="line"/>
      <point x="222.0" y="795.0" type="line"/>
      <point x="267.5" y="1438.0" type="line"/>
      <point x="231.0" y="1416.0" type="line"/>
      <point x="910.5" y="1416.0" type="line"/>
      <point x="910.5" y="1480.0" type="line"/>
      <point x="203.0" y="1480.0" type="line"/>
      <point x="152.5" y="774.0" type="line"/>
      <point x="347.0" y="762.5" type="line" smooth="yes"/>
      <point x="757.0" y="738.5"/>
      <point x="902.5" y="632.0"/>
      <point x="902.5" y="408.0" type="curve" smooth="yes"/>
      <point x="902.5" y="167.5"/>
      <point x="751.5" y="48.0"/>
      <point x="452.5" y="48.0" type="curve" smooth="yes"/>
      <point x="334.0" y="48.0"/>
      <point x="207.5" y="69.5"/>
      <point x="87.5" y="111.5" type="curve"/>
      <point x="87.5" y="43.5" type="line"/>
      <point x="196.5" y="4.5"/>
      <point x="327.5" y="-18.0"/>
    </contour>
  </outline>
</glyph>
<glyph name="six" format="2">
  <advance width="1163.5"/>
  <unicode hex="0036"/>
  <outline>
    <contour>
      <point x="657.0" y="-18.0" type="curve" smooth="yes"/>
      <point x="907.5" y="-18.0"/>
      <point x="1092.5" y="120.5"/>
      <point x="1092.5" y="403.5" type="curve" smooth="yes"/>
      <point x="1092.5" y="686.5"/>
      <point x="909.5" y="828.0"/>
      <point x="616.0" y="828.0" type="curve" smooth="yes"/>
      <point x="460.5" y="828.0"/>
      <point x="296.5" y="775.0"/>
      <point x="197.5" y="688.0" type="curve"/>
      <point x="197.5" y="609.5" type="line"/>
      <point x="301.0" y="717.5"/>
      <point x="478.0" y="762.0"/>
      <point x="612.0" y="762.0" type="curve" smooth="yes"/>
      <point x="869.5" y="762.0"/>
      <point x="1022.5" y="648.5"/>
      <point x="1022.5" y="401.0" type="curve" smooth="yes"/>
      <point x="1022.5" y="155.5"/>
      <point x="869.0" y="48.0"/>
      <point x="657.5" y="48.0" type="curve" smooth="yes"/>
      <point x="385.0" y="48.0"/>
      <point x="216.5" y="213.0"/>
      <point x="216.5" y="692.0" type="curve" smooth="yes"/>
      <point x="216.5" y="704.0" type="line" smooth="yes"/>
      <point x="216.5" y="1210.5"/>
      <point x="401.0" y="1432.0"/>
      <point x="755.5" y="1432.0" type="curve" smooth="yes"/>
      <point x="839.5" y="1432.0"/>
      <point x="945.0" y="1419.5"/>
      <point x="1026.5" y="1385.5" type="curve"/>
      <point x="1026.5" y="1453.5" type="line"/>
      <point x="946.5" y="1486.0"/>
      <point x="846.5" y="1498.0"/>
      <point x="755.0" y="1498.0" type="curve" smooth="yes"/>
      <point x="360.0" y="1498.0"/>
      <point x="146.5" y="1246.0"/>
      <point x="146.5" y="693.0" type="curve" smooth="yes"/>
      <point x="146.5" y="175.0"/>
      <point x="345.0" y="-18.0"/>
    </contour>
  </outline>
</glyph>
<glyph name="seven" format="2">
  <advance width="946.0"/>
  <unicode hex="0037"/>
  <outline>
    <contour>
      <point x="191.0" y="0.0" type="line"/>
      <point x="265.5" y="0.0" type="line"/>
      <point x="885.5" y="1440.0" type="line"/>
      <point x="885.5" y="1480.0" type="line"/>
      <point x="14.0" y="1480.0" type="line"/>
      <point x="14.0" y="1416.0" type="line"/>
      <point x="827.5" y="1416.0" type="line"/>
      <point x="813.0" y="1442.0" type="line"/>
    </contour>
  </outline>
</glyph>
<glyph name="eight" format="2">
  <advance width="1279.0"/>
  <unicode hex="0038"/>
  <outline>
    <contour>
      <point x="650.0" y="-18.0" type="curve" smooth="yes"/>
      <point x="975.0" y="-18.0"/>
      <point x="1159.0" y="132.0"/>
      <point x="1159.0" y="371.5" type="curve" smooth="yes"/>
      <point x="1159.0" y="581.0"/>
      <point x="1022.5" y="703.5"/>
      <point x="675.5" y="772.0" type="curve" smooth="yes"/>
      <point x="355.5" y="834.5"/>
      <point x="246.5" y="936.5"/>
      <point x="246.5" y="1126.5" type="curve" smooth="yes"/>
      <point x="246.5" y="1316.5"/>
      <point x="379.0" y="1432.0"/>
      <point x="632.5" y="1432.0" type="curve" smooth="yes"/>
      <point x="885.0" y="1432.0"/>
      <point x="1035.0" y="1325.5"/>
      <point x="1035.0" y="1123.5" type="curve" smooth="yes"/>
      <point x="1035.0" y="945.0"/>
      <point x="942.5" y="837.5"/>
      <point x="726.5" y="756.0" type="curve"/>
      <point x="793.5" y="723.5" type="line"/>
      <point x="991.5" y="797.0"/>
      <point x="1103.0" y="931.5"/>
      <point x="1103.0" y="1125.0" type="curve" smooth="yes"/>
      <point x="1103.0" y="1357.0"/>
      <point x="927.5" y="1498.0"/>
      <point x="634.0" y="1498.0" type="curve" smooth="yes"/>
      <point x="348.0" y="1498.0"/>
      <point x="174.5" y="1357.0"/>
      <point x="174.5" y="1124.5" type="curve" smooth="yes"/>
      <point x="174.5" y="905.0"/>
      <point x="310.5" y="776.0"/>
      <point x="664.0" y="705.5" type="curve" smooth="yes"/>
      <point x="972.0" y="643.0"/>
      <point x="1087.0" y="553.0"/>
      <point x="1087.0" y="367.0" type="curve" smooth="yes"/>
      <point x="1087.0" y="161.5"/>
      <point x="931.5" y="48.0"/>
      <point x="651.5" y="48.0" type="curve" smooth="yes"/>
      <point x="351.0" y="48.0"/>
      <point x="190.5" y="162.5"/>
      <point x="190.5" y="378.0" type="curve" smooth="yes"/>
      <point x="190.5" y="557.5"/>
      <point x="307.0" y="698.0"/>
      <point x="524.0" y="755.5" type="curve"/>
      <point x="450.5" y="789.0" type="line"/>
      <point x="245.0" y="722.0"/>
      <point x="120.0" y="579.0"/>
      <point x="120.0" y="375.0" type="curve" smooth="yes"/>
      <point x="120.0" y="119.5"/>
      <point x="310.0" y="-18.0"/>
    </contour>
  </outline>
</glyph>
<glyph name="nine" format="2">
  <advance width="1163.5"/>
  <unicode hex="0039"/>
  <outline>
    <contour>
      <point x="506.5" y="1498.0" type="curve" smooth="yes"/>
      <point x="256.0" y="1498.0"/>
      <point x="71.0" y="1359.5"/>
      <point x="71.0" y="1076.5" type="curve" smooth="yes"/>
      <point x="71.0" y="793.5"/>
      <point x="254.0" y="652.0"/>
      <point x="547.5" y="652.0" type="curve" smooth="yes"/>
      <point x="703.0" y="652.0"/>
      <point x="867.0" y="705.0"/>
      <point x="966.0" y="792.0" type="curve"/>
      <point x="966.0" y="870.5" type="line"/>
      <point x="862.5" y="762.5"/>
      <point x="685.5" y="718.0"/>
      <point x="551.5" y="718.0" type="curve" smooth="yes"/>
      <point x="294.0" y="718.0"/>
      <point x="141.0" y="831.5"/>
      <point x="141.0" y="1079.0" type="curve" smooth="yes"/>
      <point x="141.0" y="1324.5"/>
      <point x="294.5" y="1432.0"/>
      <point x="506.0" y="1432.0" type="curve" smooth="yes"/>
      <point x="778.5" y="1432.0"/>
      <point x="947.0" y="1267.0"/>
      <point x="947.0" y="788.0" type="curve" smooth="yes"/>
      <point x="947.0" y="776.0" type="line" smooth="yes"/>
      <point x="947.0" y="269.5"/>
      <point x="762.5" y="48.0"/>
      <point x="408.0" y="48.0" type="curve" smooth="yes"/>
      <point x="324.0" y="48.0"/>
      <point x="218.5" y="60.5"/>
      <point x="137.0" y="94.5" type="curve"/>
      <point x="137.0" y="26.5" type="line"/>
      <point x="217.0" y="-6.0"/>
      <point x="317.0" y="-18.0"/>
      <point x="408.5" y="-18.0" type="curve" smooth="yes"/>
      <point x="803.5" y="-18.0"/>
      <point x="1017.0" y="234.0"/>
      <point x="1017.0" y="787.0" type="curve" smooth="yes"/>
      <point x="1017.0" y="1305.0"/>
      <point x="818.5" y="1498.0"/>
    </contour>
  </outline>
</glyph>
<glyph name="colon" format="2">
  <advance width="429.0"/>
  <unicode hex="003A"/>
  <outline>
    <contour>
      <point x="214.5" y="-10.0" type="curve" smooth="yes"/>
      <point x="250.5" y="-10.0"/>
      <point x="276.5" y="14.0"/>
      <point x="276.5" y="52.0" type="curve" smooth="yes"/>
      <point x="276.5" y="90.0"/>
      <point x="250.5" y="116.0"/>
      <point x="214.5" y="116.0" type="curve" smooth="yes"/>
      <point x="178.5" y="116.0"/>
      <point x="152.5" y="90.0"/>
      <point x="152.5" y="52.0" type="curve" smooth="yes"/>
      <point x="152.5" y="14.0"/>
      <point x="178.5" y="-10.0"/>
    </contour>
    <contour>
      <point x="214.5" y="964.0" type="curve" smooth="yes"/>
      <point x="250.5" y="964.0"/>
      <point x="276.5" y="988.0"/>
      <point x="276.5" y="1026.0" type="curve" smooth="yes"/>
      <point x="276.5" y="1064.0"/>
      <point x="250.5" y="1090.0"/>
      <point x="214.5" y="1090.0" type="curve" smooth="yes"/>
      <point x="178.5" y="1090.0"/>
      <point x="152.5" y="1064.0"/>
      <point x="152.5" y="1026.0" type="curve" smooth="yes"/>
      <point x="152.5" y="988.0"/>
      <point x="178.5" y="964.0"/>
    </contour>
  </outline>
</glyph>
<glyph name="semicolon" format="2">
  <advance width="429.0"/>
  <unicode hex="003B"/>
  <outline>
    <contour>
      <point x="164.5" y="-300.0" type="curve"/>
      <point x="208.5" y="-300.0" type="line"/>
      <point x="246.5" y="-206.0"/>
      <point x="276.5" y="-92.0"/>
      <point x="276.5" y="32.0" type="curve" smooth="yes"/>
      <point x="276.5" y="92.0"/>
      <point x="250.5" y="116.0"/>
      <point x="212.5" y="116.0" type="curve" smooth="yes"/>
      <point x="176.5" y="116.0"/>
      <point x="152.5" y="90.0"/>
      <point x="152.5" y="54.0" type="curve" smooth="yes"/>
      <point x="152.5" y="16.0"/>
      <point x="178.5" y="-10.0"/>
      <point x="214.5" y="-10.0" type="curve" smooth="yes"/>
      <point x="226.5" y="-10.0" type="line"/>
      <point x="222.5" y="12.0" type="line"/>
      <point x="222.5" y="-90.0"/>
      <point x="200.5" y="-186.0"/>
    </contour>
    <contour>
      <point x="214.5" y="964.0" type="curve" smooth="yes"/>
      <point x="250.5" y="964.0"/>
      <point x="276.5" y="988.0"/>
      <point x="276.5" y="1026.0" type="curve" smooth="yes"/>
      <point x="276.5" y="1064.0"/>
      <point x="250.5" y="1090.0"/>
      <point x="214.5" y="1090.0" type="curve" smooth="yes"/>
      <point x="178.5" y="1090.0"/>
      <point x="152.5" y="1064.0"/>
      <point x="152.5" y="1026.0" type="curve" smooth="yes"/>
      <point x="152.5" y="988.0"/>
      <point x="178.5" y="964.0"/>
    </contour>
  </outline>
</glyph>
<glyph name="equal" format="2">
  <advance width="1085.0"/>
  <unicode hex="003D"/>
  <outline>
    <contour>
      <point x="178.5" y="910.0" type="line"/>
      <point x="906.5" y="910.0" type="line"/>
      <point x="906.5" y="974.0" type="line"/>
      <point x="178.5" y="974.0" type="line"/>
    </contour>
    <contour>
      <point x="178.5" y="546.0" type="line"/>
      <point x="906.5" y="546.0" type="line"/>
      <point x="906.5" y="610.0" type="line"/>
      <point x="178.5" y="610.0" type="line"/>
    </contour>
  </outline>
</glyph>
<glyph name="greater" format="2">
  <advance width="1085.0"/>
  <unicode hex="003E"/>
  <outline>
    <contour>
      <point x="178.5" y="406.0" type="line"/>
      <point x="906.5" y="734.0" type="line"/>
      <point x="906.5" y="786.0" type="line"/>
      <point x="178.5" y="1114.0" type="line"/>
      <point x="178.5" y="1042.0" type="line"/>
      <point x="842.5" y="748.0" type="line"/>
      <point x="842.5" y="772.0" type="line"/>
      <point x="178.5" y="478.0" type="line"/>
    </contour>
  </outline>
</glyph>
<glyph name="question" format="2">
  <advance width="899.5"/>
  <unicode hex="003F"/>
  <outline>
    <contour>
      <point x="387.0" y="300.0" type="line"/>
      <point x="435.0" y="300.0" type="line"/>
      <point x="445.0" y="680.5" type="line"/>
      <point x="739.5" y="793.0"/>
      <point x="833.5" y="918.5"/>
      <point x="833.5" y="1133.5" type="curve" smooth="yes"/>
      <point x="833.5" y="1362.5"/>
      <point x="672.0" y="1498.0"/>
      <point x="389.5" y="1498.0" type="curve" smooth="yes"/>
      <point x="268.0" y="1498.0"/>
      <point x="150.0" y="1479.5"/>
      <point x="46.0" y="1444.0" type="curve"/>
      <point x="46.0" y="1376.0" type="line"/>
      <point x="162.0" y="1415.5"/>
      <point x="274.5" y="1432.0"/>
      <point x="388.0" y="1432.0" type="curve" smooth="yes"/>
      <point x="630.0" y="1432.0"/>
      <point x="763.5" y="1324.0"/>
      <point x="763.5" y="1132.5" type="curve" smooth="yes"/>
      <point x="763.5" y="938.0"/>
      <point x="667.0" y="827.5"/>
      <point x="375.0" y="727.0" type="curve"/>
    </contour>
    <contour>
      <point x="411.0" y="-10.0" type="curve" smooth="yes"/>
      <point x="449.0" y="-10.0"/>
      <point x="473.0" y="16.0"/>
      <point x="473.0" y="52.0" type="curve" smooth="yes"/>
      <point x="473.0" y="90.0"/>
      <point x="447.0" y="116.0"/>
      <point x="411.0" y="116.0" type="curve" smooth="yes"/>
      <point x="375.0" y="116.0"/>
      <point x="349.0" y="90.0"/>
      <point x="349.0" y="52.0" type="curve" smooth="yes"/>
      <point x="349.0" y="16.0"/>
      <point x="375.0" y="-10.0"/>
    </contour>
  </outline>
</glyph>
<glyph name="at" format="2">
  <advance width="1949.5"/>
  <unicode hex="0040"/>
  <outline>
    <contour>
      <point x="1025.5" y="-460.0" type="curve" smooth="yes"/>
      <point x="1161.5" y="-460.0"/>
      <point x="1299.5" y="-439.0"/>
      <point x="1415.0" y="-404.0" type="curve"/>
      <point x="1415.0" y="-336.0" type="line"/>
      <point x="1278.0" y="-375.5"/>
      <point x="1158.0" y="-394.0"/>
      <point x="1025.5" y="-394.0" type="curve" smooth="yes"/>
      <point x="479.5" y="-394.0"/>
      <point x="200.0" y="-112.5"/>
      <point x="200.0" y="524.0" type="curve" smooth="yes"/>
      <point x="200.0" y="1144.5"/>
      <point x="476.5" y="1432.0"/>
      <point x="980.5" y="1432.0" type="curve" smooth="yes"/>
      <point x="1483.0" y="1432.0"/>
      <point x="1753.5" y="1150.5"/>
      <point x="1753.5" y="554.0" type="curve" smooth="yes"/>
      <point x="1753.5" y="187.5"/>
      <point x="1635.5" y="48.0"/>
      <point x="1503.5" y="48.0" type="curve" smooth="yes"/>
      <point x="1404.0" y="48.0"/>
      <point x="1353.5" y="97.5"/>
      <point x="1353.5" y="236.0" type="curve" smooth="yes"/>
      <point x="1353.5" y="743.5" type="line" smooth="yes"/>
      <point x="1353.5" y="1012.0"/>
      <point x="1211.5" y="1096.0"/>
      <point x="972.0" y="1096.0" type="curve" smooth="yes"/>
      <point x="873.0" y="1096.0"/>
      <point x="754.5" y="1078.5"/>
      <point x="666.0" y="1044.5" type="curve"/>
      <point x="666.0" y="976.5" type="line"/>
      <point x="777.0" y="1016.0"/>
      <point x="888.5" y="1030.0"/>
      <point x="973.0" y="1030.0" type="curve" smooth="yes"/>
      <point x="1170.5" y="1030.0"/>
      <point x="1285.5" y="972.0"/>
      <point x="1285.5" y="742.5" type="curve" smooth="yes"/>
      <point x="1285.5" y="219.0" type="line"/>
      <point x="1188.0" y="102.0"/>
      <point x="1059.0" y="50.0"/>
      <point x="929.5" y="50.0" type="curve" smooth="yes"/>
      <point x="755.5" y="50.0"/>
      <point x="673.0" y="130.5"/>
      <point x="673.0" y="272.5" type="curve" smooth="yes"/>
      <point x="673.0" y="408.0"/>
      <point x="758.5" y="481.0"/>
      <point x="958.0" y="505.5" type="curve" smooth="yes"/>
      <point x="1321.0" y="551.0" type="line"/>
      <point x="1326.0" y="617.0" type="line"/>
      <point x="958.5" y="571.5" type="line" smooth="yes"/>
      <point x="709.5" y="541.0"/>
      <point x="599.0" y="445.5"/>
      <point x="599.0" y="267.5" type="curve" smooth="yes"/>
      <point x="599.0" y="87.5"/>
      <point x="724.0" y="-16.0"/>
      <point x="928.0" y="-16.0" type="curve" smooth="yes"/>
      <point x="1070.5" y="-16.0"/>
      <point x="1203.5" y="42.0"/>
      <point x="1285.0" y="128.0" type="curve"/>
      <point x="1294.5" y="128.0" type="line"/>
      <point x="1316.0" y="41.5"/>
      <point x="1382.5" y="-16.0"/>
      <point x="1499.5" y="-16.0" type="curve" smooth="yes"/>
      <point x="1676.0" y="-16.0"/>
      <point x="1820.0" y="149.0"/>
      <point x="1821.5" y="560.0" type="curve" smooth="yes"/>
      <point x="1823.0" y="1179.5"/>
      <point x="1525.5" y="1498.0"/>
      <point x="980.5" y="1498.0" type="curve" smooth="yes"/>
      <point x="436.5" y="1498.0"/>
      <point x="128.0" y="1179.5"/>
      <point x="128.0" y="520.0" type="curve" smooth="yes"/>
      <point x="128.0" y="-144.5"/>
      <point x="439.0" y="-458.5"/>
    </contour>
  </outline>
</glyph>
<glyph name="A" format="2">
  <advance width="1364.0"/>
  <unicode hex="0041"/>
  <note>
520
</note>
  <anchor x="683.0" y="0.0" name="bottom"/>
  <anchor x="1321.5" y="0.0" name="ogonek"/>
  <anchor x="683.0" y="1520.0" name="top"/>
  <outline>
    <contour>
      <point x="42.5" y="0.0" type="line"/>
      <point x="116.0" y="0.0" type="line"/>
      <point x="693.0" y="1440.0" type="line"/>
      <point x="669.0" y="1440.0" type="line"/>
      <point x="1246.0" y="0.0" type="line"/>
      <point x="1321.5" y="0.0" type="line"/>
      <point x="725.0" y="1480.0" type="line"/>
      <point x="639.0" y="1480.0" type="line"/>
    </contour>
    <contour>
      <point x="303.0" y="528.0" type="line"/>
      <point x="1061.0" y="528.0" type="line"/>
      <point x="1041.0" y="594.0" type="line"/>
      <point x="323.0" y="594.0" type="line"/>
    </contour>
  </outline>
</glyph>
<glyph name="B" format="2">
  <advance width="1279.0"/>
  <unicode hex="0042"/>
  <anchor x="654.0" y="0.0" name="bottom"/>
  <anchor x="654.0" y="1480.0" name="top"/>
  <outline>
    <contour>
      <point x="563.5" y="-10.0" type="curve" smooth="yes"/>
      <point x="1016.5" y="-10.0"/>
      <point x="1191.0" y="130.5"/>
      <point x="1191.0" y="397.5" type="curve" smooth="yes"/>
      <point x="1191.0" y="597.5"/>
      <point x="1083.0" y="744.0"/>
      <point x="820.0" y="770.5" type="curve"/>
      <point x="815.5" y="755.0" type="line"/>
      <point x="1057.5" y="787.5"/>
      <point x="1147.5" y="927.5"/>
      <point x="1147.5" y="1108.0" type="curve" smooth="yes"/>
      <point x="1147.5" y="1366.5"/>
      <point x="984.5" y="1494.0"/>
      <point x="597.5" y="1494.0" type="curve" smooth="yes"/>
      <point x="438.0" y="1494.0"/>
      <point x="329.5" y="1482.0"/>
      <point x="203.0" y="1457.0" type="curve"/>
      <point x="203.0" y="13.0" type="line"/>
      <point x="342.0" y="-4.5"/>
      <point x="438.5" y="-10.0"/>
    </contour>
    <contour>
      <point x="565.5" y="56.0" type="curve" smooth="yes"/>
      <point x="450.0" y="56.0"/>
      <point x="362.0" y="61.0"/>
      <point x="271.0" y="75.0" type="curve"/>
      <point x="271.0" y="1402.5" type="line"/>
      <point x="360.5" y="1419.0"/>
      <point x="455.0" y="1428.0"/>
      <point x="598.0" y="1428.0" type="curve" smooth="yes"/>
      <point x="942.0" y="1428.0"/>
      <point x="1079.0" y="1336.5"/>
      <point x="1079.0" y="1108.0" type="curve" smooth="yes"/>
      <point x="1079.0" y="892.5"/>
      <point x="945.5" y="794.0"/>
      <point x="646.5" y="794.0" type="curve" smooth="yes"/>
      <point x="255.0" y="794.0" type="line"/>
      <point x="255.0" y="728.0" type="line"/>
      <point x="667.0" y="728.0" type="line" smooth="yes"/>
      <point x="975.0" y="728.0"/>
      <point x="1121.0" y="625.5"/>
      <point x="1121.0" y="399.5" type="curve" smooth="yes"/>
      <point x="1121.0" y="170.5"/>
      <point x="988.5" y="56.0"/>
    </contour>
  </outline>
</glyph>
<glyph name="D" format="2">
  <advance width="1436.5"/>
  <unicode hex="0044"/>
  <anchor x="658.5" y="0.0" name="bottom"/>
  <anchor x="717.5" y="740.0" name="center"/>
  <anchor x="203.0" y="762.0" name="stroke"/>
  <anchor x="658.5" y="1520.0" name="top"/>
  <outline>
    <contour>
      <point x="555.0" y="-10.0" type="curve" smooth="yes"/>
      <point x="1051.5" y="-10.0"/>
      <point x="1308.5" y="230.0"/>
      <point x="1308.5" y="740.0" type="curve" smooth="yes"/>
      <point x="1308.5" y="1246.0"/>
      <point x="1056.0" y="1494.0"/>
      <point x="572.5" y="1494.0" type="curve" smooth="yes"/>
      <point x="457.5" y="1494.0"/>
      <point x="325.0" y="1482.0"/>
      <point x="203.0" y="1457.5" type="curve"/>
      <point x="203.0" y="13.0" type="line"/>
      <point x="344.5" y="-4.5"/>
      <point x="435.5" y="-10.0"/>
    </contour>
    <contour>
      <point x="557.0" y="56.0" type="curve" smooth="yes"/>
      <point x="436.5" y="56.0"/>
      <point x="352.0" y="62.5"/>
      <point x="271.0" y="75.0" type="curve"/>
      <point x="271.0" y="1403.0" type="line"/>
      <point x="377.0" y="1419.0"/>
      <point x="473.0" y="1428.0"/>
      <point x="567.0" y="1428.0" type="curve" smooth="yes"/>
      <point x="1014.0" y="1428.0"/>
      <point x="1236.5" y="1212.0"/>
      <point x="1236.5" y="740.0" type="curve" smooth="yes"/>
      <point x="1236.5" y="265.5"/>
      <point x="1009.5" y="56.0"/>
    </contour>
  </outline>
</glyph>
<glyph name="F" format="2">
  <advance width="1156.0"/>
  <unicode hex="0046"/>
  <outline>
    <contour>
      <point x="203.0" y="0.0" type="line"/>
      <point x="271.0" y="0.0" type="line"/>
      <point x="271.0" y="1414.0" type="line"/>
      <point x="1090.0" y="1414.0" type="line"/>
      <point x="1090.0" y="1480.0" type="line"/>
      <point x="203.0" y="1480.0" type="line"/>
    </contour>
    <contour>
      <point x="263.0" y="728.0" type="line"/>
      <point x="992.5" y="728.0" type="line"/>
      <point x="992.5" y="794.0" type="line"/>
      <point x="263.0" y="794.0" type="line"/>
    </contour>
  </outline>
</glyph>
<glyph name="H" format="2">
  <advance width="1487.0"/>
  <unicode hex="0048"/>
  <anchor x="743.5" y="0.0" name="bottom"/>
  <anchor x="743.5" y="1140.0" name="center"/>
  <anchor x="743.5" y="1520.0" name="top"/>
  <anchor x="43.5" y="1480.0" name="topleft"/>
  <outline>
    <contour>
      <point x="203.0" y="0.0" type="line"/>
      <point x="271.0" y="0.0" type="line"/>
      <point x="271.0" y="728.0" type="line"/>
      <point x="1216.0" y="728.0" type="line"/>
      <point x="1216.0" y="0.0" type="line"/>
      <point x="1284.0" y="0.0" type="line"/>
      <point x="1284.0" y="1480.0" type="line"/>
      <point x="1216.0" y="1480.0" type="line"/>
      <point x="1216.0" y="794.0" type="line"/>
      <point x="271.0" y="794.0" type="line"/>
      <point x="271.0" y="1480.0" type="line"/>
      <point x="203.0" y="1480.0" type="line"/>
    </contour>
  </outline>
</glyph>
<glyph name="I" format="2">
  <advance width="474.0"/>
  <unicode hex="0049"/>
  <anchor x="237.0" y="0.0" name="bottom"/>
  <anchor x="271.0" y="0.0" name="ogonek"/>
  <anchor x="237.0" y="1520.0" name="top"/>
  <outline>
    <contour>
      <point x="203.0" y="0.0" type="line"/>
      <point x="271.0" y="0.0" type="line"/>
      <point x="271.0" y="1480.0" type="line"/>
      <point x="203.0" y="1480.0" type="line"/>
    </contour>
  </outline>
</glyph>
<glyph name="J" format="2">
  <advance width="474.0"/>
  <unicode hex="004A"/>
  <anchor x="329.0" y="0.0" name="bottom"/>
  <anchor x="237.0" y="1520.0" name="top"/>
  <outline>
    <contour>
      <point x="50.0" y="-340.0" type="line"/>
      <point x="202.5" y="-145.0"/>
      <point x="258.5" y="22.0"/>
      <point x="271.0" y="251.5" type="curve"/>
      <point x="271.0" y="1480.0" type="line"/>
      <point x="203.0" y="1480.0" type="line"/>
      <point x="203.0" y="286.0" type="line" smooth="yes"/>
      <point x="203.0" y="51.0"/>
      <point x="141.0" y="-125.0"/>
      <point x="1.5" y="-304.5" type="curve"/>
    </contour>
  </outline>
</glyph>
<glyph name="K" format="2">
  <advance width="1254.5"/>
  <unicode hex="004B"/>
  <anchor x="646.0" y="0.0" name="bottom"/>
  <anchor x="646.0" y="1480.0" name="top"/>
  <outline>
    <contour>
      <point x="1164.0" y="0.0" type="line"/>
      <point x="1250.5" y="0.0" type="line"/>
      <point x="605.5" y="774.0" type="line"/>
      <point x="605.5" y="750.0" type="line"/>
      <point x="1208.5" y="1480.0" type="line"/>
      <point x="1124.0" y="1480.0" type="line"/>
      <point x="531.0" y="758.0" type="line"/>
    </contour>
    <contour>
      <point x="203.0" y="0.0" type="line"/>
      <point x="271.0" y="0.0" type="line"/>
      <point x="271.0" y="1480.0" type="line"/>
      <point x="203.0" y="1480.0" type="line"/>
    </contour>
    <contour>
      <point x="255.0" y="728.0" type="line"/>
      <point x="576.0" y="728.0" type="line"/>
      <point x="576.0" y="793.5" type="line"/>
      <point x="255.0" y="793.5" type="line"/>
    </contour>
  </outline>
</glyph>
<glyph name="M" format="2">
  <advance width="1780.0"/>
  <unicode hex="004D"/>
  <anchor x="890.0" y="0.0" name="bottom"/>
  <anchor x="890.0" y="1480.0" name="top"/>
  <outline>
    <contour>
      <point x="207.0" y="0.0" type="line"/>
      <point x="273.0" y="0.0" type="line"/>
      <point x="273.0" y="1423.0" type="line"/>
      <point x="234.0" y="1423.0" type="line"/>
      <point x="852.0" y="200.0" type="line"/>
      <point x="928.0" y="200.0" type="line"/>
      <point x="1544.0" y="1423.0" type="line"/>
      <point x="1507.0" y="1423.0" type="line"/>
      <point x="1507.0" y="0.0" type="line"/>
      <point x="1573.0" y="0.0" type="line"/>
      <point x="1573.0" y="1480.0" type="line"/>
      <point x="1498.5" y="1480.0" type="line"/>
      <point x="876.0" y="232.0" type="line"/>
      <point x="908.0" y="232.0" type="line"/>
      <point x="281.5" y="1480.0" type="line"/>
      <point x="207.0" y="1480.0" type="line"/>
    </contour>
  </outline>
</glyph>
<glyph name="P" format="2">
  <advance width="1249.0"/>
  <unicode hex="0050"/>
  <outline>
    <contour>
      <point x="203.0" y="0.0" type="line"/>
      <point x="271.0" y="0.0" type="line"/>
      <point x="271.0" y="530.5" type="line"/>
      <point x="360.5" y="521.5"/>
      <point x="431.5" y="518.0"/>
      <point x="519.0" y="518.0" type="curve" smooth="yes"/>
      <point x="961.0" y="518.0"/>
      <point x="1146.5" y="693.5"/>
      <point x="1146.5" y="1008.5" type="curve" smooth="yes"/>
      <point x="1146.5" y="1344.5"/>
      <point x="943.0" y="1494.0"/>
      <point x="570.0" y="1494.0" type="curve" smooth="yes"/>
      <point x="438.0" y="1494.0"/>
      <point x="329.5" y="1482.0"/>
      <point x="203.0" y="1457.5" type="curve"/>
    </contour>
    <contour>
      <point x="520.5" y="584.0" type="curve" smooth="yes"/>
      <point x="427.0" y="584.0"/>
      <point x="350.5" y="589.0"/>
      <point x="271.0" y="600.0" type="curve"/>
      <point x="271.0" y="1403.0" type="line"/>
      <point x="360.5" y="1419.0"/>
      <point x="455.0" y="1428.0"/>
      <point x="570.0" y="1428.0" type="curve" smooth="yes"/>
      <point x="906.0" y="1428.0"/>
      <point x="1074.5" y="1300.0"/>
      <point x="1074.5" y="1006.0" type="curve" smooth="yes"/>
      <point x="1074.5" y="727.0"/>
      <point x="917.0" y="584.0"/>
    </contour>
  </outline>
</glyph>
<glyph name="Q" format="2">
  <advance width="1470.0"/>
  <unicode hex="0051"/>
  <outline>
    <contour>
      <point x="1303.5" y="-180.0" type="curve"/>
      <point x="1312.5" y="-114.0" type="line"/>
      <point x="1084.5" y="-97.5"/>
      <point x="817.0" y="-59.5"/>
      <point x="646.5" y="13.0" type="curve"/>
      <point x="644.0" y="-8.0" type="line"/>
      <point x="1095.5" y="-57.0"/>
      <point x="1342.0" y="197.5"/>
      <point x="1342.0" y="740.0" type="curve" smooth="yes"/>
      <point x="1342.0" y="1287.5"/>
      <point x="1091.0" y="1498.0"/>
      <point x="735.0" y="1498.0" type="curve" smooth="yes"/>
      <point x="379.0" y="1498.0"/>
      <point x="128.0" y="1278.5"/>
      <point x="128.0" y="740.0" type="curve" smooth="yes"/>
      <point x="128.0" y="136.5"/>
      <point x="396.5" y="-96.0"/>
    </contour>
    <contour>
      <point x="735.0" y="49.5" type="curve" smooth="yes"/>
      <point x="418.0" y="49.5"/>
      <point x="200.0" y="233.0"/>
      <point x="200.0" y="744.0" type="curve" smooth="yes"/>
      <point x="200.0" y="1247.0"/>
      <point x="418.0" y="1430.5"/>
      <point x="735.0" y="1430.5" type="curve" smooth="yes"/>
      <point x="1052.0" y="1430.5"/>
      <point x="1270.0" y="1247.0"/>
      <point x="1270.0" y="736.0" type="curve" smooth="yes"/>
      <point x="1270.0" y="233.0"/>
      <point x="1052.0" y="49.5"/>
    </contour>
  </outline>
</glyph>
<glyph name="T" format="2">
  <advance width="1178.0"/>
  <unicode hex="0054"/>
  <anchor x="589.0" y="0.0" name="bottom"/>
  <anchor x="589.0" y="800.0" name="center"/>
  <anchor x="589.0" y="1520.0" name="top"/>
  <outline>
    <contour>
      <point x="555.0" y="0.0" type="line"/>
      <point x="623.0" y="0.0" type="line"/>
      <point x="623.0" y="1414.0" type="line"/>
      <point x="1161.0" y="1414.0" type="line"/>
      <point x="1161.0" y="1480.0" type="line"/>
      <point x="17.0" y="1480.0" type="line"/>
      <point x="17.0" y="1414.0" type="line"/>
      <point x="555.0" y="1414.0" type="line"/>
    </contour>
  </outline>
</glyph>
<glyph name="V" format="2">
  <advance width="1320.0"/>
  <unicode hex="0056"/>
  <outline>
    <contour>
      <point x="613.0" y="0.0" type="line"/>
      <point x="707.0" y="0.0" type="line"/>
      <point x="1299.5" y="1480.0" type="line"/>
      <point x="1228.0" y="1480.0" type="line"/>
      <point x="654.5" y="40.0" type="line"/>
      <point x="670.5" y="40.0" type="line"/>
      <point x="96.0" y="1480.0" type="line"/>
      <point x="20.5" y="1480.0" type="line"/>
    </contour>
  </outline>
</glyph>
<glyph name="X" format="2">
  <advance width="1295.0"/>
  <unicode hex="0058"/>
  <outline>
    <contour>
      <point x="1169.0" y="0.0" type="line"/>
      <point x="1257.0" y="0.0" type="line"/>
      <point x="689.0" y="748.0" type="line"/>
      <point x="647.5" y="804.0" type="line"/>
      <point x="134.0" y="1480.0" type="line"/>
      <point x="46.5" y="1480.0" type="line"/>
      <point x="604.5" y="746.5" type="line"/>
      <point x="646.0" y="690.0" type="line"/>
    </contour>
    <contour>
      <point x="36.5" y="0.0" type="line"/>
      <point x="122.5" y="0.0" type="line"/>
      <point x="646.0" y="690.0" type="line"/>
      <point x="689.0" y="748.0" type="line"/>
      <point x="1247.0" y="1480.0" type="line"/>
      <point x="1162.5" y="1480.0" type="line"/>
      <point x="647.5" y="804.0" type="line"/>
      <point x="604.5" y="746.5" type="line"/>
    </contour>
  </outline>
</glyph>
<glyph name="Z" format="2">
  <advance width="1179.5"/>
  <unicode hex="005A"/>
  <anchor x="590.0" y="0.0" name="bottom"/>
  <anchor x="590.0" y="1520.0" name="top"/>
  <outline>
    <contour>
      <point x="66.5" y="0.0" type="line"/>
      <point x="1113.0" y="0.0" type="line"/>
      <point x="1113.0" y="64.0" type="line"/>
      <point x="133.5" y="64.0" type="line"/>
      <point x="146.5" y="39.5" type="line"/>
      <point x="1100.0" y="1440.0" type="line"/>
      <point x="1100.0" y="1480.0" type="line"/>
      <point x="79.5" y="1480.0" type="line"/>
      <point x="79.5" y="1416.0" type="line"/>
      <point x="1033.0" y="1416.0" type="line"/>
      <point x="1020.0" y="1440.5" type="line"/>
      <point x="66.5" y="40.0" type="line"/>
    </contour>
  </outline>
</glyph>
<glyph name="backslash" format="2">
  <advance width="572.5"/>
  <unicode hex="005C"/>
  <outline>
    <contour>
      <point x="501.0" y="-240.0" type="line"/>
      <point x="572.5" y="-240.0" type="line"/>
      <point x="71.5" y="1616.0" type="line"/>
      <point x="0.0" y="1616.0" type="line"/>
    </contour>
  </outline>
</glyph>
<glyph name="bracketright" format="2">
  <advance width="666.0"/>
  <unicode hex="005D"/>
  <outline>
    <contour>
      <point x="-40.0" y="-440.0" type="line"/>
      <point x="443.0" y="-440.0" type="line"/>
      <point x="443.0" y="1616.0" type="line"/>
      <point x="-40.0" y="1616.0" type="line"/>
      <point x="-40.0" y="1552.0" type="line"/>
      <point x="375.0" y="1552.0" type="line"/>
      <point x="375.0" y="-376.0" type="line"/>
      <point x="-40.0" y="-376.0" type="line"/>
    </contour>
  </outline>
</glyph>
<glyph name="asciicircum" format="2">
  <advance width="1150.0"/>
  <unicode hex="005E"/>
  <outline>
    <contour>
      <point x="114.0" y="740.0" type="line"/>
      <point x="194.5" y="740.0" type="line"/>
      <point x="579.0" y="1435.0" type="line"/>
      <point x="571.0" y="1435.0" type="line"/>
      <point x="955.5" y="740.0" type="line"/>
      <point x="1036.0" y="740.0" type="line"/>
      <point x="621.0" y="1480.0" type="line"/>
      <point x="527.0" y="1480.0" type="line"/>
    </contour>
  </outline>
</glyph>
<glyph name="b" format="2">
  <advance width="1149.5"/>
  <unicode hex="0062"/>
  <anchor x="577.0" y="0.0" name="bottom"/>
  <anchor x="217.0" y="1616.0" name="top"/>
  <outline>
    <contour>
      <point x="495.0" y="-18.0" type="curve" smooth="yes"/>
      <point x="845.0" y="-18.0"/>
      <point x="1031.5" y="167.5"/>
      <point x="1031.5" y="560.0" type="curve" smooth="yes"/>
      <point x="1031.5" y="955.0"/>
      <point x="838.5" y="1096.0"/>
      <point x="595.0" y="1096.0" type="curve" smooth="yes"/>
      <point x="450.0" y="1096.0"/>
      <point x="333.5" y="1039.5"/>
      <point x="257.0" y="958.5" type="curve"/>
      <point x="251.0" y="958.5" type="line"/>
      <point x="251.0" y="1616.0" type="line"/>
      <point x="183.0" y="1616.0" type="line"/>
      <point x="183.0" y="27.0" type="line"/>
      <point x="282.0" y="-2.5"/>
      <point x="387.5" y="-18.0"/>
    </contour>
    <contour>
      <point x="501.0" y="48.0" type="curve" smooth="yes"/>
      <point x="403.5" y="48.0"/>
      <point x="315.0" y="62.5"/>
      <point x="251.0" y="82.0" type="curve"/>
      <point x="251.0" y="866.5" type="line"/>
      <point x="336.0" y="980.5"/>
      <point x="462.5" y="1030.0"/>
      <point x="591.0" y="1030.0" type="curve" smooth="yes"/>
      <point x="800.0" y="1030.0"/>
      <point x="959.5" y="916.5"/>
      <point x="959.5" y="552.0" type="curve" smooth="yes"/>
      <point x="959.5" y="201.0"/>
      <point x="802.0" y="48.0"/>
    </contour>
  </outline>
</glyph>
<glyph name="f" format="2">
  <advance width="719.5"/>
  <unicode hex="0066"/>
  <outline>
    <contour>
      <point x="248.5" y="0.0" type="line"/>
      <point x="316.5" y="0.0" type="line"/>
      <point x="316.5" y="1269.0" type="line" smooth="yes"/>
      <point x="316.5" y="1490.0"/>
      <point x="413.0" y="1570.0"/>
      <point x="610.5" y="1570.0" type="curve" smooth="yes"/>
      <point x="660.0" y="1570.0"/>
      <point x="713.5" y="1564.5"/>
      <point x="764.5" y="1555.0" type="curve"/>
      <point x="764.5" y="1623.0" type="line"/>
      <point x="717.0" y="1631.0"/>
      <point x="662.0" y="1636.0"/>
      <point x="614.5" y="1636.0" type="curve" smooth="yes"/>
      <point x="370.0" y="1636.0"/>
      <point x="248.5" y="1516.0"/>
      <point x="248.5" y="1263.5" type="curve" smooth="yes"/>
    </contour>
    <contour>
      <point x="18.5" y="1016.0" type="line"/>
      <point x="723.0" y="1016.0" type="line"/>
      <point x="723.0" y="1080.0" type="line"/>
      <point x="18.5" y="1080.0" type="line"/>
    </contour>
  </outline>
</glyph>
<glyph name="j" format="2">
  <advance width="434.0"/>
  <unicode hex="006A"/>
  <anchor x="217.0" y="1209.0" name="_top"/>
  <anchor x="217.0" y="1209.0" name="top"/>
  <outline>
    <contour>
      <point x="30.0" y="-460.0" type="line"/>
      <point x="182.5" y="-265.0"/>
      <point x="251.0" y="-83.0"/>
      <point x="251.0" y="171.5" type="curve" smooth="yes"/>
      <point x="251.0" y="1080.0" type="line"/>
      <point x="183.0" y="1080.0" type="line"/>
      <point x="183.0" y="166.0" type="line" smooth="yes"/>
      <point x="183.0" y="-69.0"/>
      <point x="121.0" y="-245.0"/>
      <point x="-18.5" y="-424.5" type="curve"/>
    </contour>
    <contour>
      <point x="217.0" y="1369.0" type="curve" smooth="yes"/>
      <point x="253.0" y="1369.0"/>
      <point x="279.0" y="1393.0"/>
      <point x="279.0" y="1431.0" type="curve" smooth="yes"/>
      <point x="279.0" y="1469.0"/>
      <point x="253.0" y="1495.0"/>
      <point x="217.0" y="1495.0" type="curve" smooth="yes"/>
      <point x="181.0" y="1495.0"/>
      <point x="155.0" y="1469.0"/>
      <point x="155.0" y="1431.0" type="curve" smooth="yes"/>
      <point x="155.0" y="1393.0"/>
      <point x="181.0" y="1369.0"/>
    </contour>
  </outline>
</glyph>
<glyph name="k" format="2">
  <advance width="1019.5"/>
  <unicode hex="006B"/>
  <anchor x="547.5" y="0.0" name="bottom"/>
  <anchor x="217.0" y="1616.0" name="top"/>
  <outline>
    <contour>
      <point x="944.5" y="0.0" type="line"/>
      <point x="1030.0" y="0.0" type="line"/>
      <point x="533.0" y="562.5" type="line"/>
      <point x="533.0" y="541.5" type="line"/>
      <point x="998.0" y="1080.0" type="line"/>
      <point x="913.0" y="1080.0" type="line"/>
      <point x="454.5" y="552.0" type="line"/>
    </contour>
    <contour>
      <point x="235.0" y="520.0" type="line"/>
      <point x="499.0" y="520.0" type="line"/>
      <point x="499.0" y="584.0" type="line"/>
      <point x="235.0" y="584.0" type="line"/>
    </contour>
    <contour>
      <point x="183.0" y="0.0" type="line"/>
      <point x="251.0" y="0.0" type="line"/>
      <point x="251.0" y="1616.0" type="line"/>
      <point x="183.0" y="1616.0" type="line"/>
    </contour>
  </outline>
</glyph>
<glyph name="m" format="2">
  <advance width="1723.0"/>
  <unicode hex="006D"/>
  <anchor x="873.0" y="0.0" name="bottom"/>
  <anchor x="873.0" y="1200.0" name="top"/>
  <outline>
    <contour>
      <point x="183.0" y="0.0" type="line"/>
      <point x="251.0" y="0.0" type="line"/>
      <point x="251.0" y="848.5" type="line"/>
      <point x="342.5" y="978.5"/>
      <point x="473.0" y="1030.0"/>
      <point x="585.5" y="1030.0" type="curve" smooth="yes"/>
      <point x="736.5" y="1030.0"/>
      <point x="839.0" y="951.5"/>
      <point x="839.0" y="722.0" type="curve" smooth="yes"/>
      <point x="839.0" y="0.0" type="line"/>
      <point x="907.0" y="0.0" type="line"/>
      <point x="907.0" y="723.5" type="line" smooth="yes"/>
      <point x="907.0" y="996.0"/>
      <point x="777.5" y="1096.0"/>
      <point x="592.0" y="1096.0" type="curve" smooth="yes"/>
      <point x="467.0" y="1096.0"/>
      <point x="347.0" y="1046.0"/>
      <point x="257.0" y="948.0" type="curve"/>
      <point x="249.0" y="948.0" type="line"/>
      <point x="243.0" y="1080.0" type="line"/>
      <point x="183.0" y="1080.0" type="line"/>
    </contour>
    <contour>
      <point x="1488.0" y="0.0" type="line"/>
      <point x="1556.0" y="0.0" type="line"/>
      <point x="1556.0" y="723.5" type="line" smooth="yes"/>
      <point x="1556.0" y="996.0"/>
      <point x="1422.0" y="1096.0"/>
      <point x="1232.0" y="1096.0" type="curve" smooth="yes"/>
      <point x="1110.0" y="1096.0"/>
      <point x="963.0" y="1047.5"/>
      <point x="846.5" y="899.5" type="curve"/>
      <point x="871.5" y="815.5" type="line"/>
      <point x="964.5" y="978.5"/>
      <point x="1116.5" y="1030.0"/>
      <point x="1229.0" y="1030.0" type="curve" smooth="yes"/>
      <point x="1381.5" y="1030.0"/>
      <point x="1488.0" y="951.5"/>
      <point x="1488.0" y="722.0" type="curve" smooth="yes"/>
    </contour>
  </outline>
</glyph>
<glyph name="p" format="2">
  <advance width="1149.5"/>
  <unicode hex="0070"/>
  <outline>
    <contour>
      <point x="183.0" y="-440.0" type="line"/>
      <point x="251.0" y="-440.0" type="line"/>
      <point x="251.0" y="2.5" type="line"/>
      <point x="317.0" y="-8.0"/>
      <point x="400.5" y="-18.0"/>
      <point x="483.0" y="-18.0" type="curve" smooth="yes"/>
      <point x="845.5" y="-18.0"/>
      <point x="1031.5" y="167.5"/>
      <point x="1031.5" y="560.0" type="curve" smooth="yes"/>
      <point x="1031.5" y="955.0"/>
      <point x="837.0" y="1096.0"/>
      <point x="588.0" y="1096.0" type="curve" smooth="yes"/>
      <point x="450.0" y="1096.0"/>
      <point x="332.0" y="1039.5"/>
      <point x="257.0" y="952.5" type="curve"/>
      <point x="250.5" y="952.5" type="line"/>
      <point x="243.0" y="1080.0" type="line"/>
      <point x="183.0" y="1080.0" type="line"/>
    </contour>
    <contour>
      <point x="486.5" y="48.0" type="curve" smooth="yes"/>
      <point x="403.5" y="48.0"/>
      <point x="315.0" y="58.5"/>
      <point x="251.0" y="75.5" type="curve"/>
      <point x="251.0" y="856.5" type="line"/>
      <point x="336.0" y="980.5"/>
      <point x="461.0" y="1030.0"/>
      <point x="584.5" y="1030.0" type="curve" smooth="yes"/>
      <point x="800.0" y="1030.0"/>
      <point x="959.5" y="916.5"/>
      <point x="959.5" y="552.0" type="curve" smooth="yes"/>
      <point x="959.5" y="201.0"/>
      <point x="802.0" y="48.0"/>
    </contour>
  </outline>
</glyph>
<glyph name="q" format="2">
  <advance width="1149.5"/>
  <unicode hex="0071"/>
  <outline>
    <contour>
      <point x="898.5" y="-440.0" type="line"/>
      <point x="966.5" y="-440.0" type="line"/>
      <point x="966.5" y="1051.0" type="line"/>
      <point x="868.5" y="1080.0"/>
      <point x="762.0" y="1096.0"/>
      <point x="654.5" y="1096.0" type="curve" smooth="yes"/>
      <point x="304.5" y="1096.0"/>
      <point x="118.0" y="910.5"/>
      <point x="118.0" y="518.0" type="curve" smooth="yes"/>
      <point x="118.0" y="123.0"/>
      <point x="311.0" y="-18.0"/>
      <point x="554.5" y="-18.0" type="curve" smooth="yes"/>
      <point x="699.5" y="-18.0"/>
      <point x="816.0" y="38.5"/>
      <point x="892.5" y="119.5" type="curve"/>
      <point x="898.5" y="119.5" type="line"/>
    </contour>
    <contour>
      <point x="558.5" y="48.0" type="curve" smooth="yes"/>
      <point x="349.5" y="48.0"/>
      <point x="190.0" y="161.5"/>
      <point x="190.0" y="526.0" type="curve" smooth="yes"/>
      <point x="190.0" y="877.0"/>
      <point x="347.5" y="1030.0"/>
      <point x="648.5" y="1030.0" type="curve" smooth="yes"/>
      <point x="746.0" y="1030.0"/>
      <point x="834.5" y="1017.0"/>
      <point x="898.5" y="999.5" type="curve"/>
      <point x="898.5" y="211.5" type="line"/>
      <point x="813.5" y="97.5"/>
      <point x="684.0" y="48.0"/>
    </contour>
  </outline>
</glyph>
<glyph name="r" format="2">
  <advance width="726.5"/>
  <unicode hex="0072"/>
  <anchor x="217.0" y="0.0" name="bottom"/>
  <anchor x="441.0" y="1200.0" name="top"/>
  <outline>
    <contour>
      <point x="183.0" y="0.0" type="line"/>
      <point x="251.0" y="0.0" type="line"/>
      <point x="251.0" y="840.0" type="line"/>
      <point x="342.5" y="964.0"/>
      <point x="496.5" y="1018.0"/>
      <point x="612.5" y="1018.0" type="curve" smooth="yes"/>
      <point x="650.0" y="1018.0"/>
      <point x="680.0" y="1016.5"/>
      <point x="712.0" y="1011.5" type="curve"/>
      <point x="712.0" y="1079.5" type="line"/>
      <point x="677.5" y="1086.0"/>
      <point x="650.5" y="1088.0"/>
      <point x="613.0" y="1088.0" type="curve" smooth="yes"/>
      <point x="484.0" y="1088.0"/>
      <point x="343.5" y="1030.0"/>
      <point x="257.0" y="932.5" type="curve"/>
      <point x="249.0" y="932.5" type="line"/>
      <point x="243.0" y="1080.0" type="line"/>
      <point x="183.0" y="1080.0" type="line"/>
    </contour>
  </outline>
</glyph>
<glyph name="v" format="2">
  <advance width="1063.5"/>
  <unicode hex="0076"/>
  <anchor x="533.5" y="0.0" name="bottom"/>
  <anchor x="533.5" y="1200.0" name="top"/>
  <outline>
    <contour>
      <point x="485.5" y="0.0" type="line"/>
      <point x="578.0" y="0.0" type="line"/>
      <point x="1032.0" y="1080.0" type="line"/>
      <point x="960.5" y="1080.0" type="line"/>
      <point x="526.0" y="37.0" type="line"/>
      <point x="542.0" y="37.0" type="line"/>
      <point x="107.5" y="1080.0" type="line"/>
      <point x="31.5" y="1080.0" type="line"/>
    </contour>
  </outline>
</glyph>
<glyph name="x" format="2">
  <advance width="1018.5"/>
  <unicode hex="0078"/>
  <anchor x="511.0" y="0.0" name="bottom"/>
  <anchor x="511.0" y="1200.0" name="top"/>
  <outline>
    <contour>
      <point x="897.5" y="0.0" type="line"/>
      <point x="986.5" y="0.0" type="line"/>
      <point x="553.5" y="546.0" type="line"/>
      <point x="511.0" y="598.5" type="line"/>
      <point x="133.0" y="1080.0" type="line"/>
      <point x="44.0" y="1080.0" type="line"/>
      <point x="466.5" y="544.0" type="line"/>
      <point x="509.0" y="492.0" type="line"/>
    </contour>
    <contour>
      <point x="35.5" y="0.0" type="line"/>
      <point x="124.0" y="0.0" type="line"/>
      <point x="509.0" y="492.0" type="line"/>
      <point x="553.5" y="546.0" type="line"/>
      <point x="976.0" y="1080.0" type="line"/>
      <point x="890.5" y="1080.0" type="line"/>
      <point x="511.0" y="598.5" type="line"/>
      <point x="466.5" y="544.0" type="line"/>
    </contour>
  </outline>
</glyph>
<glyph name="z" format="2">
  <advance width="926.5"/>
  <unicode hex="007A"/>
  <anchor x="465.5" y="0.0" name="bottom"/>
  <anchor x="465.5" y="1200.0" name="top"/>
  <outline>
    <contour>
      <point x="64.5" y="0.0" type="line"/>
      <point x="866.0" y="0.0" type="line"/>
      <point x="866.0" y="64.0" type="line"/>
      <point x="144.0" y="64.0" type="line"/>
      <point x="144.0" y="39.5" type="line"/>
      <point x="853.0" y="1040.0" type="line"/>
      <point x="853.0" y="1080.0" type="line"/>
      <point x="77.5" y="1080.0" type="line"/>
      <point x="77.5" y="1016.0" type="line"/>
      <point x="773.5" y="1016.0" type="line"/>
      <point x="773.5" y="1040.5" type="line"/>
      <point x="64.5" y="40.0" type="line"/>
    </contour>
  </outline>
</glyph>
<glyph name="braceleft" format="2">
  <advance width="706.0"/>
  <unicode hex="007B"/>
  <outline>
    <contour>
      <point x="626.0" y="-460.0" type="curve" smooth="yes"/>
      <point x="670.0" y="-460.0"/>
      <point x="716.0" y="-456.0"/>
      <point x="746.0" y="-450.0" type="curve"/>
      <point x="746.0" y="-394.0" type="line"/>
      <point x="622.0" y="-394.0" type="line" smooth="yes"/>
      <point x="427.5" y="-394.0"/>
      <point x="331.0" y="-315.5"/>
      <point x="331.0" y="-119.5" type="curve" smooth="yes"/>
      <point x="331.0" y="384.0" type="line" smooth="yes"/>
      <point x="331.0" y="530.0"/>
      <point x="285.0" y="602.0"/>
      <point x="185.0" y="628.0" type="curve"/>
      <point x="185.0" y="616.0" type="line"/>
      <point x="285.0" y="642.0"/>
      <point x="331.0" y="714.0"/>
      <point x="331.0" y="860.0" type="curve" smooth="yes"/>
      <point x="331.0" y="1295.5" type="line" smooth="yes"/>
      <point x="331.0" y="1491.5"/>
      <point x="427.5" y="1570.0"/>
      <point x="622.0" y="1570.0" type="curve" smooth="yes"/>
      <point x="746.0" y="1570.0" type="line"/>
      <point x="746.0" y="1626.0" type="line"/>
      <point x="716.0" y="1632.0"/>
      <point x="670.0" y="1636.0"/>
      <point x="626.0" y="1636.0" type="curve" smooth="yes"/>
      <point x="386.0" y="1636.0"/>
      <point x="263.0" y="1523.5"/>
      <point x="263.0" y="1289.0" type="curve" smooth="yes"/>
      <point x="263.0" y="845.0" type="line" smooth="yes"/>
      <point x="263.0" y="708.0"/>
      <point x="201.0" y="654.0"/>
      <point x="74.0" y="654.0" type="curve" smooth="yes"/>
      <point x="53.5" y="654.0" type="line"/>
      <point x="53.5" y="590.0" type="line"/>
      <point x="74.0" y="590.0" type="line" smooth="yes"/>
      <point x="201.0" y="590.0"/>
      <point x="263.0" y="536.0"/>
      <point x="263.0" y="399.0" type="curve" smooth="yes"/>
      <point x="263.0" y="-113.0" type="line" smooth="yes"/>
      <point x="263.0" y="-347.5"/>
      <point x="386.0" y="-460.0"/>
    </contour>
  </outline>
</glyph>
<glyph name="bar" format="2">
  <advance width="474.0"/>
  <unicode hex="007C"/>
  <outline>
    <contour>
      <point x="203.0" y="-440.0" type="line"/>
      <point x="271.0" y="-440.0" type="line"/>
      <point x="271.0" y="1616.0" type="line"/>
      <point x="203.0" y="1616.0" type="line"/>
    </contour>
  </outline>
</glyph>
<glyph name="braceright" format="2">
  <advance width="706.0"/>
  <unicode hex="007D"/>
  <outline>
    <contour>
      <point x="80.0" y="-460.0" type="curve" smooth="yes"/>
      <point x="320.0" y="-460.0"/>
      <point x="443.0" y="-347.5"/>
      <point x="443.0" y="-113.0" type="curve" smooth="yes"/>
      <point x="443.0" y="399.0" type="line" smooth="yes"/>
      <point x="443.0" y="536.0"/>
      <point x="505.0" y="590.0"/>
      <point x="632.0" y="590.0" type="curve" smooth="yes"/>
      <point x="652.5" y="590.0" type="line"/>
      <point x="652.5" y="654.0" type="line"/>
      <point x="632.0" y="654.0" type="line" smooth="yes"/>
      <point x="505.0" y="654.0"/>
      <point x="443.0" y="708.0"/>
      <point x="443.0" y="845.0" type="curve" smooth="yes"/>
      <point x="443.0" y="1289.0" type="line" smooth="yes"/>
      <point x="443.0" y="1523.5"/>
      <point x="320.0" y="1636.0"/>
      <point x="80.0" y="1636.0" type="curve" smooth="yes"/>
      <point x="36.0" y="1636.0"/>
      <point x="-10.0" y="1632.0"/>
      <point x="-40.0" y="1626.0" type="curve"/>
      <point x="-40.0" y="1570.0" type="line"/>
      <point x="84.0" y="1570.0" type="line" smooth="yes"/>
      <point x="278.5" y="1570.0"/>
      <point x="375.0" y="1491.5"/>
      <point x="375.0" y="1295.5" type="curve" smooth="yes"/>
      <point x="375.0" y="860.0" type="line" smooth="yes"/>
      <point x="375.0" y="714.0"/>
      <point x="421.0" y="642.0"/>
      <point x="521.0" y="616.0" type="curve"/>
      <point x="521.0" y="628.0" type="line"/>
      <point x="421.0" y="602.0"/>
      <point x="375.0" y="530.0"/>
      <point x="375.0" y="384.0" type="curve" smooth="yes"/>
      <point x="375.0" y="-119.5" type="line" smooth="yes"/>
      <point x="375.0" y="-315.5"/>
      <point x="278.5" y="-394.0"/>
      <point x="84.0" y="-394.0" type="curve" smooth="yes"/>
      <point x="-40.0" y="-394.0" type="line"/>
      <point x="-40.0" y="-450.0" type="line"/>
      <point x="-10.0" y="-456.0"/>
      <point x="36.0" y="-460.0"/>
    </contour>
  </outline>
</glyph>
<glyph name="asciitilde" format="2">
  <advance width="1085.0"/>
  <unicode hex="007E"/>
  <outline>
    <contour>
      <point x="714.5" y="664.0" type="curve" smooth="yes"/>
      <point x="792.5" y="664.0"/>
      <point x="862.5" y="696.0"/>
      <point x="906.5" y="754.0" type="curve"/>
      <point x="906.5" y="836.0" type="line"/>
      <point x="852.5" y="764.0"/>
      <point x="788.5" y="728.0"/>
      <point x="712.5" y="728.0" type="curve" smooth="yes"/>
      <point x="608.5" y="728.0"/>
      <point x="502.5" y="844.0"/>
      <point x="370.5" y="844.0" type="curve" smooth="yes"/>
      <point x="292.5" y="844.0"/>
      <point x="222.5" y="812.0"/>
      <point x="178.5" y="754.0" type="curve"/>
      <point x="178.5" y="672.0" type="line"/>
      <point x="232.5" y="744.0"/>
      <point x="296.5" y="780.0"/>
      <point x="372.5" y="780.0" type="curve" smooth="yes"/>
      <point x="476.5" y="780.0"/>
      <point x="582.5" y="664.0"/>
    </contour>
  </outline>
</glyph>
<glyph name="exclamdown" format="2">
  <advance width="469.0"/>
  <unicode hex="00A1"/>
  <outline>
    <contour>
      <point x="210.5" y="764.0" type="line"/>
      <point x="198.5" y="190.0" type="line"/>
      <point x="198.5" y="-380.0" type="line"/>
      <point x="270.5" y="-380.0" type="line"/>
      <point x="270.5" y="190.0" type="line"/>
      <point x="258.5" y="764.0" type="line"/>
    </contour>
    <contour>
      <point x="234.5" y="1090.0" type="curve" smooth="yes"/>
      <point x="198.5" y="1090.0"/>
      <point x="172.5" y="1066.0"/>
      <point x="172.5" y="1028.0" type="curve" smooth="yes"/>
      <point x="172.5" y="990.0"/>
      <point x="198.5" y="964.0"/>
      <point x="234.5" y="964.0" type="curve" smooth="yes"/>
      <point x="270.5" y="964.0"/>
      <point x="296.5" y="990.0"/>
      <point x="296.5" y="1028.0" type="curve" smooth="yes"/>
      <point x="296.5" y="1066.0"/>
      <point x="270.5" y="1090.0"/>
    </contour>
  </outline>
</glyph>
<glyph name="cent" format="2">
  <advance width="898.5"/>
  <unicode hex="00A2"/>
  <outline>
    <contour>
      <point x="573.0" y="-18.0" type="curve" smooth="yes"/>
      <point x="662.5" y="-18.0"/>
      <point x="755.0" y="-1.5"/>
      <point x="846.5" y="32.5" type="curve"/>
      <point x="846.5" y="100.5" type="line"/>
      <point x="741.5" y="63.0"/>
      <point x="655.5" y="48.0"/>
      <point x="579.5" y="48.0" type="curve" smooth="yes"/>
      <point x="326.5" y="48.0"/>
      <point x="190.0" y="184.5"/>
      <point x="190.0" y="544.0" type="curve" smooth="yes"/>
      <point x="190.0" y="896.5"/>
      <point x="329.0" y="1030.0"/>
      <point x="615.5" y="1030.0" type="curve" smooth="yes"/>
      <point x="695.5" y="1030.0"/>
      <point x="768.5" y="1018.0"/>
      <point x="846.5" y="995.5" type="curve"/>
      <point x="846.5" y="1063.5" type="line"/>
      <point x="770.5" y="1085.5"/>
      <point x="696.5" y="1096.0"/>
      <point x="618.0" y="1096.0" type="curve" smooth="yes"/>
      <point x="293.0" y="1096.0"/>
      <point x="118.0" y="930.0"/>
      <point x="118.0" y="540.0" type="curve" smooth="yes"/>
      <point x="118.0" y="148.5"/>
      <point x="282.5" y="-18.0"/>
    </contour>
    <contour>
      <point x="541.0" y="-240.0" type="line"/>
      <point x="605.0" y="-240.0" type="line"/>
      <point x="605.0" y="0.0" type="line"/>
      <point x="541.0" y="0.0" type="line"/>
    </contour>
    <contour>
      <point x="541.0" y="1080.0" type="line"/>
      <point x="605.0" y="1080.0" type="line"/>
      <point x="605.0" y="1320.0" type="line"/>
      <point x="541.0" y="1320.0" type="line"/>
    </contour>
  </outline>
</glyph>
<glyph name="currency" format="2">
  <advance width="1150.0"/>
  <unicode hex="00A4"/>
  <outline>
    <contour>
      <point x="351.0" y="940.0" type="line"/>
      <point x="375.0" y="962.0" type="line"/>
      <point x="280.0" y="1085.0" type="line"/>
      <point x="184.0" y="1185.0" type="line"/>
      <point x="128.0" y="1129.0" type="line"/>
      <point x="230.0" y="1033.0" type="line"/>
    </contour>
    <contour>
      <point x="799.0" y="940.0" type="line"/>
      <point x="920.0" y="1033.0" type="line"/>
      <point x="1022.0" y="1129.0" type="line"/>
      <point x="966.0" y="1185.0" type="line"/>
      <point x="870.0" y="1085.0" type="line"/>
      <point x="775.0" y="962.0" type="line"/>
    </contour>
    <contour>
      <point x="964.0" y="295.0" type="line"/>
      <point x="1020.0" y="351.0" type="line"/>
      <point x="920.0" y="447.0" type="line"/>
      <point x="809.0" y="530.0" type="line"/>
      <point x="785.0" y="504.0" type="line"/>
      <point x="868.0" y="395.0" type="line"/>
    </contour>
    <contour>
      <point x="186.0" y="295.0" type="line"/>
      <point x="282.0" y="395.0" type="line"/>
      <point x="365.0" y="504.0" type="line"/>
      <point x="341.0" y="530.0" type="line"/>
      <point x="230.0" y="447.0" type="line"/>
      <point x="130.0" y="351.0" type="line"/>
    </contour>
    <contour>
      <point x="575.0" y="409.5" type="curve" smooth="yes"/>
      <point x="762.0" y="409.5"/>
      <point x="887.5" y="541.0"/>
      <point x="887.5" y="740.0" type="curve" smooth="yes"/>
      <point x="887.5" y="937.0"/>
      <point x="762.0" y="1068.5"/>
      <point x="575.0" y="1068.5" type="curve" smooth="yes"/>
      <point x="386.0" y="1068.5"/>
      <point x="262.5" y="937.0"/>
      <point x="262.5" y="740.0" type="curve" smooth="yes"/>
      <point x="262.5" y="541.0"/>
      <point x="386.0" y="409.5"/>
    </contour>
    <contour>
      <point x="575.0" y="471.5" type="curve" smooth="yes"/>
      <point x="426.0" y="471.5"/>
      <point x="324.5" y="571.0"/>
      <point x="324.5" y="740.0" type="curve" smooth="yes"/>
      <point x="324.5" y="909.0"/>
      <point x="426.0" y="1008.5"/>
      <point x="577.0" y="1008.5" type="curve" smooth="yes"/>
      <point x="738.0" y="1008.5"/>
      <point x="825.5" y="897.0"/>
      <point x="825.5" y="740.0" type="curve" smooth="yes"/>
      <point x="825.5" y="569.0"/>
      <point x="724.0" y="471.5"/>
    </contour>
  </outline>
</glyph>
<glyph name="yen" format="2">
  <advance width="1228.0"/>
  <unicode hex="00A5"/>
  <outline>
    <contour>
      <point x="580.0" y="0.0" type="line"/>
      <point x="648.0" y="0.0" type="line"/>
      <point x="648.0" y="706.5" type="line"/>
      <point x="629.0" y="652.0" type="line"/>
      <point x="1216.5" y="1480.0" type="line"/>
      <point x="1134.5" y="1480.0" type="line"/>
      <point x="597.0" y="718.0" type="line"/>
      <point x="634.0" y="718.0" type="line"/>
      <point x="97.0" y="1480.0" type="line"/>
      <point x="11.5" y="1480.0" type="line"/>
      <point x="599.0" y="652.0" type="line"/>
      <point x="580.0" y="706.5" type="line"/>
    </contour>
    <contour>
      <point x="250.0" y="320.0" type="line"/>
      <point x="978.0" y="320.0" type="line"/>
      <point x="978.0" y="384.0" type="line"/>
      <point x="250.0" y="384.0" type="line"/>
    </contour>
    <contour>
      <point x="250.0" y="664.0" type="line"/>
      <point x="978.0" y="664.0" type="line"/>
      <point x="978.0" y="728.0" type="line"/>
      <point x="250.0" y="728.0" type="line"/>
    </contour>
  </outline>
</glyph>
<glyph name="brokenbar" format="2">
  <advance width="474.0"/>
  <unicode hex="00A6"/>
  <outline>
    <contour>
      <point x="203.0" y="836.0" type="line"/>
      <point x="271.0" y="836.0" type="line"/>
      <point x="271.0" y="1616.0" type="line"/>
      <point x="203.0" y="1616.0" type="line"/>
    </contour>
    <contour>
      <point x="203.0" y="-440.0" type="line"/>
      <point x="271.0" y="-440.0" type="line"/>
      <point x="271.0" y="340.0" type="line"/>
      <point x="203.0" y="340.0" type="line"/>
    </contour>
  </outline>
</glyph>
<glyph name="section" format="2">
  <advance width="1032.0"/>
  <unicode hex="00A7"/>
  <outline>
    <contour>
      <point x="458.0" y="-18.0" type="curve" smooth="yes"/>
      <point x="734.0" y="-18.0"/>
      <point x="864.0" y="98.0"/>
      <point x="864.0" y="281.0" type="curve" smooth="yes"/>
      <point x="864.0" y="430.0"/>
      <point x="786.0" y="517.0"/>
      <point x="577.5" y="559.0" type="curve" smooth="yes"/>
      <point x="430.0" y="588.0" type="line" smooth="yes"/>
      <point x="268.0" y="620.5"/>
      <point x="215.5" y="698.5"/>
      <point x="215.5" y="804.0" type="curve" smooth="yes"/>
      <point x="215.5" y="879.0"/>
      <point x="249.5" y="943.0"/>
      <point x="322.5" y="984.5" type="curve"/>
      <point x="271.0" y="1027.0" type="line"/>
      <point x="190.5" y="973.5"/>
      <point x="148.0" y="893.5"/>
      <point x="148.0" y="801.5" type="curve" smooth="yes"/>
      <point x="148.0" y="654.5"/>
      <point x="224.5" y="559.0"/>
      <point x="425.5" y="518.0" type="curve" smooth="yes"/>
      <point x="573.0" y="489.0" type="line" smooth="yes"/>
      <point x="736.0" y="456.5"/>
      <point x="792.5" y="395.5"/>
      <point x="792.5" y="274.0" type="curve" smooth="yes"/>
      <point x="792.5" y="131.0"/>
      <point x="696.0" y="48.0"/>
      <point x="462.5" y="48.0" type="curve" smooth="yes"/>
      <point x="364.0" y="48.0"/>
      <point x="278.0" y="58.5"/>
      <point x="163.0" y="92.5" type="curve"/>
      <point x="163.0" y="24.5" type="line"/>
      <point x="257.0" y="-5.5"/>
      <point x="349.5" y="-18.0"/>
    </contour>
    <contour>
      <point x="769.0" y="455.5" type="line"/>
      <point x="842.0" y="508.5"/>
      <point x="884.0" y="585.0"/>
      <point x="884.0" y="681.0" type="curve" smooth="yes"/>
      <point x="884.0" y="830.0"/>
      <point x="806.0" y="919.0"/>
      <point x="597.5" y="961.0" type="curve" smooth="yes"/>
      <point x="450.0" y="990.0" type="line" smooth="yes"/>
      <point x="288.0" y="1022.5"/>
      <point x="239.5" y="1098.5"/>
      <point x="239.5" y="1204.0" type="curve" smooth="yes"/>
      <point x="239.5" y="1333.5"/>
      <point x="328.5" y="1430.0"/>
      <point x="569.5" y="1430.0" type="curve" smooth="yes"/>
      <point x="657.0" y="1430.0"/>
      <point x="727.5" y="1421.0"/>
      <point x="825.0" y="1394.0" type="curve"/>
      <point x="825.0" y="1462.0" type="line"/>
      <point x="741.0" y="1485.0"/>
      <point x="660.0" y="1496.0"/>
      <point x="569.5" y="1496.0" type="curve" smooth="yes"/>
      <point x="290.0" y="1496.0"/>
      <point x="168.0" y="1369.0"/>
      <point x="168.0" y="1201.5" type="curve" smooth="yes"/>
      <point x="168.0" y="1054.5"/>
      <point x="244.5" y="961.0"/>
      <point x="445.5" y="920.0" type="curve" smooth="yes"/>
      <point x="593.0" y="891.0" type="line" smooth="yes"/>
      <point x="756.0" y="858.5"/>
      <point x="816.5" y="795.5"/>
      <point x="816.5" y="674.0" type="curve" smooth="yes"/>
      <point x="816.5" y="593.5"/>
      <point x="782.5" y="532.0"/>
      <point x="712.5" y="494.0" type="curve"/>
    </contour>
  </outline>
</glyph>
<glyph name="dieresis" format="2">
  <advance width="1100.0"/>
  <unicode hex="00A8"/>
  <anchor x="550.0" y="1200.0" name="_top"/>
  <anchor x="550.0" y="1556.0" name="top"/>
  <outline>
    <contour>
      <point x="770.0" y="1360.0" type="curve" smooth="yes"/>
      <point x="806.0" y="1360.0"/>
      <point x="832.0" y="1384.0"/>
      <point x="832.0" y="1422.0" type="curve" smooth="yes"/>
      <point x="832.0" y="1460.0"/>
      <point x="806.0" y="1486.0"/>
      <point x="770.0" y="1486.0" type="curve" smooth="yes"/>
      <point x="734.0" y="1486.0"/>
      <point x="708.0" y="1460.0"/>
      <point x="708.0" y="1422.0" type="curve" smooth="yes"/>
      <point x="708.0" y="1384.0"/>
      <point x="734.0" y="1360.0"/>
    </contour>
    <contour>
      <point x="330.0" y="1360.0" type="curve" smooth="yes"/>
      <point x="366.0" y="1360.0"/>
      <point x="392.0" y="1384.0"/>
      <point x="392.0" y="1422.0" type="curve" smooth="yes"/>
      <point x="392.0" y="1460.0"/>
      <point x="366.0" y="1486.0"/>
      <point x="330.0" y="1486.0" type="curve" smooth="yes"/>
      <point x="294.0" y="1486.0"/>
      <point x="268.0" y="1460.0"/>
      <point x="268.0" y="1422.0" type="curve" smooth="yes"/>
      <point x="268.0" y="1384.0"/>
      <point x="294.0" y="1360.0"/>
    </contour>
  </outline>
</glyph>
<glyph name="copyright" format="2">
  <advance width="1744.0"/>
  <unicode hex="00A9"/>
  <outline>
    <contour>
      <point x="872.0" y="-22.0" type="curve" smooth="yes"/>
      <point x="1318.0" y="-22.0"/>
      <point x="1616.0" y="282.0"/>
      <point x="1616.0" y="740.0" type="curve" smooth="yes"/>
      <point x="1616.0" y="1198.0"/>
      <point x="1318.0" y="1502.0"/>
      <point x="872.0" y="1502.0" type="curve" smooth="yes"/>
      <point x="426.0" y="1502.0"/>
      <point x="128.0" y="1198.0"/>
      <point x="128.0" y="740.0" type="curve" smooth="yes"/>
      <point x="128.0" y="282.0"/>
      <point x="426.0" y="-22.0"/>
    </contour>
    <contour>
      <point x="906.0" y="324.0" type="curve" smooth="yes"/>
      <point x="984.0" y="324.0"/>
      <point x="1056.0" y="336.0"/>
      <point x="1124.0" y="366.0" type="curve"/>
      <point x="1124.0" y="432.0" type="line"/>
      <point x="1042.0" y="400.0"/>
      <point x="970.0" y="390.0"/>
      <point x="912.0" y="390.0" type="curve" smooth="yes"/>
      <point x="716.0" y="390.0"/>
      <point x="594.0" y="500.0"/>
      <point x="594.0" y="738.0" type="curve" smooth="yes"/>
      <point x="594.0" y="970.0"/>
      <point x="716.0" y="1078.0"/>
      <point x="934.0" y="1078.0" type="curve" smooth="yes"/>
      <point x="1004.0" y="1078.0"/>
      <point x="1062.0" y="1068.0"/>
      <point x="1124.0" y="1050.0" type="curve"/>
      <point x="1124.0" y="1116.0" type="line"/>
      <point x="1060.0" y="1136.0"/>
      <point x="1000.0" y="1144.0"/>
      <point x="932.0" y="1144.0" type="curve" smooth="yes"/>
      <point x="668.0" y="1144.0"/>
      <point x="522.0" y="996.0"/>
      <point x="522.0" y="734.0" type="curve" smooth="yes"/>
      <point x="522.0" y="462.0"/>
      <point x="676.0" y="324.0"/>
    </contour>
    <contour>
      <point x="872.0" y="46.0" type="curve" smooth="yes"/>
      <point x="466.0" y="46.0"/>
      <point x="196.0" y="322.0"/>
      <point x="196.0" y="740.0" type="curve" smooth="yes"/>
      <point x="196.0" y="1158.0"/>
      <point x="466.0" y="1434.0"/>
      <point x="872.0" y="1434.0" type="curve" smooth="yes"/>
      <point x="1278.0" y="1434.0"/>
      <point x="1548.0" y="1158.0"/>
      <point x="1548.0" y="740.0" type="curve" smooth="yes"/>
      <point x="1548.0" y="322.0"/>
      <point x="1278.0" y="46.0"/>
    </contour>
  </outline>
</glyph>
<glyph name="ordfeminine" format="2">
  <advance width="884.0"/>
  <unicode hex="00AA"/>
  <outline>
    <contour>
      <point x="376.0" y="596.0" type="curve" smooth="yes"/>
      <point x="494.5" y="596.0"/>
      <point x="607.0" y="643.0"/>
      <point x="675.0" y="714.0" type="curve"/>
      <point x="681.0" y="714.0" type="line"/>
      <point x="687.0" y="610.0" type="line"/>
      <point x="743.0" y="610.0" type="line"/>
      <point x="743.0" y="1199.5" type="line" smooth="yes"/>
      <point x="743.0" y="1422.0"/>
      <point x="624.0" y="1492.0"/>
      <point x="411.5" y="1492.0" type="curve" smooth="yes"/>
      <point x="324.0" y="1492.0"/>
      <point x="226.5" y="1478.0"/>
      <point x="149.5" y="1449.5" type="curve"/>
      <point x="149.5" y="1385.5" type="line"/>
      <point x="243.5" y="1417.5"/>
      <point x="335.5" y="1430.0"/>
      <point x="409.0" y="1430.0" type="curve" smooth="yes"/>
      <point x="581.5" y="1430.0"/>
      <point x="679.0" y="1382.0"/>
      <point x="679.0" y="1200.5" type="curve" smooth="yes"/>
      <point x="679.0" y="789.0" type="line"/>
      <point x="597.0" y="699.5"/>
      <point x="489.0" y="658.0"/>
      <point x="381.5" y="658.0" type="curve" smooth="yes"/>
      <point x="234.0" y="658.0"/>
      <point x="165.0" y="722.0"/>
      <point x="165.0" y="832.5" type="curve" smooth="yes"/>
      <point x="165.0" y="938.0"/>
      <point x="235.5" y="996.5"/>
      <point x="416.0" y="1016.5" type="curve" smooth="yes"/>
      <point x="714.5" y="1049.5" type="line"/>
      <point x="714.0" y="1108.0" type="line"/>
      <point x="414.5" y="1075.0" type="line" smooth="yes"/>
      <point x="190.5" y="1050.5"/>
      <point x="97.0" y="970.5"/>
      <point x="97.0" y="827.5" type="curve" smooth="yes"/>
      <point x="97.0" y="683.5"/>
      <point x="202.5" y="596.0"/>
    </contour>
  </outline>
</glyph>
<glyph name="guillemetleft" format="2">
  <advance width="968.5"/>
  <unicode hex="00AB"/>
  <outline>
    <contour>
      <point x="427.0" y="140.0" type="line"/>
      <point x="504.0" y="140.0" type="line"/>
      <point x="214.0" y="560.0" type="line"/>
      <point x="504.0" y="980.0" type="line"/>
      <point x="427.0" y="980.0" type="line"/>
      <point x="137.0" y="560.0" type="line"/>
    </contour>
    <contour>
      <point x="794.5" y="140.0" type="line"/>
      <point x="871.5" y="140.0" type="line"/>
      <point x="581.5" y="560.0" type="line"/>
      <point x="871.5" y="980.0" type="line"/>
      <point x="794.5" y="980.0" type="line"/>
      <point x="504.5" y="560.0" type="line"/>
    </contour>
  </outline>
</glyph>
<glyph name="logicalnot" format="2">
  <advance width="1381.0"/>
  <unicode hex="00AC"/>
  <outline>
    <contour>
      <point x="1146.0" y="192.0" type="line"/>
      <point x="1214.0" y="192.0" type="line"/>
      <point x="1214.0" y="792.0" type="line"/>
      <point x="178.5" y="792.0" type="line"/>
      <point x="178.5" y="728.0" type="line"/>
      <point x="1146.0" y="728.0" type="line"/>
    </contour>
  </outline>
</glyph>
<glyph name="registered" format="2">
  <advance width="1566.0"/>
  <unicode hex="00AE"/>
  <outline>
    <contour>
      <point x="783.0" y="268.0" type="curve" smooth="yes"/>
      <point x="1145.0" y="268.0"/>
      <point x="1393.0" y="518.0"/>
      <point x="1393.0" y="882.0" type="curve" smooth="yes"/>
      <point x="1393.0" y="1246.0"/>
      <point x="1145.0" y="1498.0"/>
      <point x="783.0" y="1498.0" type="curve" smooth="yes"/>
      <point x="421.0" y="1498.0"/>
      <point x="173.0" y="1246.0"/>
      <point x="173.0" y="882.0" type="curve" smooth="yes"/>
      <point x="173.0" y="518.0"/>
      <point x="421.0" y="268.0"/>
    </contour>
    <contour>
      <point x="961.0" y="600.0" type="line"/>
      <point x="1037.0" y="600.0" type="line"/>
      <point x="861.0" y="860.0" type="line"/>
      <point x="801.0" y="834.0" type="line"/>
    </contour>
    <contour>
      <point x="783.0" y="334.0" type="curve" smooth="yes"/>
      <point x="455.0" y="334.0"/>
      <point x="241.0" y="550.0"/>
      <point x="241.0" y="882.0" type="curve" smooth="yes"/>
      <point x="241.0" y="1214.0"/>
      <point x="455.0" y="1432.0"/>
      <point x="783.0" y="1432.0" type="curve" smooth="yes"/>
      <point x="1111.0" y="1432.0"/>
      <point x="1325.0" y="1214.0"/>
      <point x="1325.0" y="882.0" type="curve" smooth="yes"/>
      <point x="1325.0" y="550.0"/>
      <point x="1111.0" y="334.0"/>
    </contour>
    <contour>
      <point x="575.0" y="600.0" type="line"/>
      <point x="641.0" y="600.0" type="line"/>
      <point x="641.0" y="826.0" type="line"/>
      <point x="769.0" y="826.0" type="line" smooth="yes"/>
      <point x="931.0" y="826.0"/>
      <point x="1013.0" y="892.0"/>
      <point x="1013.0" y="1008.0" type="curve" smooth="yes"/>
      <point x="1013.0" y="1124.0"/>
      <point x="929.0" y="1192.0"/>
      <point x="769.0" y="1192.0" type="curve" smooth="yes"/>
      <point x="575.0" y="1192.0" type="line"/>
    </contour>
    <contour>
      <point x="641.0" y="888.0" type="line"/>
      <point x="641.0" y="1130.0" type="line"/>
      <point x="781.0" y="1130.0" type="line" smooth="yes"/>
      <point x="893.0" y="1130.0"/>
      <point x="947.0" y="1090.0"/>
      <point x="947.0" y="1008.0" type="curve" smooth="yes"/>
      <point x="947.0" y="926.0"/>
      <point x="895.0" y="888.0"/>
      <point x="781.0" y="888.0" type="curve" smooth="yes"/>
    </contour>
  </outline>
</glyph>
<glyph name="macron" format="2">
  <advance width="1100.0"/>
  <unicode hex="00AF"/>
  <anchor x="550.0" y="1200.0" name="_top"/>
  <anchor x="550.0" y="1556.0" name="top"/>
  <outline>
    <contour>
      <point x="250.5" y="1394.0" type="line"/>
      <point x="849.5" y="1394.0" type="line"/>
      <point x="849.5" y="1453.5" type="line"/>
      <point x="250.5" y="1453.5" type="line"/>
    </contour>
  </outline>
</glyph>
<glyph name="degree" format="2">
  <advance width="1020.0"/>
  <unicode hex="00B0"/>
  <outline>
    <contour>
      <point x="510.0" y="822.0" type="curve" smooth="yes"/>
      <point x="707.0" y="822.0"/>
      <point x="847.0" y="964.0"/>
      <point x="847.0" y="1159.0" type="curve" smooth="yes"/>
      <point x="847.0" y="1354.0"/>
      <point x="707.0" y="1496.0"/>
      <point x="510.0" y="1496.0" type="curve" smooth="yes"/>
      <point x="313.0" y="1496.0"/>
      <point x="173.0" y="1354.0"/>
      <point x="173.0" y="1159.0" type="curve" smooth="yes"/>
      <point x="173.0" y="964.0"/>
      <point x="313.0" y="822.0"/>
    </contour>
    <contour>
      <point x="510.0" y="886.0" type="curve" smooth="yes"/>
      <point x="351.5" y="886.0"/>
      <point x="239.5" y="992.0"/>
      <point x="239.5" y="1159.0" type="curve" smooth="yes"/>
      <point x="239.5" y="1326.0"/>
      <point x="351.5" y="1432.0"/>
      <point x="510.0" y="1432.0" type="curve" smooth="yes"/>
      <point x="668.5" y="1432.0"/>
      <point x="780.5" y="1326.0"/>
      <point x="780.5" y="1159.0" type="curve" smooth="yes"/>
      <point x="780.5" y="992.0"/>
      <point x="668.5" y="886.0"/>
    </contour>
  </outline>
</glyph>
<glyph name="plusminus" format="2">
  <advance width="1085.0"/>
  <unicode hex="00B1"/>
  <outline>
    <contour>
      <point x="508.5" y="316.0" type="line"/>
      <point x="576.5" y="316.0" type="line"/>
      <point x="576.5" y="666.0" type="line"/>
      <point x="906.5" y="666.0" type="line"/>
      <point x="906.5" y="730.0" type="line"/>
      <point x="576.5" y="730.0" type="line"/>
      <point x="576.5" y="1080.0" type="line"/>
      <point x="508.5" y="1080.0" type="line"/>
      <point x="508.5" y="730.0" type="line"/>
      <point x="178.5" y="730.0" type="line"/>
      <point x="178.5" y="666.0" type="line"/>
      <point x="508.5" y="666.0" type="line"/>
    </contour>
    <contour>
      <point x="178.5" y="0.0" type="line"/>
      <point x="906.5" y="0.0" type="line"/>
      <point x="906.5" y="64.0" type="line"/>
      <point x="178.5" y="64.0" type="line"/>
    </contour>
  </outline>
</glyph>
<glyph name="twosuperior" format="2">
  <advance width="783.5"/>
  <unicode hex="00B2"/>
  <outline>
    <contour>
      <point x="95.0" y="-136.0" type="line"/>
      <point x="701.5" y="-136.0" type="line"/>
      <point x="701.5" y="-74.0" type="line"/>
      <point x="163.5" y="-74.0" type="line"/>
      <point x="171.5" y="-95.5" type="line"/>
      <point x="463.0" y="253.5" type="line" smooth="yes"/>
      <point x="593.5" y="409.5"/>
      <point x="642.0" y="500.5"/>
      <point x="642.5" y="614.0" type="curve" smooth="yes"/>
      <point x="643.0" y="795.0"/>
      <point x="528.0" y="876.0"/>
      <point x="329.0" y="876.0" type="curve" smooth="yes"/>
      <point x="234.5" y="876.0"/>
      <point x="148.0" y="862.5"/>
      <point x="83.0" y="837.0" type="curve"/>
      <point x="83.0" y="773.0" type="line"/>
      <point x="157.5" y="800.5"/>
      <point x="236.5" y="814.0"/>
      <point x="326.5" y="814.0" type="curve" smooth="yes"/>
      <point x="490.0" y="814.0"/>
      <point x="576.5" y="752.0"/>
      <point x="576.5" y="609.0" type="curve" smooth="yes"/>
      <point x="576.5" y="516.0"/>
      <point x="531.0" y="430.0"/>
      <point x="414.0" y="290.5" type="curve" smooth="yes"/>
      <point x="95.0" y="-97.5" type="line"/>
    </contour>
  </outline>
</glyph>
<glyph name="paragraph" format="2">
  <advance width="1249.0"/>
  <unicode hex="00B6"/>
  <outline>
    <contour>
      <point x="780.0" y="0.0" type="line"/>
      <point x="848.0" y="0.0" type="line"/>
      <point x="848.0" y="1480.0" type="line"/>
      <point x="762.5" y="1488.0"/>
      <point x="662.0" y="1494.0"/>
      <point x="557.0" y="1494.0" type="curve" smooth="yes"/>
      <point x="264.0" y="1494.0"/>
      <point x="102.5" y="1344.5"/>
      <point x="102.5" y="1008.5" type="curve" smooth="yes"/>
      <point x="102.5" y="693.5"/>
      <point x="249.0" y="518.0"/>
      <point x="598.0" y="518.0" type="curve" smooth="yes"/>
      <point x="665.5" y="518.0"/>
      <point x="720.0" y="521.5"/>
      <point x="780.0" y="530.0" type="curve"/>
    </contour>
    <contour>
      <point x="978.0" y="0.0" type="line"/>
      <point x="1046.0" y="0.0" type="line"/>
      <point x="1046.0" y="1480.0" type="line"/>
      <point x="978.0" y="1480.0" type="line"/>
    </contour>
  </outline>
</glyph>
<glyph name="onesuperior" format="2">
  <advance width="783.5"/>
  <unicode hex="00B9"/>
  <outline>
    <contour>
      <point x="403.5" y="-116.0" type="line"/>
      <point x="467.5" y="-116.0" type="line"/>
      <point x="467.5" y="868.0" type="line"/>
      <point x="425.0" y="868.0" type="line"/>
      <point x="144.0" y="662.5" type="line"/>
      <point x="144.0" y="589.5" type="line"/>
      <point x="425.0" y="795.0" type="line"/>
      <point x="403.5" y="807.5" type="line"/>
    </contour>
    <contour>
      <point x="146.5" y="-136.0" type="line"/>
      <point x="711.5" y="-136.0" type="line"/>
      <point x="711.5" y="-74.0" type="line"/>
      <point x="146.5" y="-74.0" type="line"/>
    </contour>
  </outline>
</glyph>
<glyph name="ordmasculine" format="2">
  <advance width="974.0"/>
  <unicode hex="00BA"/>
  <outline>
    <contour>
      <point x="487.0" y="596.0" type="curve" smooth="yes"/>
      <point x="712.5" y="596.0"/>
      <point x="870.0" y="732.0"/>
      <point x="870.0" y="1046.0" type="curve" smooth="yes"/>
      <point x="870.0" y="1360.0"/>
      <point x="712.5" y="1492.0"/>
      <point x="487.0" y="1492.0" type="curve" smooth="yes"/>
      <point x="261.5" y="1492.0"/>
      <point x="104.0" y="1360.0"/>
      <point x="104.0" y="1046.0" type="curve" smooth="yes"/>
      <point x="104.0" y="732.0"/>
      <point x="261.5" y="596.0"/>
    </contour>
    <contour>
      <point x="487.0" y="659.5" type="curve" smooth="yes"/>
      <point x="296.5" y="659.5"/>
      <point x="172.0" y="764.0"/>
      <point x="172.0" y="1046.0" type="curve" smooth="yes"/>
      <point x="172.0" y="1328.0"/>
      <point x="296.5" y="1428.5"/>
      <point x="487.0" y="1428.5" type="curve" smooth="yes"/>
      <point x="677.5" y="1428.5"/>
      <point x="802.0" y="1328.0"/>
      <point x="802.0" y="1046.0" type="curve" smooth="yes"/>
      <point x="802.0" y="764.0"/>
      <point x="677.5" y="659.5"/>
    </contour>
  </outline>
</glyph>
<glyph name="guillemetright" format="2">
  <advance width="968.5"/>
  <unicode hex="00BB"/>
  <outline>
    <contour>
      <point x="97.0" y="140.0" type="line"/>
      <point x="174.0" y="140.0" type="line"/>
      <point x="464.0" y="560.0" type="line"/>
      <point x="174.0" y="980.0" type="line"/>
      <point x="97.0" y="980.0" type="line"/>
      <point x="387.0" y="560.0" type="line"/>
    </contour>
    <contour>
      <point x="464.5" y="140.0" type="line"/>
      <point x="541.5" y="140.0" type="line"/>
      <point x="831.5" y="560.0" type="line"/>
      <point x="541.5" y="980.0" type="line"/>
      <point x="464.5" y="980.0" type="line"/>
      <point x="754.5" y="560.0" type="line"/>
    </contour>
  </outline>
</glyph>
<glyph name="onequarter" format="2">
  <advance width="1809.5"/>
  <unicode hex="00BC"/>
  <outline>
    <contour>
      <point x="403.5" y="636.0" type="line"/>
      <point x="467.5" y="636.0" type="line"/>
      <point x="467.5" y="1620.0" type="line"/>
      <point x="425.0" y="1620.0" type="line"/>
      <point x="144.0" y="1414.5" type="line"/>
      <point x="144.0" y="1341.5" type="line"/>
      <point x="425.0" y="1547.0" type="line"/>
      <point x="403.5" y="1559.5" type="line"/>
    </contour>
    <contour>
      <point x="146.5" y="616.0" type="line"/>
      <point x="711.5" y="616.0" type="line"/>
      <point x="711.5" y="678.0" type="line"/>
      <point x="146.5" y="678.0" type="line"/>
    </contour>
    <contour>
      <point x="461.0" y="-136.0" type="line"/>
      <point x="527.0" y="-136.0" type="line"/>
      <point x="1348.5" y="1616.0" type="line"/>
      <point x="1282.5" y="1616.0" type="line"/>
    </contour>
    <contour>
      <point x="1058.5" y="116.0" type="line"/>
      <point x="1784.0" y="116.0" type="line"/>
      <point x="1784.0" y="176.0" type="line"/>
      <point x="1112.5" y="176.0" type="line"/>
      <point x="1126.5" y="154.5" type="line"/>
      <point x="1536.5" y="864.0" type="line"/>
      <point x="1468.5" y="864.0" type="line"/>
      <point x="1058.5" y="156.0" type="line"/>
    </contour>
    <contour>
      <point x="1569.0" y="-136.0" type="line"/>
      <point x="1631.0" y="-136.0" type="line"/>
      <point x="1631.0" y="526.0" type="line"/>
      <point x="1581.0" y="526.0" type="line"/>
      <point x="1569.0" y="176.0" type="line"/>
    </contour>
  </outline>
</glyph>
<glyph name="onehalf" format="2">
  <advance width="1809.5"/>
  <unicode hex="00BD"/>
  <outline>
    <contour>
      <point x="403.5" y="636.0" type="line"/>
      <point x="467.5" y="636.0" type="line"/>
      <point x="467.5" y="1620.0" type="line"/>
      <point x="425.0" y="1620.0" type="line"/>
      <point x="144.0" y="1414.5" type="line"/>
      <point x="144.0" y="1341.5" type="line"/>
      <point x="425.0" y="1547.0" type="line"/>
      <point x="403.5" y="1559.5" type="line"/>
    </contour>
    <contour>
      <point x="146.5" y="616.0" type="line"/>
      <point x="711.5" y="616.0" type="line"/>
      <point x="711.5" y="678.0" type="line"/>
      <point x="146.5" y="678.0" type="line"/>
    </contour>
    <contour>
      <point x="461.0" y="-136.0" type="line"/>
      <point x="527.0" y="-136.0" type="line"/>
      <point x="1348.5" y="1616.0" type="line"/>
      <point x="1282.5" y="1616.0" type="line"/>
    </contour>
    <contour>
      <point x="1121.0" y="-136.0" type="line"/>
      <point x="1727.5" y="-136.0" type="line"/>
      <point x="1727.5" y="-74.0" type="line"/>
      <point x="1189.5" y="-74.0" type="line"/>
      <point x="1197.5" y="-95.5" type="line"/>
      <point x="1489.0" y="253.5" type="line" smooth="yes"/>
      <point x="1619.5" y="409.5"/>
      <point x="1668.0" y="500.5"/>
      <point x="1668.5" y="614.0" type="curve" smooth="yes"/>
      <point x="1669.0" y="795.0"/>
      <point x="1554.0" y="876.0"/>
      <point x="1355.0" y="876.0" type="curve" smooth="yes"/>
      <point x="1260.5" y="876.0"/>
      <point x="1174.0" y="862.5"/>
      <point x="1109.0" y="837.0" type="curve"/>
      <point x="1109.0" y="773.0" type="line"/>
      <point x="1183.5" y="800.5"/>
      <point x="1262.5" y="814.0"/>
      <point x="1352.5" y="814.0" type="curve" smooth="yes"/>
      <point x="1516.0" y="814.0"/>
      <point x="1602.5" y="752.0"/>
      <point x="1602.5" y="609.0" type="curve" smooth="yes"/>
      <point x="1602.5" y="516.0"/>
      <point x="1557.0" y="430.0"/>
      <point x="1440.0" y="290.5" type="curve" smooth="yes"/>
      <point x="1121.0" y="-97.5" type="line"/>
    </contour>
  </outline>
</glyph>
<glyph name="threequarters" format="2">
  <advance width="1809.5"/>
  <unicode hex="00BE"/>
  <outline>
    <contour>
      <point x="328.0" y="604.0" type="curve" smooth="yes"/>
      <point x="579.5" y="604.0"/>
      <point x="702.5" y="709.0"/>
      <point x="702.5" y="886.5" type="curve" smooth="yes"/>
      <point x="702.5" y="1033.0"/>
      <point x="604.0" y="1126.0"/>
      <point x="426.0" y="1145.5" type="curve"/>
      <point x="426.0" y="1127.0" type="line"/>
      <point x="571.0" y="1157.0"/>
      <point x="667.5" y="1245.0"/>
      <point x="667.5" y="1379.0" type="curve" smooth="yes"/>
      <point x="667.5" y="1536.0"/>
      <point x="551.5" y="1628.0"/>
      <point x="347.0" y="1628.0" type="curve" smooth="yes"/>
      <point x="261.0" y="1628.0"/>
      <point x="173.0" y="1616.0"/>
      <point x="102.5" y="1592.0" type="curve"/>
      <point x="102.5" y="1528.0" type="line"/>
      <point x="183.5" y="1557.0"/>
      <point x="264.5" y="1567.5"/>
      <point x="343.5" y="1567.5" type="curve" smooth="yes"/>
      <point x="511.5" y="1567.5"/>
      <point x="603.5" y="1498.5"/>
      <point x="603.5" y="1375.5" type="curve" smooth="yes"/>
      <point x="603.5" y="1233.0"/>
      <point x="489.0" y="1160.5"/>
      <point x="278.0" y="1160.5" type="curve" smooth="yes"/>
      <point x="223.0" y="1160.5" type="line"/>
      <point x="223.0" y="1099.5" type="line"/>
      <point x="353.5" y="1099.5" type="line" smooth="yes"/>
      <point x="547.0" y="1099.5"/>
      <point x="638.5" y="1022.5"/>
      <point x="638.5" y="890.0" type="curve" smooth="yes"/>
      <point x="638.5" y="745.0"/>
      <point x="538.0" y="664.5"/>
      <point x="329.0" y="664.5" type="curve" smooth="yes"/>
      <point x="247.5" y="664.5"/>
      <point x="157.0" y="678.0"/>
      <point x="71.0" y="708.5" type="curve"/>
      <point x="71.0" y="644.5" type="line"/>
      <point x="150.0" y="617.5"/>
      <point x="242.5" y="604.0"/>
    </contour>
    <contour>
      <point x="461.0" y="-136.0" type="line"/>
      <point x="527.0" y="-136.0" type="line"/>
      <point x="1348.5" y="1616.0" type="line"/>
      <point x="1282.5" y="1616.0" type="line"/>
    </contour>
    <contour>
      <point x="1058.5" y="116.0" type="line"/>
      <point x="1784.0" y="116.0" type="line"/>
      <point x="1784.0" y="176.0" type="line"/>
      <point x="1112.5" y="176.0" type="line"/>
      <point x="1126.5" y="154.5" type="line"/>
      <point x="1536.5" y="864.0" type="line"/>
      <point x="1468.5" y="864.0" type="line"/>
      <point x="1058.5" y="156.0" type="line"/>
    </contour>
    <contour>
      <point x="1569.0" y="-136.0" type="line"/>
      <point x="1631.0" y="-136.0" type="line"/>
      <point x="1631.0" y="526.0" type="line"/>
      <point x="1581.0" y="526.0" type="line"/>
      <point x="1569.0" y="176.0" type="line"/>
    </contour>
  </outline>
</glyph>
<glyph name="questiondown" format="2">
  <advance width="899.5"/>
  <unicode hex="00BF"/>
  <outline>
    <contour>
      <point x="512.5" y="780.0" type="line"/>
      <point x="464.5" y="780.0" type="line"/>
      <point x="454.5" y="399.5" type="line"/>
      <point x="160.0" y="287.0"/>
      <point x="66.0" y="161.5"/>
      <point x="66.0" y="-45.5" type="curve" smooth="yes"/>
      <point x="66.0" y="-264.5"/>
      <point x="227.5" y="-400.0"/>
      <point x="510.0" y="-400.0" type="curve" smooth="yes"/>
      <point x="631.5" y="-400.0"/>
      <point x="749.5" y="-381.5"/>
      <point x="853.5" y="-346.0" type="curve"/>
      <point x="853.5" y="-278.0" type="line"/>
      <point x="737.5" y="-317.5"/>
      <point x="625.0" y="-334.0"/>
      <point x="511.5" y="-334.0" type="curve" smooth="yes"/>
      <point x="269.5" y="-334.0"/>
      <point x="136.0" y="-226.0"/>
      <point x="136.0" y="-44.5" type="curve" smooth="yes"/>
      <point x="136.0" y="142.0"/>
      <point x="232.5" y="252.5"/>
      <point x="524.5" y="353.0" type="curve"/>
    </contour>
    <contour>
      <point x="488.5" y="1090.0" type="curve" smooth="yes"/>
      <point x="450.5" y="1090.0"/>
      <point x="426.5" y="1064.0"/>
      <point x="426.5" y="1028.0" type="curve" smooth="yes"/>
      <point x="426.5" y="990.0"/>
      <point x="452.5" y="964.0"/>
      <point x="488.5" y="964.0" type="curve" smooth="yes"/>
      <point x="524.5" y="964.0"/>
      <point x="550.5" y="990.0"/>
      <point x="550.5" y="1028.0" type="curve" smooth="yes"/>
      <point x="550.5" y="1064.0"/>
      <point x="524.5" y="1090.0"/>
    </contour>
  </outline>
</glyph>
<glyph name="Agrave" format="2">
  <advance width="1364.0"/>
  <unicode hex="00C0"/>
  <anchor x="683.0" y="1520.0" name="_top"/>
  <anchor x="683.0" y="0.0" name="bottom"/>
  <anchor x="1321.5" y="0.0" name="ogonek"/>
  <anchor x="683.0" y="1520.0" name="top"/>
  <outline>
    <contour>
      <point x="42.5" y="0.0" type="line"/>
      <point x="116.0" y="0.0" type="line"/>
      <point x="693.0" y="1440.0" type="line"/>
      <point x="669.0" y="1440.0" type="line"/>
      <point x="1246.0" y="0.0" type="line"/>
      <point x="1321.5" y="0.0" type="line"/>
      <point x="725.0" y="1480.0" type="line"/>
      <point x="639.0" y="1480.0" type="line"/>
    </contour>
    <contour>
      <point x="303.0" y="528.0" type="line"/>
      <point x="1061.0" y="528.0" type="line"/>
      <point x="1041.0" y="594.0" type="line"/>
      <point x="323.0" y="594.0" type="line"/>
    </contour>
    <contour>
      <point x="649.0" y="1616.0" type="line"/>
      <point x="717.0" y="1616.0" type="line"/>
      <point x="518.5" y="1888.0" type="line"/>
      <point x="436.0" y="1888.0" type="line"/>
    </contour>
  </outline>
</glyph>
<glyph name="Atilde" format="2">
  <advance width="1364.0"/>
  <unicode hex="00C3"/>
  <anchor x="683.0" y="1520.0" name="_top"/>
  <anchor x="683.0" y="0.0" name="bottom"/>
  <anchor x="1321.5" y="0.0" name="ogonek"/>
  <anchor x="683.0" y="1520.0" name="top"/>
  <outline>
    <contour>
      <point x="42.5" y="0.0" type="line"/>
      <point x="116.0" y="0.0" type="line"/>
      <point x="693.0" y="1440.0" type="line"/>
      <point x="669.0" y="1440.0" type="line"/>
      <point x="1246.0" y="0.0" type="line"/>
      <point x="1321.5" y="0.0" type="line"/>
      <point x="725.0" y="1480.0" type="line"/>
      <point x="639.0" y="1480.0" type="line"/>
    </contour>
    <contour>
      <point x="303.0" y="528.0" type="line"/>
      <point x="1061.0" y="528.0" type="line"/>
      <point x="1041.0" y="594.0" type="line"/>
      <point x="323.0" y="594.0" type="line"/>
    </contour>
    <contour>
      <point x="835.0" y="1697.5" type="curve" smooth="yes"/>
      <point x="909.5" y="1697.5"/>
      <point x="963.0" y="1718.5"/>
      <point x="1000.5" y="1758.0" type="curve"/>
      <point x="1000.5" y="1825.5" type="line"/>
      <point x="955.0" y="1777.5"/>
      <point x="906.0" y="1755.0"/>
      <point x="835.0" y="1755.0" type="curve" smooth="yes"/>
      <point x="738.0" y="1755.0"/>
      <point x="649.0" y="1830.0"/>
      <point x="531.0" y="1830.0" type="curve" smooth="yes"/>
      <point x="456.5" y="1830.0"/>
      <point x="403.0" y="1809.0"/>
      <point x="365.5" y="1769.5" type="curve"/>
      <point x="365.5" y="1702.0" type="line"/>
      <point x="411.0" y="1750.0"/>
      <point x="460.0" y="1772.5"/>
      <point x="531.0" y="1772.5" type="curve" smooth="yes"/>
      <point x="628.0" y="1772.5"/>
      <point x="717.0" y="1697.5"/>
    </contour>
  </outline>
</glyph>
<glyph name="Adieresis" format="2">
  <advance width="1364.0"/>
  <unicode hex="00C4"/>
  <anchor x="683.0" y="1520.0" name="_top"/>
  <anchor x="683.0" y="0.0" name="bottom"/>
  <anchor x="1321.5" y="0.0" name="ogonek"/>
  <anchor x="683.0" y="1520.0" name="top"/>
  <outline>
    <contour>
      <point x="42.5" y="0.0" type="line"/>
      <point x="116.0" y="0.0" type="line"/>
      <point x="693.0" y="1440.0" type="line"/>
      <point x="669.0" y="1440.0" type="line"/>
      <point x="1246.0" y="0.0" type="line"/>
      <point x="1321.5" y="0.0" type="line"/>
      <point x="725.0" y="1480.0" type="line"/>
      <point x="639.0" y="1480.0" type="line"/>
    </contour>
    <contour>
      <point x="303.0" y="528.0" type="line"/>
      <point x="1061.0" y="528.0" type="line"/>
      <point x="1041.0" y="594.0" type="line"/>
      <point x="323.0" y="594.0" type="line"/>
    </contour>
    <contour>
      <point x="923.0" y="1690.0" type="curve" smooth="yes"/>
      <point x="959.0" y="1690.0"/>
      <point x="985.0" y="1714.0"/>
      <point x="985.0" y="1752.0" type="curve" smooth="yes"/>
      <point x="985.0" y="1790.0"/>
      <point x="959.0" y="1816.0"/>
      <point x="923.0" y="1816.0" type="curve" smooth="yes"/>
      <point x="887.0" y="1816.0"/>
      <point x="861.0" y="1790.0"/>
      <point x="861.0" y="1752.0" type="curve" smooth="yes"/>
      <point x="861.0" y="1714.0"/>
      <point x="887.0" y="1690.0"/>
    </contour>
    <contour>
      <point x="443.0" y="1690.0" type="curve" smooth="yes"/>
      <point x="479.0" y="1690.0"/>
      <point x="505.0" y="1714.0"/>
      <point x="505.0" y="1752.0" type="curve" smooth="yes"/>
      <point x="505.0" y="1790.0"/>
      <point x="479.0" y="1816.0"/>
      <point x="443.0" y="1816.0" type="curve" smooth="yes"/>
      <point x="407.0" y="1816.0"/>
      <point x="381.0" y="1790.0"/>
      <point x="381.0" y="1752.0" type="curve" smooth="yes"/>
      <point x="381.0" y="1714.0"/>
      <point x="407.0" y="1690.0"/>
    </contour>
  </outline>
</glyph>
<glyph name="Aring" format="2">
  <advance width="1364.0"/>
  <unicode hex="00C5"/>
  <anchor x="685.5" y="1340.0" name="_top"/>
  <anchor x="683.0" y="0.0" name="bottom"/>
  <anchor x="1321.5" y="0.0" name="ogonek"/>
  <anchor x="683.0" y="1520.0" name="top"/>
  <outline>
    <contour>
      <point x="42.5" y="0.0" type="line"/>
      <point x="116.0" y="0.0" type="line"/>
      <point x="693.0" y="1440.0" type="line"/>
      <point x="669.0" y="1440.0" type="line"/>
      <point x="1246.0" y="0.0" type="line"/>
      <point x="1321.5" y="0.0" type="line"/>
      <point x="725.0" y="1480.0" type="line"/>
      <point x="639.0" y="1480.0" type="line"/>
    </contour>
    <contour>
      <point x="303.0" y="528.0" type="line"/>
      <point x="1061.0" y="528.0" type="line"/>
      <point x="1041.0" y="594.0" type="line"/>
      <point x="323.0" y="594.0" type="line"/>
    </contour>
    <contour>
      <point x="685.5" y="1431.5" type="curve" smooth="yes"/>
      <point x="791.5" y="1431.5"/>
      <point x="869.5" y="1509.5"/>
      <point x="869.5" y="1615.5" type="curve" smooth="yes"/>
      <point x="869.5" y="1721.5"/>
      <point x="791.5" y="1799.5"/>
      <point x="685.5" y="1799.5" type="curve" smooth="yes"/>
      <point x="579.5" y="1799.5"/>
      <point x="501.5" y="1721.5"/>
      <point x="501.5" y="1615.5" type="curve" smooth="yes"/>
      <point x="501.5" y="1509.5"/>
      <point x="579.5" y="1431.5"/>
    </contour>
    <contour>
      <point x="685.5" y="1483.5" type="curve" smooth="yes"/>
      <point x="609.5" y="1483.5"/>
      <point x="555.5" y="1533.5"/>
      <point x="555.5" y="1615.5" type="curve" smooth="yes"/>
      <point x="555.5" y="1697.5"/>
      <point x="609.5" y="1747.5"/>
      <point x="685.5" y="1747.5" type="curve" smooth="yes"/>
      <point x="761.5" y="1747.5"/>
      <point x="815.5" y="1697.5"/>
      <point x="815.5" y="1615.5" type="curve" smooth="yes"/>
      <point x="815.5" y="1533.5"/>
      <point x="761.5" y="1483.5"/>
    </contour>
  </outline>
</glyph>
<glyph name="Ccedilla" format="2">
  <advance width="1186.5"/>
  <unicode hex="00C7"/>
  <anchor x="734.5" y="0.0" name="_bottom"/>
  <anchor x="734.5" y="0.0" name="bottom"/>
  <anchor x="717.0" y="1520.0" name="top"/>
  <outline>
    <contour>
      <point x="776.5" y="-18.0" type="curve" smooth="yes"/>
      <point x="912.5" y="-18.0"/>
      <point x="1029.0" y="2.5"/>
      <point x="1141.5" y="44.0" type="curve"/>
      <point x="1141.5" y="112.0" type="line"/>
      <point x="1005.0" y="64.0"/>
      <point x="900.5" y="48.0"/>
      <point x="777.5" y="48.0" type="curve" smooth="yes"/>
      <point x="431.5" y="48.0"/>
      <point x="200.0" y="213.5"/>
      <point x="200.0" y="742.0" type="curve" smooth="yes"/>
      <point x="200.0" y="1246.0"/>
      <point x="420.5" y="1432.0"/>
      <point x="790.0" y="1432.0" type="curve" smooth="yes"/>
      <point x="910.0" y="1432.0"/>
      <point x="1026.5" y="1415.0"/>
      <point x="1141.5" y="1379.5" type="curve"/>
      <point x="1141.5" y="1447.5" type="line"/>
      <point x="1028.5" y="1481.0"/>
      <point x="921.5" y="1498.0"/>
      <point x="793.5" y="1498.0" type="curve" smooth="yes"/>
      <point x="387.0" y="1498.0"/>
      <point x="128.0" y="1280.0"/>
      <point x="128.0" y="738.0" type="curve" smooth="yes"/>
      <point x="128.0" y="173.0"/>
      <point x="399.0" y="-18.0"/>
    </contour>
    <contour>
      <point x="746.5" y="-400.0" type="curve" smooth="yes"/>
      <point x="866.5" y="-400.0"/>
      <point x="945.0" y="-353.0"/>
      <point x="945.0" y="-256.0" type="curve" smooth="yes"/>
      <point x="945.0" y="-159.0"/>
      <point x="866.5" y="-112.0"/>
      <point x="751.0" y="-112.0" type="curve"/>
      <point x="762.5" y="-142.0" type="line"/>
      <point x="762.5" y="20.0" type="line"/>
      <point x="706.5" y="20.0" type="line"/>
      <point x="706.5" y="-164.0" type="line"/>
      <point x="744.5" y="-164.0" type="line" smooth="yes"/>
      <point x="836.5" y="-164.0"/>
      <point x="889.0" y="-192.0"/>
      <point x="889.0" y="-256.0" type="curve" smooth="yes"/>
      <point x="889.0" y="-320.0"/>
      <point x="836.5" y="-348.0"/>
      <point x="746.5" y="-348.0" type="curve" smooth="yes"/>
      <point x="685.5" y="-348.0"/>
      <point x="628.0" y="-336.5"/>
      <point x="552.0" y="-304.5" type="curve"/>
      <point x="552.0" y="-360.5" type="line"/>
      <point x="609.0" y="-386.5"/>
      <point x="683.0" y="-400.0"/>
    </contour>
  </outline>
</glyph>
<glyph name="Iacute" format="2">
  <advance width="474.0"/>
  <unicode hex="00CD"/>
  <anchor x="237.0" y="1520.0" name="_top"/>
  <anchor x="237.0" y="0.0" name="bottom"/>
  <anchor x="271.0" y="0.0" name="ogonek"/>
  <anchor x="237.0" y="1520.0" name="top"/>
  <outline>
    <contour>
      <point x="203.0" y="0.0" type="line"/>
      <point x="271.0" y="0.0" type="line"/>
      <point x="271.0" y="1480.0" type="line"/>
      <point x="203.0" y="1480.0" type="line"/>
    </contour>
    <contour>
      <point x="203.0" y="1616.0" type="line"/>
      <point x="271.0" y="1616.0" type="line"/>
      <point x="484.0" y="1888.0" type="line"/>
      <point x="401.5" y="1888.0" type="line"/>
    </contour>
  </outline>
</glyph>
<glyph name="Icircumflex" format="2">
  <advance width="474.0"/>
  <unicode hex="00CE"/>
  <anchor x="237.0" y="1520.0" name="_top"/>
  <anchor x="237.0" y="0.0" name="bottom"/>
  <anchor x="271.0" y="0.0" name="ogonek"/>
  <anchor x="237.0" y="1520.0" name="top"/>
  <outline>
    <contour>
      <point x="203.0" y="0.0" type="line"/>
      <point x="271.0" y="0.0" type="line"/>
      <point x="271.0" y="1480.0" type="line"/>
      <point x="203.0" y="1480.0" type="line"/>
    </contour>
    <contour>
      <point x="-63.0" y="1616.0" type="line"/>
      <point x="23.5" y="1616.0" type="line"/>
      <point x="252.5" y="1859.5" type="line"/>
      <point x="221.5" y="1859.5" type="line"/>
      <point x="450.5" y="1616.0" type="line"/>
      <point x="537.0" y="1616.0" type="line"/>
      <point x="275.0" y="1888.0" type="line"/>
      <point x="199.0" y="1888.0" type="line"/>
    </contour>
  </outline>
</glyph>
<glyph name="Ntilde" format="2">
  <advance width="1516.5"/>
  <unicode hex="00D1"/>
  <anchor x="759.0" y="1520.0" name="_top"/>
  <anchor x="759.0" y="0.0" name="bottom"/>
  <anchor x="759.0" y="1520.0" name="top"/>
  <outline>
    <contour>
      <point x="203.0" y="0.0" type="line"/>
      <point x="269.0" y="0.0" type="line"/>
      <point x="269.0" y="1420.0" type="line"/>
      <point x="238.5" y="1420.0" type="line"/>
      <point x="1239.0" y="0.0" type="line"/>
      <point x="1313.5" y="0.0" type="line"/>
      <point x="1313.5" y="1480.0" type="line"/>
      <point x="1247.5" y="1480.0" type="line"/>
      <point x="1247.5" y="60.0" type="line"/>
      <point x="1278.0" y="60.0" type="line"/>
      <point x="277.5" y="1480.0" type="line"/>
      <point x="203.0" y="1480.0" type="line"/>
    </contour>
    <contour>
      <point x="911.0" y="1697.5" type="curve" smooth="yes"/>
      <point x="985.5" y="1697.5"/>
      <point x="1039.0" y="1718.5"/>
      <point x="1076.5" y="1758.0" type="curve"/>
      <point x="1076.5" y="1825.5" type="line"/>
      <point x="1031.0" y="1777.5"/>
      <point x="982.0" y="1755.0"/>
      <point x="911.0" y="1755.0" type="curve" smooth="yes"/>
      <point x="814.0" y="1755.0"/>
      <point x="725.0" y="1830.0"/>
      <point x="607.0" y="1830.0" type="curve" smooth="yes"/>
      <point x="532.5" y="1830.0"/>
      <point x="479.0" y="1809.0"/>
      <point x="441.5" y="1769.5" type="curve"/>
      <point x="441.5" y="1702.0" type="line"/>
      <point x="487.0" y="1750.0"/>
      <point x="536.0" y="1772.5"/>
      <point x="607.0" y="1772.5" type="curve" smooth="yes"/>
      <point x="704.0" y="1772.5"/>
      <point x="793.0" y="1697.5"/>
    </contour>
  </outline>
</glyph>
<glyph name="Ograve" format="2">
  <advance width="1470.0"/>
  <unicode hex="00D2"/>
  <anchor x="735.0" y="1520.0" name="_top"/>
  <anchor x="735.0" y="0.0" name="bottom"/>
  <anchor x="735.0" y="740.0" name="center"/>
  <anchor x="905.0" y="0.0" name="ogonek"/>
  <anchor x="735.0" y="1520.0" name="top"/>
  <anchor x="47.0" y="1480.0" name="topleft"/>
  <anchor x="903.5" y="1480.0" name="topright"/>
  <outline>
    <contour>
      <point x="735.0" y="-18.0" type="curve" smooth="yes"/>
      <point x="1091.0" y="-18.0"/>
      <point x="1342.0" y="201.5"/>
      <point x="1342.0" y="740.0" type="curve" smooth="yes"/>
      <point x="1342.0" y="1278.5"/>
      <point x="1095.5" y="1498.0"/>
      <point x="735.0" y="1498.0" type="curve" smooth="yes"/>
      <point x="379.0" y="1498.0"/>
      <point x="128.0" y="1278.5"/>
      <point x="128.0" y="740.0" type="curve" smooth="yes"/>
      <point x="128.0" y="201.5"/>
      <point x="374.5" y="-18.0"/>
    </contour>
    <contour>
      <point x="735.0" y="49.5" type="curve" smooth="yes"/>
      <point x="418.0" y="49.5"/>
      <point x="200.0" y="233.0"/>
      <point x="200.0" y="744.0" type="curve" smooth="yes"/>
      <point x="200.0" y="1247.0"/>
      <point x="418.0" y="1430.5"/>
      <point x="735.0" y="1430.5" type="curve" smooth="yes"/>
      <point x="1052.0" y="1430.5"/>
      <point x="1270.0" y="1247.0"/>
      <point x="1270.0" y="736.0" type="curve" smooth="yes"/>
      <point x="1270.0" y="233.0"/>
      <point x="1052.0" y="49.5"/>
    </contour>
    <contour>
      <point x="701.0" y="1616.0" type="line"/>
      <point x="769.0" y="1616.0" type="line"/>
      <point x="570.5" y="1888.0" type="line"/>
      <point x="488.0" y="1888.0" type="line"/>
    </contour>
  </outline>
</glyph>
<glyph name="Otilde" format="2">
  <advance width="1470.0"/>
  <unicode hex="00D5"/>
  <anchor x="735.0" y="1520.0" name="_top"/>
  <anchor x="735.0" y="0.0" name="bottom"/>
  <anchor x="735.0" y="740.0" name="center"/>
  <anchor x="905.0" y="0.0" name="ogonek"/>
  <anchor x="735.0" y="1520.0" name="top"/>
  <anchor x="47.0" y="1480.0" name="topleft"/>
  <anchor x="903.5" y="1480.0" name="topright"/>
  <outline>
    <contour>
      <point x="735.0" y="-18.0" type="curve" smooth="yes"/>
      <point x="1091.0" y="-18.0"/>
      <point x="1342.0" y="201.5"/>
      <point x="1342.0" y="740.0" type="curve" smooth="yes"/>
      <point x="1342.0" y="1278.5"/>
      <point x="1095.5" y="1498.0"/>
      <point x="735.0" y="1498.0" type="curve" smooth="yes"/>
      <point x="379.0" y="1498.0"/>
      <point x="128.0" y="1278.5"/>
      <point x="128.0" y="740.0" type="curve" smooth="yes"/>
      <point x="128.0" y="201.5"/>
      <point x="374.5" y="-18.0"/>
    </contour>
    <contour>
      <point x="735.0" y="49.5" type="curve" smooth="yes"/>
      <point x="418.0" y="49.5"/>
      <point x="200.0" y="233.0"/>
      <point x="200.0" y="744.0" type="curve" smooth="yes"/>
      <point x="200.0" y="1247.0"/>
      <point x="418.0" y="1430.5"/>
      <point x="735.0" y="1430.5" type="curve" smooth="yes"/>
      <point x="1052.0" y="1430.5"/>
      <point x="1270.0" y="1247.0"/>
      <point x="1270.0" y="736.0" type="curve" smooth="yes"/>
      <point x="1270.0" y="233.0"/>
      <point x="1052.0" y="49.5"/>
    </contour>
    <contour>
      <point x="887.0" y="1697.5" type="curve" smooth="yes"/>
      <point x="961.5" y="1697.5"/>
      <point x="1015.0" y="1718.5"/>
      <point x="1052.5" y="1758.0" type="curve"/>
      <point x="1052.5" y="1825.5" type="line"/>
      <point x="1007.0" y="1777.5"/>
      <point x="958.0" y="1755.0"/>
      <point x="887.0" y="1755.0" type="curve" smooth="yes"/>
      <point x="790.0" y="1755.0"/>
      <point x="701.0" y="1830.0"/>
      <point x="583.0" y="1830.0" type="curve" smooth="yes"/>
      <point x="508.5" y="1830.0"/>
      <point x="455.0" y="1809.0"/>
      <point x="417.5" y="1769.5" type="curve"/>
      <point x="417.5" y="1702.0" type="line"/>
      <point x="463.0" y="1750.0"/>
      <point x="512.0" y="1772.5"/>
      <point x="583.0" y="1772.5" type="curve" smooth="yes"/>
      <point x="680.0" y="1772.5"/>
      <point x="769.0" y="1697.5"/>
    </contour>
  </outline>
</glyph>
<glyph name="Odieresis" format="2">
  <advance width="1470.0"/>
  <unicode hex="00D6"/>
  <anchor x="735.0" y="1520.0" name="_top"/>
  <anchor x="735.0" y="0.0" name="bottom"/>
  <anchor x="735.0" y="740.0" name="center"/>
  <anchor x="905.0" y="0.0" name="ogonek"/>
  <anchor x="735.0" y="1520.0" name="top"/>
  <anchor x="47.0" y="1480.0" name="topleft"/>
  <anchor x="903.5" y="1480.0" name="topright"/>
  <outline>
    <contour>
      <point x="735.0" y="-18.0" type="curve" smooth="yes"/>
      <point x="1091.0" y="-18.0"/>
      <point x="1342.0" y="201.5"/>
      <point x="1342.0" y="740.0" type="curve" smooth="yes"/>
      <point x="1342.0" y="1278.5"/>
      <point x="1095.5" y="1498.0"/>
      <point x="735.0" y="1498.0" type="curve" smooth="yes"/>
      <point x="379.0" y="1498.0"/>
      <point x="128.0" y="1278.5"/>
      <point x="128.0" y="740.0" type="curve" smooth="yes"/>
      <point x="128.0" y="201.5"/>
      <point x="374.5" y="-18.0"/>
    </contour>
    <contour>
      <point x="735.0" y="49.5" type="curve" smooth="yes"/>
      <point x="418.0" y="49.5"/>
      <point x="200.0" y="233.0"/>
      <point x="200.0" y="744.0" type="curve" smooth="yes"/>
      <point x="200.0" y="1247.0"/>
      <point x="418.0" y="1430.5"/>
      <point x="735.0" y="1430.5" type="curve" smooth="yes"/>
      <point x="1052.0" y="1430.5"/>
      <point x="1270.0" y="1247.0"/>
      <point x="1270.0" y="736.0" type="curve" smooth="yes"/>
      <point x="1270.0" y="233.0"/>
      <point x="1052.0" y="49.5"/>
    </contour>
    <contour>
      <point x="975.0" y="1690.0" type="curve" smooth="yes"/>
      <point x="1011.0" y="1690.0"/>
      <point x="1037.0" y="1714.0"/>
      <point x="1037.0" y="1752.0" type="curve" smooth="yes"/>
      <point x="1037.0" y="1790.0"/>
      <point x="1011.0" y="1816.0"/>
      <point x="975.0" y="1816.0" type="curve" smooth="yes"/>
      <point x="939.0" y="1816.0"/>
      <point x="913.0" y="1790.0"/>
      <point x="913.0" y="1752.0" type="curve" smooth="yes"/>
      <point x="913.0" y="1714.0"/>
      <point x="939.0" y="1690.0"/>
    </contour>
    <contour>
      <point x="495.0" y="1690.0" type="curve" smooth="yes"/>
      <point x="531.0" y="1690.0"/>
      <point x="557.0" y="1714.0"/>
      <point x="557.0" y="1752.0" type="curve" smooth="yes"/>
      <point x="557.0" y="1790.0"/>
      <point x="531.0" y="1816.0"/>
      <point x="495.0" y="1816.0" type="curve" smooth="yes"/>
      <point x="459.0" y="1816.0"/>
      <point x="433.0" y="1790.0"/>
      <point x="433.0" y="1752.0" type="curve" smooth="yes"/>
      <point x="433.0" y="1714.0"/>
      <point x="459.0" y="1690.0"/>
    </contour>
  </outline>
</glyph>
<glyph name="multiply" format="2">
  <advance width="990.0"/>
  <unicode hex="00D7"/>
  <outline>
    <contour>
      <point x="187.0" y="408.0" type="line"/>
      <point x="495.0" y="716.0" type="line"/>
      <point x="803.0" y="408.0" type="line"/>
      <point x="847.0" y="452.0" type="line"/>
      <point x="539.0" y="760.0" type="line"/>
      <point x="847.0" y="1068.0" type="line"/>
      <point x="803.0" y="1112.0" type="line"/>
      <point x="495.0" y="804.0" type="line"/>
      <point x="187.0" y="1112.0" type="line"/>
      <point x="143.0" y="1068.0" type="line"/>
      <point x="451.0" y="760.0" type="line"/>
      <point x="143.0" y="452.0" type="line"/>
    </contour>
  </outline>
</glyph>
<glyph name="Udieresis" format="2">
  <advance width="1459.0"/>
  <unicode hex="00DC"/>
  <anchor x="730.5" y="1520.0" name="_top"/>
  <anchor x="730.5" y="0.0" name="bottom"/>
  <anchor x="874.0" y="3.0" name="ogonek"/>
  <anchor x="730.5" y="1520.0" name="top"/>
  <anchor x="1198.0" y="1480.0" name="topright"/>
  <outline>
    <contour>
      <point x="730.5" y="-18.0" type="curve" smooth="yes"/>
      <point x="1095.0" y="-18.0"/>
      <point x="1264.0" y="152.0"/>
      <point x="1264.0" y="547.5" type="curve" smooth="yes"/>
      <point x="1264.0" y="1480.0" type="line"/>
      <point x="1198.0" y="1480.0" type="line"/>
      <point x="1198.0" y="537.5" type="line" smooth="yes"/>
      <point x="1198.0" y="196.0"/>
      <point x="1053.0" y="48.0"/>
      <point x="730.5" y="48.0" type="curve" smooth="yes"/>
      <point x="408.0" y="48.0"/>
      <point x="263.0" y="196.0"/>
      <point x="263.0" y="537.5" type="curve" smooth="yes"/>
      <point x="263.0" y="1480.0" type="line"/>
      <point x="195.0" y="1480.0" type="line"/>
      <point x="195.0" y="547.5" type="line" smooth="yes"/>
      <point x="195.0" y="152.0"/>
      <point x="366.0" y="-18.0"/>
    </contour>
    <contour>
      <point x="970.5" y="1690.0" type="curve" smooth="yes"/>
      <point x="1006.5" y="1690.0"/>
      <point x="1032.5" y="1714.0"/>
      <point x="1032.5" y="1752.0" type="curve" smooth="yes"/>
      <point x="1032.5" y="1790.0"/>
      <point x="1006.5" y="1816.0"/>
      <point x="970.5" y="1816.0" type="curve" smooth="yes"/>
      <point x="934.5" y="1816.0"/>
      <point x="908.5" y="1790.0"/>
      <point x="908.5" y="1752.0" type="curve" smooth="yes"/>
      <point x="908.5" y="1714.0"/>
      <point x="934.5" y="1690.0"/>
    </contour>
    <contour>
      <point x="490.5" y="1690.0" type="curve" smooth="yes"/>
      <point x="526.5" y="1690.0"/>
      <point x="552.5" y="1714.0"/>
      <point x="552.5" y="1752.0" type="curve" smooth="yes"/>
      <point x="552.5" y="1790.0"/>
      <point x="526.5" y="1816.0"/>
      <point x="490.5" y="1816.0" type="curve" smooth="yes"/>
      <point x="454.5" y="1816.0"/>
      <point x="428.5" y="1790.0"/>
      <point x="428.5" y="1752.0" type="curve" smooth="yes"/>
      <point x="428.5" y="1714.0"/>
      <point x="454.5" y="1690.0"/>
    </contour>
  </outline>
</glyph>
<glyph name="Thorn" format="2">
  <advance width="1259.0"/>
  <unicode hex="00DE"/>
  <outline>
    <contour>
      <point x="203.0" y="0.0" type="line"/>
      <point x="271.0" y="0.0" type="line"/>
      <point x="271.0" y="284.5" type="line"/>
      <point x="360.5" y="275.5"/>
      <point x="431.5" y="272.0"/>
      <point x="519.0" y="272.0" type="curve" smooth="yes"/>
      <point x="961.0" y="272.0"/>
      <point x="1146.5" y="447.5"/>
      <point x="1146.5" y="762.5" type="curve" smooth="yes"/>
      <point x="1146.5" y="1098.5"/>
      <point x="943.0" y="1248.0"/>
      <point x="570.0" y="1248.0" type="curve" smooth="yes"/>
      <point x="443.0" y="1248.0"/>
      <point x="350.0" y="1237.0"/>
      <point x="271.0" y="1223.0" type="curve"/>
      <point x="271.0" y="1481.5" type="line"/>
      <point x="203.0" y="1481.5" type="line"/>
    </contour>
    <contour>
      <point x="520.5" y="338.0" type="curve" smooth="yes"/>
      <point x="427.0" y="338.0"/>
      <point x="350.5" y="343.0"/>
      <point x="271.0" y="354.0" type="curve"/>
      <point x="271.0" y="1157.0" type="line"/>
      <point x="360.5" y="1173.0"/>
      <point x="455.0" y="1182.0"/>
      <point x="570.0" y="1182.0" type="curve" smooth="yes"/>
      <point x="906.0" y="1182.0"/>
      <point x="1074.5" y="1054.0"/>
      <point x="1074.5" y="760.0" type="curve" smooth="yes"/>
      <point x="1074.5" y="481.0"/>
      <point x="917.0" y="338.0"/>
    </contour>
  </outline>
</glyph>
<glyph name="germandbls" format="2">
  <advance width="1368.0"/>
  <unicode hex="00DF"/>
  <outline>
    <contour>
      <point x="875.0" y="-18.0" type="curve" smooth="yes"/>
      <point x="1150.0" y="-18.0"/>
      <point x="1280.0" y="98.0"/>
      <point x="1280.0" y="281.0" type="curve" smooth="yes"/>
      <point x="1280.0" y="430.0"/>
      <point x="1205.0" y="517.5"/>
      <point x="993.5" y="561.0" type="curve" smooth="yes"/>
      <point x="846.0" y="590.0" type="line" smooth="yes"/>
      <point x="687.0" y="622.5"/>
      <point x="635.5" y="698.5"/>
      <point x="635.5" y="804.0" type="curve" smooth="yes"/>
      <point x="635.5" y="933.5"/>
      <point x="724.5" y="1030.0"/>
      <point x="965.5" y="1030.0" type="curve" smooth="yes"/>
      <point x="1038.5" y="1030.0"/>
      <point x="1082.0" y="1022.5"/>
      <point x="1118.0" y="1015.5" type="curve"/>
      <point x="1132.0" y="1066.5"/>
      <point x="1143.0" y="1150.0"/>
      <point x="1143.0" y="1208.5" type="curve" smooth="yes"/>
      <point x="1143.0" y="1511.5"/>
      <point x="956.0" y="1636.0"/>
      <point x="712.0" y="1636.0" type="curve" smooth="yes"/>
      <point x="418.5" y="1636.0"/>
      <point x="248.5" y="1479.5"/>
      <point x="248.5" y="1142.0" type="curve" smooth="yes"/>
      <point x="248.5" y="0.0" type="line"/>
      <point x="316.5" y="0.0" type="line"/>
      <point x="316.5" y="1136.0" type="line" smooth="yes"/>
      <point x="316.5" y="1448.5"/>
      <point x="461.0" y="1570.0"/>
      <point x="711.0" y="1570.0" type="curve" smooth="yes"/>
      <point x="920.5" y="1570.0"/>
      <point x="1079.0" y="1477.5"/>
      <point x="1077.5" y="1205.0" type="curve" smooth="yes"/>
      <point x="1077.5" y="1164.5"/>
      <point x="1071.5" y="1109.0"/>
      <point x="1060.5" y="1064.5" type="curve"/>
      <point x="1102.0" y="1084.0" type="line"/>
      <point x="1054.0" y="1090.5"/>
      <point x="1011.0" y="1094.0"/>
      <point x="965.5" y="1094.0" type="curve" smooth="yes"/>
      <point x="686.0" y="1094.0"/>
      <point x="564.0" y="968.5"/>
      <point x="564.0" y="798.5" type="curve" smooth="yes"/>
      <point x="564.0" y="654.5"/>
      <point x="640.5" y="559.0"/>
      <point x="841.5" y="518.0" type="curve" smooth="yes"/>
      <point x="989.0" y="489.0" type="line" smooth="yes"/>
      <point x="1152.0" y="456.5"/>
      <point x="1208.5" y="395.5"/>
      <point x="1208.5" y="274.0" type="curve" smooth="yes"/>
      <point x="1208.5" y="131.0"/>
      <point x="1112.0" y="48.0"/>
      <point x="878.5" y="48.0" type="curve" smooth="yes"/>
      <point x="780.0" y="48.0"/>
      <point x="694.0" y="58.0"/>
      <point x="579.0" y="92.0" type="curve"/>
      <point x="579.0" y="24.0" type="line"/>
      <point x="673.0" y="-6.0"/>
      <point x="765.5" y="-18.0"/>
    </contour>
    <contour>
      <point x="18.5" y="1014.0" type="line"/>
      <point x="298.0" y="1014.0" type="line"/>
      <point x="298.0" y="1080.0" type="line"/>
      <point x="18.5" y="1080.0" type="line"/>
    </contour>
  </outline>
</glyph>
<glyph name="igrave" format="2">
  <advance width="434.0"/>
  <unicode hex="00EC"/>
  <anchor x="217.0" y="1200.0" name="_top"/>
  <anchor x="217.0" y="0.0" name="bottom"/>
  <anchor x="251.0" y="0.0" name="ogonek"/>
  <anchor x="217.0" y="1200.0" name="top"/>
  <outline>
    <contour>
      <point x="183.0" y="0.0" type="line"/>
      <point x="251.0" y="0.0" type="line"/>
      <point x="251.0" y="1080.0" type="line"/>
      <point x="183.0" y="1080.0" type="line"/>
    </contour>
    <contour>
      <point x="183.0" y="1264.0" type="line"/>
      <point x="251.0" y="1264.0" type="line"/>
      <point x="13.0" y="1616.0" type="line"/>
      <point x="-68.0" y="1616.0" type="line"/>
    </contour>
  </outline>
</glyph>
<glyph name="icircumflex" format="2">
  <advance width="434.0"/>
  <unicode hex="00EE"/>
  <anchor x="217.0" y="1200.0" name="_top"/>
  <anchor x="217.0" y="0.0" name="bottom"/>
  <anchor x="251.0" y="0.0" name="ogonek"/>
  <anchor x="217.0" y="1200.0" name="top"/>
  <outline>
    <contour>
      <point x="183.0" y="0.0" type="line"/>
      <point x="251.0" y="0.0" type="line"/>
      <point x="251.0" y="1080.0" type="line"/>
      <point x="183.0" y="1080.0" type="line"/>
    </contour>
    <contour>
      <point x="-60.0" y="1264.0" type="line"/>
      <point x="14.5" y="1264.0" type="line"/>
      <point x="232.5" y="1591.5" type="line"/>
      <point x="201.5" y="1591.5" type="line"/>
      <point x="419.5" y="1264.0" type="line"/>
      <point x="494.0" y="1264.0" type="line"/>
      <point x="255.0" y="1616.0" type="line"/>
      <point x="179.0" y="1616.0" type="line"/>
    </contour>
  </outline>
</glyph>
<glyph name="idieresis" format="2">
  <advance width="434.0"/>
  <unicode hex="00EF"/>
  <anchor x="217.0" y="1200.0" name="_top"/>
  <anchor x="217.0" y="0.0" name="bottom"/>
  <anchor x="251.0" y="0.0" name="ogonek"/>
  <anchor x="217.0" y="1200.0" name="top"/>
  <outline>
    <contour>
      <point x="183.0" y="0.0" type="line"/>
      <point x="251.0" y="0.0" type="line"/>
      <point x="251.0" y="1080.0" type="line"/>
      <point x="183.0" y="1080.0" type="line"/>
    </contour>
    <contour>
      <point x="437.0" y="1360.0" type="curve" smooth="yes"/>
      <point x="473.0" y="1360.0"/>
      <point x="499.0" y="1384.0"/>
      <point x="499.0" y="1422.0" type="curve" smooth="yes"/>
      <point x="499.0" y="1460.0"/>
      <point x="473.0" y="1486.0"/>
      <point x="437.0" y="1486.0" type="curve" smooth="yes"/>
      <point x="401.0" y="1486.0"/>
      <point x="375.0" y="1460.0"/>
      <point x="375.0" y="1422.0" type="curve" smooth="yes"/>
      <point x="375.0" y="1384.0"/>
      <point x="401.0" y="1360.0"/>
    </contour>
    <contour>
      <point x="-3.0" y="1360.0" type="curve" smooth="yes"/>
      <point x="33.0" y="1360.0"/>
      <point x="59.0" y="1384.0"/>
      <point x="59.0" y="1422.0" type="curve" smooth="yes"/>
      <point x="59.0" y="1460.0"/>
      <point x="33.0" y="1486.0"/>
      <point x="-3.0" y="1486.0" type="curve" smooth="yes"/>
      <point x="-39.0" y="1486.0"/>
      <point x="-65.0" y="1460.0"/>
      <point x="-65.0" y="1422.0" type="curve" smooth="yes"/>
      <point x="-65.0" y="1384.0"/>
      <point x="-39.0" y="1360.0"/>
    </contour>
  </outline>
</glyph>
<glyph name="eth" format="2">
  <advance width="1131.0"/>
  <unicode hex="00F0"/>
  <guideline x="839.5" y="857.0" angle="90.0"/>
  <outline>
    <contour>
      <point x="567.5" y="-18.0" type="curve" smooth="yes"/>
      <point x="831.5" y="-18.0"/>
      <point x="1011.0" y="161.0"/>
      <point x="1011.0" y="570.0" type="curve" smooth="yes"/>
      <point x="1011.0" y="980.0"/>
      <point x="774.0" y="1406.0"/>
      <point x="470.5" y="1616.0" type="curve"/>
      <point x="372.0" y="1616.0" type="line"/>
      <point x="660.0" y="1410.5"/>
      <point x="804.0" y="1177.5"/>
      <point x="885.0" y="928.5" type="curve"/>
      <point x="941.5" y="857.0" type="line"/>
      <point x="855.5" y="1041.5"/>
      <point x="719.5" y="1096.0"/>
      <point x="565.5" y="1096.0" type="curve" smooth="yes"/>
      <point x="299.5" y="1096.0"/>
      <point x="118.0" y="931.5"/>
      <point x="118.0" y="540.0" type="curve" smooth="yes"/>
      <point x="118.0" y="142.5"/>
      <point x="297.5" y="-18.0"/>
    </contour>
    <contour>
      <point x="567.5" y="48.0" type="curve" smooth="yes"/>
      <point x="337.5" y="48.0"/>
      <point x="190.0" y="178.0"/>
      <point x="190.0" y="542.5" type="curve" smooth="yes"/>
      <point x="190.0" y="902.0"/>
      <point x="337.5" y="1030.0"/>
      <point x="565.5" y="1030.0" type="curve" smooth="yes"/>
      <point x="793.5" y="1030.0"/>
      <point x="941.0" y="902.0"/>
      <point x="941.0" y="537.5" type="curve" smooth="yes"/>
      <point x="941.0" y="190.5"/>
      <point x="792.5" y="48.0"/>
    </contour>
    <contour>
      <point x="229.0" y="1242.0" type="line"/>
      <point x="989.5" y="1362.5" type="line"/>
      <point x="981.0" y="1420.5" type="line"/>
      <point x="220.5" y="1300.0" type="line"/>
    </contour>
  </outline>
</glyph>
<glyph name="ntilde" format="2">
  <advance width="1165.5"/>
  <unicode hex="00F1"/>
  <anchor x="591.5" y="1200.0" name="_top"/>
  <anchor x="14.5" y="1200.0" name="apostrophe"/>
  <anchor x="591.5" y="0.0" name="bottom"/>
  <anchor x="591.5" y="1200.0" name="top"/>
  <outline>
    <contour>
      <point x="183.0" y="0.0" type="line"/>
      <point x="251.0" y="0.0" type="line"/>
      <point x="251.0" y="854.5" type="line"/>
      <point x="358.0" y="984.5"/>
      <point x="514.0" y="1030.0"/>
      <point x="636.0" y="1030.0" type="curve" smooth="yes"/>
      <point x="817.0" y="1030.0"/>
      <point x="930.5" y="948.5"/>
      <point x="930.5" y="720.0" type="curve" smooth="yes"/>
      <point x="930.5" y="0.0" type="line"/>
      <point x="998.5" y="0.0" type="line"/>
      <point x="998.5" y="719.0" type="line" smooth="yes"/>
      <point x="998.5" y="994.5"/>
      <point x="852.5" y="1096.0"/>
      <point x="637.0" y="1096.0" type="curve" smooth="yes"/>
      <point x="495.0" y="1096.0"/>
      <point x="359.5" y="1044.0"/>
      <point x="257.0" y="948.5" type="curve"/>
      <point x="249.0" y="948.5" type="line"/>
      <point x="243.0" y="1080.0" type="line"/>
      <point x="183.0" y="1080.0" type="line"/>
    </contour>
    <contour>
      <point x="733.5" y="1380.0" type="curve" smooth="yes"/>
      <point x="800.0" y="1380.0"/>
      <point x="853.5" y="1401.0"/>
      <point x="891.0" y="1440.5" type="curve"/>
      <point x="891.0" y="1508.0" type="line"/>
      <point x="845.5" y="1460.0"/>
      <point x="796.5" y="1437.5"/>
      <point x="733.5" y="1437.5" type="curve" smooth="yes"/>
      <point x="646.5" y="1437.5"/>
      <point x="557.5" y="1512.5"/>
      <point x="449.5" y="1512.5" type="curve" smooth="yes"/>
      <point x="383.0" y="1512.5"/>
      <point x="329.5" y="1491.5"/>
      <point x="292.0" y="1452.0" type="curve"/>
      <point x="292.0" y="1384.5" type="line"/>
      <point x="337.5" y="1432.5"/>
      <point x="386.5" y="1455.0"/>
      <point x="449.5" y="1455.0" type="curve" smooth="yes"/>
      <point x="536.5" y="1455.0"/>
      <point x="625.5" y="1380.0"/>
    </contour>
  </outline>
</glyph>
<glyph name="otilde" format="2">
  <advance width="1131.0"/>
  <unicode hex="00F5"/>
  <anchor x="565.5" y="1200.0" name="_top"/>
  <anchor x="565.5" y="0.0" name="bottom"/>
  <anchor x="565.5" y="540.0" name="center"/>
  <anchor x="705.5" y="0.0" name="ogonek"/>
  <anchor x="565.5" y="1200.0" name="top"/>
  <anchor x="697.5" y="1080.0" name="topright"/>
  <outline>
    <contour>
      <point x="565.5" y="-18.0" type="curve" smooth="yes"/>
      <point x="831.5" y="-18.0"/>
      <point x="1013.0" y="148.5"/>
      <point x="1013.0" y="540.0" type="curve" smooth="yes"/>
      <point x="1013.0" y="937.5"/>
      <point x="833.5" y="1096.0"/>
      <point x="565.5" y="1096.0" type="curve" smooth="yes"/>
      <point x="299.5" y="1096.0"/>
      <point x="118.0" y="931.5"/>
      <point x="118.0" y="540.0" type="curve" smooth="yes"/>
      <point x="118.0" y="142.5"/>
      <point x="297.5" y="-18.0"/>
    </contour>
    <contour>
      <point x="565.5" y="48.0" type="curve" smooth="yes"/>
      <point x="337.5" y="48.0"/>
      <point x="190.0" y="178.0"/>
      <point x="190.0" y="542.5" type="curve" smooth="yes"/>
      <point x="190.0" y="902.0"/>
      <point x="337.5" y="1030.0"/>
      <point x="565.5" y="1030.0" type="curve" smooth="yes"/>
      <point x="793.5" y="1030.0"/>
      <point x="941.0" y="902.0"/>
      <point x="941.0" y="537.5" type="curve" smooth="yes"/>
      <point x="941.0" y="178.0"/>
      <point x="793.5" y="48.0"/>
    </contour>
    <contour>
      <point x="707.5" y="1380.0" type="curve" smooth="yes"/>
      <point x="774.0" y="1380.0"/>
      <point x="827.5" y="1401.0"/>
      <point x="865.0" y="1440.5" type="curve"/>
      <point x="865.0" y="1508.0" type="line"/>
      <point x="819.5" y="1460.0"/>
      <point x="770.5" y="1437.5"/>
      <point x="707.5" y="1437.5" type="curve" smooth="yes"/>
      <point x="620.5" y="1437.5"/>
      <point x="531.5" y="1512.5"/>
      <point x="423.5" y="1512.5" type="curve" smooth="yes"/>
      <point x="357.0" y="1512.5"/>
      <point x="303.5" y="1491.5"/>
      <point x="266.0" y="1452.0" type="curve"/>
      <point x="266.0" y="1384.5" type="line"/>
      <point x="311.5" y="1432.5"/>
      <point x="360.5" y="1455.0"/>
      <point x="423.5" y="1455.0" type="curve" smooth="yes"/>
      <point x="510.5" y="1455.0"/>
      <point x="599.5" y="1380.0"/>
    </contour>
  </outline>
</glyph>
<glyph name="odieresis" format="2">
  <advance width="1131.0"/>
  <unicode hex="00F6"/>
  <anchor x="565.5" y="1200.0" name="_top"/>
  <anchor x="565.5" y="0.0" name="bottom"/>
  <anchor x="565.5" y="540.0" name="center"/>
  <anchor x="705.5" y="0.0" name="ogonek"/>
  <anchor x="565.5" y="1200.0" name="top"/>
  <anchor x="697.5" y="1080.0" name="topright"/>
  <outline>
    <contour>
      <point x="565.5" y="-18.0" type="curve" smooth="yes"/>
      <point x="831.5" y="-18.0"/>
      <point x="1013.0" y="148.5"/>
      <point x="1013.0" y="540.0" type="curve" smooth="yes"/>
      <point x="1013.0" y="937.5"/>
      <point x="833.5" y="1096.0"/>
      <point x="565.5" y="1096.0" type="curve" smooth="yes"/>
      <point x="299.5" y="1096.0"/>
      <point x="118.0" y="931.5"/>
      <point x="118.0" y="540.0" type="curve" smooth="yes"/>
      <point x="118.0" y="142.5"/>
      <point x="297.5" y="-18.0"/>
    </contour>
    <contour>
      <point x="565.5" y="48.0" type="curve" smooth="yes"/>
      <point x="337.5" y="48.0"/>
      <point x="190.0" y="178.0"/>
      <point x="190.0" y="542.5" type="curve" smooth="yes"/>
      <point x="190.0" y="902.0"/>
      <point x="337.5" y="1030.0"/>
      <point x="565.5" y="1030.0" type="curve" smooth="yes"/>
      <point x="793.5" y="1030.0"/>
      <point x="941.0" y="902.0"/>
      <point x="941.0" y="537.5" type="curve" smooth="yes"/>
      <point x="941.0" y="178.0"/>
      <point x="793.5" y="48.0"/>
    </contour>
    <contour>
      <point x="785.5" y="1360.0" type="curve" smooth="yes"/>
      <point x="821.5" y="1360.0"/>
      <point x="847.5" y="1384.0"/>
      <point x="847.5" y="1422.0" type="curve" smooth="yes"/>
      <point x="847.5" y="1460.0"/>
      <point x="821.5" y="1486.0"/>
      <point x="785.5" y="1486.0" type="curve" smooth="yes"/>
      <point x="749.5" y="1486.0"/>
      <point x="723.5" y="1460.0"/>
      <point x="723.5" y="1422.0" type="curve" smooth="yes"/>
      <point x="723.5" y="1384.0"/>
      <point x="749.5" y="1360.0"/>
    </contour>
    <contour>
      <point x="345.5" y="1360.0" type="curve" smooth="yes"/>
      <point x="381.5" y="1360.0"/>
      <point x="407.5" y="1384.0"/>
      <point x="407.5" y="1422.0" type="curve" smooth="yes"/>
      <point x="407.5" y="1460.0"/>
      <point x="381.5" y="1486.0"/>
      <point x="345.5" y="1486.0" type="curve" smooth="yes"/>
      <point x="309.5" y="1486.0"/>
      <point x="283.5" y="1460.0"/>
      <point x="283.5" y="1422.0" type="curve" smooth="yes"/>
      <point x="283.5" y="1384.0"/>
      <point x="309.5" y="1360.0"/>
    </contour>
  </outline>
</glyph>
<glyph name="divide" format="2">
  <advance width="1085.0"/>
  <unicode hex="00F7"/>
  <outline>
    <contour>
      <point x="178.5" y="728.0" type="line"/>
      <point x="906.5" y="728.0" type="line"/>
      <point x="906.5" y="792.0" type="line"/>
      <point x="178.5" y="792.0" type="line"/>
    </contour>
    <contour>
      <point x="542.5" y="368.0" type="curve" smooth="yes"/>
      <point x="578.5" y="368.0"/>
      <point x="604.5" y="392.0"/>
      <point x="604.5" y="430.0" type="curve" smooth="yes"/>
      <point x="604.5" y="468.0"/>
      <point x="578.5" y="494.0"/>
      <point x="542.5" y="494.0" type="curve" smooth="yes"/>
      <point x="506.5" y="494.0"/>
      <point x="480.5" y="468.0"/>
      <point x="480.5" y="430.0" type="curve" smooth="yes"/>
      <point x="480.5" y="392.0"/>
      <point x="506.5" y="368.0"/>
    </contour>
    <contour>
      <point x="542.5" y="1026.0" type="curve" smooth="yes"/>
      <point x="578.5" y="1026.0"/>
      <point x="604.5" y="1050.0"/>
      <point x="604.5" y="1088.0" type="curve" smooth="yes"/>
      <point x="604.5" y="1126.0"/>
      <point x="578.5" y="1152.0"/>
      <point x="542.5" y="1152.0" type="curve" smooth="yes"/>
      <point x="506.5" y="1152.0"/>
      <point x="480.5" y="1126.0"/>
      <point x="480.5" y="1088.0" type="curve" smooth="yes"/>
      <point x="480.5" y="1050.0"/>
      <point x="506.5" y="1026.0"/>
    </contour>
  </outline>
</glyph>
<glyph name="ugrave" format="2">
  <advance width="1155.5"/>
  <unicode hex="00F9"/>
  <anchor x="570.0" y="1200.0" name="_top"/>
  <anchor x="570.0" y="0.0" name="bottom"/>
  <anchor x="972.5" y="0.0" name="ogonek"/>
  <anchor x="570.0" y="1200.0" name="top"/>
  <anchor x="904.5" y="1080.0" name="topright"/>
  <outline>
    <contour>
      <point x="522.0" y="-18.0" type="curve" smooth="yes"/>
      <point x="662.0" y="-18.0"/>
      <point x="796.5" y="30.5"/>
      <point x="898.5" y="126.0" type="curve"/>
      <point x="906.5" y="126.0" type="line"/>
      <point x="912.5" y="0.0" type="line"/>
      <point x="972.5" y="0.0" type="line"/>
      <point x="972.5" y="1080.0" type="line"/>
      <point x="904.5" y="1080.0" type="line"/>
      <point x="904.5" y="224.5" type="line"/>
      <point x="801.0" y="99.5"/>
      <point x="651.0" y="48.0"/>
      <point x="524.0" y="48.0" type="curve" smooth="yes"/>
      <point x="353.0" y="48.0"/>
      <point x="235.0" y="126.5"/>
      <point x="235.0" y="355.0" type="curve" smooth="yes"/>
      <point x="235.0" y="1080.0" type="line"/>
      <point x="167.0" y="1080.0" type="line"/>
      <point x="167.0" y="354.5" type="line" smooth="yes"/>
      <point x="167.0" y="82.0"/>
      <point x="313.0" y="-18.0"/>
    </contour>
    <contour>
      <point x="536.0" y="1264.0" type="line"/>
      <point x="604.0" y="1264.0" type="line"/>
      <point x="366.0" y="1616.0" type="line"/>
      <point x="285.0" y="1616.0" type="line"/>
    </contour>
  </outline>
</glyph>
<glyph name="ucircumflex" format="2">
  <advance width="1155.5"/>
  <unicode hex="00FB"/>
  <anchor x="570.0" y="1200.0" name="_top"/>
  <anchor x="570.0" y="0.0" name="bottom"/>
  <anchor x="972.5" y="0.0" name="ogonek"/>
  <anchor x="570.0" y="1200.0" name="top"/>
  <anchor x="904.5" y="1080.0" name="topright"/>
  <outline>
    <contour>
      <point x="522.0" y="-18.0" type="curve" smooth="yes"/>
      <point x="662.0" y="-18.0"/>
      <point x="796.5" y="30.5"/>
      <point x="898.5" y="126.0" type="curve"/>
      <point x="906.5" y="126.0" type="line"/>
      <point x="912.5" y="0.0" type="line"/>
      <point x="972.5" y="0.0" type="line"/>
      <point x="972.5" y="1080.0" type="line"/>
      <point x="904.5" y="1080.0" type="line"/>
      <point x="904.5" y="224.5" type="line"/>
      <point x="801.0" y="99.5"/>
      <point x="651.0" y="48.0"/>
      <point x="524.0" y="48.0" type="curve" smooth="yes"/>
      <point x="353.0" y="48.0"/>
      <point x="235.0" y="126.5"/>
      <point x="235.0" y="355.0" type="curve" smooth="yes"/>
      <point x="235.0" y="1080.0" type="line"/>
      <point x="167.0" y="1080.0" type="line"/>
      <point x="167.0" y="354.5" type="line" smooth="yes"/>
      <point x="167.0" y="82.0"/>
      <point x="313.0" y="-18.0"/>
    </contour>
    <contour>
      <point x="293.0" y="1264.0" type="line"/>
      <point x="367.5" y="1264.0" type="line"/>
      <point x="585.5" y="1591.5" type="line"/>
      <point x="554.5" y="1591.5" type="line"/>
      <point x="772.5" y="1264.0" type="line"/>
      <point x="847.0" y="1264.0" type="line"/>
      <point x="608.0" y="1616.0" type="line"/>
      <point x="532.0" y="1616.0" type="line"/>
    </contour>
  </outline>
</glyph>
<glyph name="udieresis" format="2">
  <advance width="1155.5"/>
  <unicode hex="00FC"/>
  <anchor x="570.0" y="1200.0" name="_top"/>
  <anchor x="570.0" y="0.0" name="bottom"/>
  <anchor x="972.5" y="0.0" name="ogonek"/>
  <anchor x="570.0" y="1200.0" name="top"/>
  <anchor x="904.5" y="1080.0" name="topright"/>
  <outline>
    <contour>
      <point x="522.0" y="-18.0" type="curve" smooth="yes"/>
      <point x="662.0" y="-18.0"/>
      <point x="796.5" y="30.5"/>
      <point x="898.5" y="126.0" type="curve"/>
      <point x="906.5" y="126.0" type="line"/>
      <point x="912.5" y="0.0" type="line"/>
      <point x="972.5" y="0.0" type="line"/>
      <point x="972.5" y="1080.0" type="line"/>
      <point x="904.5" y="1080.0" type="line"/>
      <point x="904.5" y="224.5" type="line"/>
      <point x="801.0" y="99.5"/>
      <point x="651.0" y="48.0"/>
      <point x="524.0" y="48.0" type="curve" smooth="yes"/>
      <point x="353.0" y="48.0"/>
      <point x="235.0" y="126.5"/>
      <point x="235.0" y="355.0" type="curve" smooth="yes"/>
      <point x="235.0" y="1080.0" type="line"/>
      <point x="167.0" y="1080.0" type="line"/>
      <point x="167.0" y="354.5" type="line" smooth="yes"/>
      <point x="167.0" y="82.0"/>
      <point x="313.0" y="-18.0"/>
    </contour>
    <contour>
      <point x="790.0" y="1360.0" type="curve" smooth="yes"/>
      <point x="826.0" y="1360.0"/>
      <point x="852.0" y="1384.0"/>
      <point x="852.0" y="1422.0" type="curve" smooth="yes"/>
      <point x="852.0" y="1460.0"/>
      <point x="826.0" y="1486.0"/>
      <point x="790.0" y="1486.0" type="curve" smooth="yes"/>
      <point x="754.0" y="1486.0"/>
      <point x="728.0" y="1460.0"/>
      <point x="728.0" y="1422.0" type="curve" smooth="yes"/>
      <point x="728.0" y="1384.0"/>
      <point x="754.0" y="1360.0"/>
    </contour>
    <contour>
      <point x="350.0" y="1360.0" type="curve" smooth="yes"/>
      <point x="386.0" y="1360.0"/>
      <point x="412.0" y="1384.0"/>
      <point x="412.0" y="1422.0" type="curve" smooth="yes"/>
      <point x="412.0" y="1460.0"/>
      <point x="386.0" y="1486.0"/>
      <point x="350.0" y="1486.0" type="curve" smooth="yes"/>
      <point x="314.0" y="1486.0"/>
      <point x="288.0" y="1460.0"/>
      <point x="288.0" y="1422.0" type="curve" smooth="yes"/>
      <point x="288.0" y="1384.0"/>
      <point x="314.0" y="1360.0"/>
    </contour>
  </outline>
</glyph>
<glyph name="thorn" format="2">
  <advance width="1149.5"/>
  <unicode hex="00FE"/>
  <outline>
    <contour>
      <point x="183.0" y="-440.0" type="line"/>
      <point x="251.0" y="-440.0" type="line"/>
      <point x="251.0" y="2.5" type="line"/>
      <point x="317.0" y="-8.0"/>
      <point x="400.5" y="-18.0"/>
      <point x="483.0" y="-18.0" type="curve" smooth="yes"/>
      <point x="845.5" y="-18.0"/>
      <point x="1031.5" y="167.5"/>
      <point x="1031.5" y="560.0" type="curve" smooth="yes"/>
      <point x="1031.5" y="955.0"/>
      <point x="837.5" y="1096.0"/>
      <point x="593.5" y="1096.0" type="curve" smooth="yes"/>
      <point x="450.0" y="1096.0"/>
      <point x="334.0" y="1040.0"/>
      <point x="257.0" y="955.5" type="curve"/>
      <point x="251.0" y="955.5" type="line"/>
      <point x="251.0" y="1616.0" type="line"/>
      <point x="183.0" y="1616.0" type="line"/>
    </contour>
    <contour>
      <point x="486.5" y="48.0" type="curve" smooth="yes"/>
      <point x="403.5" y="48.0"/>
      <point x="315.0" y="58.5"/>
      <point x="251.0" y="75.5" type="curve"/>
      <point x="251.0" y="859.0" type="line"/>
      <point x="336.0" y="980.5"/>
      <point x="465.5" y="1030.0"/>
      <point x="589.0" y="1030.0" type="curve" smooth="yes"/>
      <point x="800.0" y="1030.0"/>
      <point x="959.5" y="916.5"/>
      <point x="959.5" y="552.0" type="curve" smooth="yes"/>
      <point x="959.5" y="201.0"/>
      <point x="802.0" y="48.0"/>
    </contour>
  </outline>
</glyph>
<glyph name="ydieresis" format="2">
  <advance width="1063.5"/>
  <unicode hex="00FF"/>
  <anchor x="533.5" y="1200.0" name="_top"/>
  <anchor x="766.5" y="0.0" name="bottom"/>
  <anchor x="533.5" y="1200.0" name="top"/>
  <outline>
    <contour>
      <point x="321.5" y="-440.0" type="line"/>
      <point x="393.5" y="-440.0" type="line"/>
      <point x="1032.0" y="1080.0" type="line"/>
      <point x="960.5" y="1080.0" type="line"/>
      <point x="526.0" y="37.0" type="line"/>
      <point x="506.5" y="0.0" type="line"/>
    </contour>
    <contour>
      <point x="485.5" y="0.0" type="line"/>
      <point x="555.5" y="0.0" type="line"/>
      <point x="107.5" y="1080.0" type="line"/>
      <point x="31.5" y="1080.0" type="line"/>
    </contour>
    <contour>
      <point x="753.5" y="1360.0" type="curve" smooth="yes"/>
      <point x="789.5" y="1360.0"/>
      <point x="815.5" y="1384.0"/>
      <point x="815.5" y="1422.0" type="curve" smooth="yes"/>
      <point x="815.5" y="1460.0"/>
      <point x="789.5" y="1486.0"/>
      <point x="753.5" y="1486.0" type="curve" smooth="yes"/>
      <point x="717.5" y="1486.0"/>
      <point x="691.5" y="1460.0"/>
      <point x="691.5" y="1422.0" type="curve" smooth="yes"/>
      <point x="691.5" y="1384.0"/>
      <point x="717.5" y="1360.0"/>
    </contour>
    <contour>
      <point x="313.5" y="1360.0" type="curve" smooth="yes"/>
      <point x="349.5" y="1360.0"/>
      <point x="375.5" y="1384.0"/>
      <point x="375.5" y="1422.0" type="curve" smooth="yes"/>
      <point x="375.5" y="1460.0"/>
      <point x="349.5" y="1486.0"/>
      <point x="313.5" y="1486.0" type="curve" smooth="yes"/>
      <point x="277.5" y="1486.0"/>
      <point x="251.5" y="1460.0"/>
      <point x="251.5" y="1422.0" type="curve" smooth="yes"/>
      <point x="251.5" y="1384.0"/>
      <point x="277.5" y="1360.0"/>
    </contour>
  </outline>
</glyph>
<glyph name="amacron" format="2">
  <advance width="1042.5"/>
  <unicode hex="0101"/>
  <anchor x="517.5" y="1200.0" name="_top"/>
  <anchor x="536.5" y="0.0" name="bottom"/>
  <anchor x="875.5" y="0.0" name="ogonek"/>
  <anchor x="517.5" y="1200.0" name="top"/>
  <outline>
    <contour>
      <point x="450.0" y="-16.0" type="curve" smooth="yes"/>
      <point x="591.0" y="-16.0"/>
      <point x="723.5" y="42.0"/>
      <point x="801.5" y="131.0" type="curve"/>
      <point x="809.5" y="131.0" type="line"/>
      <point x="815.5" y="0.0" type="line"/>
      <point x="875.5" y="0.0" type="line"/>
      <point x="875.5" y="742.0" type="line" smooth="yes"/>
      <point x="875.5" y="1012.0"/>
      <point x="733.5" y="1096.0"/>
      <point x="490.5" y="1096.0" type="curve" smooth="yes"/>
      <point x="388.0" y="1096.0"/>
      <point x="269.5" y="1078.5"/>
      <point x="181.0" y="1044.5" type="curve"/>
      <point x="181.0" y="976.5" type="line"/>
      <point x="292.0" y="1016.0"/>
      <point x="403.5" y="1030.0"/>
      <point x="491.5" y="1030.0" type="curve" smooth="yes"/>
      <point x="692.5" y="1030.0"/>
      <point x="807.5" y="972.0"/>
      <point x="807.5" y="741.0" type="curve" smooth="yes"/>
      <point x="807.5" y="219.0" type="line"/>
      <point x="710.0" y="102.0"/>
      <point x="581.0" y="50.0"/>
      <point x="451.5" y="50.0" type="curve" smooth="yes"/>
      <point x="277.5" y="50.0"/>
      <point x="195.0" y="130.5"/>
      <point x="195.0" y="272.5" type="curve" smooth="yes"/>
      <point x="195.0" y="408.0"/>
      <point x="279.0" y="481.5"/>
      <point x="493.5" y="507.0" type="curve" smooth="yes"/>
      <point x="847.5" y="549.5" type="line"/>
      <point x="848.0" y="615.5" type="line"/>
      <point x="495.5" y="573.0" type="line" smooth="yes"/>
      <point x="231.5" y="541.5"/>
      <point x="121.0" y="445.5"/>
      <point x="121.0" y="267.5" type="curve" smooth="yes"/>
      <point x="121.0" y="88.0"/>
      <point x="244.5" y="-16.0"/>
    </contour>
    <contour>
      <point x="218.0" y="1394.0" type="line"/>
      <point x="817.0" y="1394.0" type="line"/>
      <point x="817.0" y="1453.5" type="line"/>
      <point x="218.0" y="1453.5" type="line"/>
    </contour>
  </outline>
</glyph>
<glyph name="Abreve" format="2">
  <advance width="1364.0"/>
  <unicode hex="0102"/>
  <anchor x="683.0" y="1520.0" name="_top"/>
  <anchor x="683.0" y="0.0" name="bottom"/>
  <anchor x="1321.5" y="0.0" name="ogonek"/>
  <anchor x="683.0" y="1520.0" name="top"/>
  <outline>
    <contour>
      <point x="42.5" y="0.0" type="line"/>
      <point x="116.0" y="0.0" type="line"/>
      <point x="693.0" y="1440.0" type="line"/>
      <point x="669.0" y="1440.0" type="line"/>
      <point x="1246.0" y="0.0" type="line"/>
      <point x="1321.5" y="0.0" type="line"/>
      <point x="725.0" y="1480.0" type="line"/>
      <point x="639.0" y="1480.0" type="line"/>
    </contour>
    <contour>
      <point x="303.0" y="528.0" type="line"/>
      <point x="1061.0" y="528.0" type="line"/>
      <point x="1041.0" y="594.0" type="line"/>
      <point x="323.0" y="594.0" type="line"/>
    </contour>
    <contour>
      <point x="685.0" y="1628.0" type="curve" smooth="yes"/>
      <point x="880.5" y="1628.0"/>
      <point x="972.0" y="1723.5"/>
      <point x="985.0" y="1860.0" type="curve"/>
      <point x="926.0" y="1860.0" type="line"/>
      <point x="911.5" y="1752.5"/>
      <point x="851.5" y="1687.5"/>
      <point x="685.0" y="1687.5" type="curve" smooth="yes"/>
      <point x="518.5" y="1687.5"/>
      <point x="455.5" y="1752.5"/>
      <point x="440.0" y="1860.0" type="curve"/>
      <point x="381.0" y="1860.0" type="line"/>
      <point x="394.0" y="1725.5"/>
      <point x="489.5" y="1628.0"/>
    </contour>
  </outline>
</glyph>
<glyph name="Aogonek" format="2">
  <advance width="1364.0"/>
  <unicode hex="0104"/>
  <anchor x="1321.5" y="0.0" name="_ogonek"/>
  <anchor x="683.0" y="0.0" name="bottom"/>
  <anchor x="1321.5" y="0.0" name="ogonek"/>
  <anchor x="683.0" y="1520.0" name="top"/>
  <outline>
    <contour>
      <point x="42.5" y="0.0" type="line"/>
      <point x="116.0" y="0.0" type="line"/>
      <point x="693.0" y="1440.0" type="line"/>
      <point x="669.0" y="1440.0" type="line"/>
      <point x="1246.0" y="0.0" type="line"/>
      <point x="1321.5" y="0.0" type="line"/>
      <point x="725.0" y="1480.0" type="line"/>
      <point x="639.0" y="1480.0" type="line"/>
    </contour>
    <contour>
      <point x="303.0" y="528.0" type="line"/>
      <point x="1061.0" y="528.0" type="line"/>
      <point x="1041.0" y="594.0" type="line"/>
      <point x="323.0" y="594.0" type="line"/>
    </contour>
    <contour>
      <point x="1275.5" y="-400.0" type="curve" smooth="yes"/>
      <point x="1334.0" y="-400.0"/>
      <point x="1394.0" y="-386.5"/>
      <point x="1453.0" y="-360.5" type="curve"/>
      <point x="1453.0" y="-306.5" type="line"/>
      <point x="1379.0" y="-335.0"/>
      <point x="1329.0" y="-348.0"/>
      <point x="1272.0" y="-348.0" type="curve" smooth="yes"/>
      <point x="1171.0" y="-348.0"/>
      <point x="1117.0" y="-305.5"/>
      <point x="1117.0" y="-228.0" type="curve" smooth="yes"/>
      <point x="1117.0" y="-148.0"/>
      <point x="1161.5" y="-80.0"/>
      <point x="1321.5" y="0.0" type="curve"/>
      <point x="1296.5" y="47.5" type="line"/>
      <point x="1120.0" y="-40.5"/>
      <point x="1061.0" y="-128.0"/>
      <point x="1061.0" y="-230.5" type="curve" smooth="yes"/>
      <point x="1061.0" y="-337.5"/>
      <point x="1137.5" y="-400.0"/>
    </contour>
  </outline>
</glyph>
<glyph name="cacute" format="2">
  <advance width="888.0"/>
  <unicode hex="0107"/>
  <anchor x="537.0" y="1200.0" name="_top"/>
  <anchor x="532.5" y="0.0" name="bottom"/>
  <anchor x="537.0" y="1200.0" name="top"/>
  <outline>
    <contour>
      <point x="573.0" y="-18.0" type="curve" smooth="yes"/>
      <point x="662.5" y="-18.0"/>
      <point x="755.0" y="-1.5"/>
      <point x="846.5" y="32.5" type="curve"/>
      <point x="846.5" y="100.5" type="line"/>
      <point x="741.5" y="63.0"/>
      <point x="655.5" y="48.0"/>
      <point x="579.5" y="48.0" type="curve" smooth="yes"/>
      <point x="326.5" y="48.0"/>
      <point x="190.0" y="184.5"/>
      <point x="190.0" y="544.0" type="curve" smooth="yes"/>
      <point x="190.0" y="896.5"/>
      <point x="334.5" y="1030.0"/>
      <point x="618.5" y="1030.0" type="curve" smooth="yes"/>
      <point x="697.0" y="1030.0"/>
      <point x="771.5" y="1018.0"/>
      <point x="846.5" y="995.5" type="curve"/>
      <point x="846.5" y="1063.5" type="line"/>
      <point x="776.5" y="1085.5"/>
      <point x="693.5" y="1096.0"/>
      <point x="617.5" y="1096.0" type="curve" smooth="yes"/>
      <point x="294.5" y="1096.0"/>
      <point x="118.0" y="930.0"/>
      <point x="118.0" y="540.0" type="curve" smooth="yes"/>
      <point x="118.0" y="148.5"/>
      <point x="284.0" y="-18.0"/>
    </contour>
    <contour>
      <point x="503.0" y="1264.0" type="line"/>
      <point x="571.0" y="1264.0" type="line"/>
      <point x="822.0" y="1616.0" type="line"/>
      <point x="741.0" y="1616.0" type="line"/>
    </contour>
  </outline>
</glyph>
<glyph name="Ccircumflex" format="2">
  <advance width="1186.5"/>
  <unicode hex="0108"/>
  <anchor x="717.0" y="1520.0" name="_top"/>
  <anchor x="734.5" y="0.0" name="bottom"/>
  <anchor x="717.0" y="1520.0" name="top"/>
  <outline>
    <contour>
      <point x="776.5" y="-18.0" type="curve" smooth="yes"/>
      <point x="912.5" y="-18.0"/>
      <point x="1029.0" y="2.5"/>
      <point x="1141.5" y="44.0" type="curve"/>
      <point x="1141.5" y="112.0" type="line"/>
      <point x="1005.0" y="64.0"/>
      <point x="900.5" y="48.0"/>
      <point x="777.5" y="48.0" type="curve" smooth="yes"/>
      <point x="431.5" y="48.0"/>
      <point x="200.0" y="213.5"/>
      <point x="200.0" y="742.0" type="curve" smooth="yes"/>
      <point x="200.0" y="1246.0"/>
      <point x="420.5" y="1432.0"/>
      <point x="790.0" y="1432.0" type="curve" smooth="yes"/>
      <point x="910.0" y="1432.0"/>
      <point x="1026.5" y="1415.0"/>
      <point x="1141.5" y="1379.5" type="curve"/>
      <point x="1141.5" y="1447.5" type="line"/>
      <point x="1028.5" y="1481.0"/>
      <point x="921.5" y="1498.0"/>
      <point x="793.5" y="1498.0" type="curve" smooth="yes"/>
      <point x="387.0" y="1498.0"/>
      <point x="128.0" y="1280.0"/>
      <point x="128.0" y="738.0" type="curve" smooth="yes"/>
      <point x="128.0" y="173.0"/>
      <point x="399.0" y="-18.0"/>
    </contour>
    <contour>
      <point x="417.0" y="1616.0" type="line"/>
      <point x="503.5" y="1616.0" type="line"/>
      <point x="732.5" y="1859.5" type="line"/>
      <point x="701.5" y="1859.5" type="line"/>
      <point x="930.5" y="1616.0" type="line"/>
      <point x="1017.0" y="1616.0" type="line"/>
      <point x="755.0" y="1888.0" type="line"/>
      <point x="679.0" y="1888.0" type="line"/>
    </contour>
  </outline>
</glyph>
<glyph name="ccircumflex" format="2">
  <advance width="888.0"/>
  <unicode hex="0109"/>
  <anchor x="537.0" y="1200.0" name="_top"/>
  <anchor x="532.5" y="0.0" name="bottom"/>
  <anchor x="537.0" y="1200.0" name="top"/>
  <outline>
    <contour>
      <point x="573.0" y="-18.0" type="curve" smooth="yes"/>
      <point x="662.5" y="-18.0"/>
      <point x="755.0" y="-1.5"/>
      <point x="846.5" y="32.5" type="curve"/>
      <point x="846.5" y="100.5" type="line"/>
      <point x="741.5" y="63.0"/>
      <point x="655.5" y="48.0"/>
      <point x="579.5" y="48.0" type="curve" smooth="yes"/>
      <point x="326.5" y="48.0"/>
      <point x="190.0" y="184.5"/>
      <point x="190.0" y="544.0" type="curve" smooth="yes"/>
      <point x="190.0" y="896.5"/>
      <point x="334.5" y="1030.0"/>
      <point x="618.5" y="1030.0" type="curve" smooth="yes"/>
      <point x="697.0" y="1030.0"/>
      <point x="771.5" y="1018.0"/>
      <point x="846.5" y="995.5" type="curve"/>
      <point x="846.5" y="1063.5" type="line"/>
      <point x="776.5" y="1085.5"/>
      <point x="693.5" y="1096.0"/>
      <point x="617.5" y="1096.0" type="curve" smooth="yes"/>
      <point x="294.5" y="1096.0"/>
      <point x="118.0" y="930.0"/>
      <point x="118.0" y="540.0" type="curve" smooth="yes"/>
      <point x="118.0" y="148.5"/>
      <point x="284.0" y="-18.0"/>
    </contour>
    <contour>
      <point x="260.0" y="1264.0" type="line"/>
      <point x="334.5" y="1264.0" type="line"/>
      <point x="552.5" y="1591.5" type="line"/>
      <point x="521.5" y="1591.5" type="line"/>
      <point x="739.5" y="1264.0" type="line"/>
      <point x="814.0" y="1264.0" type="line"/>
      <point x="575.0" y="1616.0" type="line"/>
      <point x="499.0" y="1616.0" type="line"/>
    </contour>
  </outline>
</glyph>
<glyph name="dcroat" format="2">
  <advance width="1149.5"/>
  <unicode hex="0111"/>
  <anchor x="966.5" y="1356.0" name="_stroke"/>
  <anchor x="572.5" y="0.0" name="bottom"/>
  <anchor x="1096.5" y="1616.0" name="caronalt"/>
  <anchor x="572.5" y="540.0" name="center"/>
  <anchor x="966.5" y="1356.0" name="stroke"/>
  <anchor x="572.5" y="1200.0" name="top"/>
  <anchor x="1096.0" y="1080.0" name="topright"/>
  <outline>
    <contour>
      <point x="561.5" y="-18.0" type="curve" smooth="yes"/>
      <point x="699.5" y="-18.0"/>
      <point x="817.5" y="38.5"/>
      <point x="892.5" y="125.5" type="curve"/>
      <point x="900.5" y="125.5" type="line"/>
      <point x="906.5" y="0.0" type="line"/>
      <point x="966.5" y="0.0" type="line"/>
      <point x="966.5" y="1616.0" type="line"/>
      <point x="898.5" y="1616.0" type="line"/>
      <point x="898.5" y="1074.0" type="line"/>
      <point x="832.5" y="1086.0"/>
      <point x="749.0" y="1096.0"/>
      <point x="666.5" y="1096.0" type="curve" smooth="yes"/>
      <point x="305.5" y="1096.0"/>
      <point x="118.0" y="910.5"/>
      <point x="118.0" y="518.0" type="curve" smooth="yes"/>
      <point x="118.0" y="133.5"/>
      <point x="306.5" y="-18.0"/>
    </contour>
    <contour>
      <point x="565.0" y="48.0" type="curve" smooth="yes"/>
      <point x="342.0" y="48.0"/>
      <point x="190.0" y="167.5"/>
      <point x="190.0" y="526.0" type="curve" smooth="yes"/>
      <point x="190.0" y="877.0"/>
      <point x="347.5" y="1030.0"/>
      <point x="663.0" y="1030.0" type="curve" smooth="yes"/>
      <point x="746.0" y="1030.0"/>
      <point x="834.5" y="1019.5"/>
      <point x="898.5" y="1002.5" type="curve"/>
      <point x="898.5" y="221.5" type="line"/>
      <point x="813.5" y="97.5"/>
      <point x="688.5" y="48.0"/>
    </contour>
    <contour>
      <point x="502.5" y="1326.0" type="line"/>
      <point x="1136.0" y="1326.0" type="line"/>
      <point x="1136.0" y="1386.0" type="line"/>
      <point x="502.5" y="1386.0" type="line"/>
    </contour>
  </outline>
</glyph>
<glyph name="emacron" format="2">
  <advance width="1052.0"/>
  <unicode hex="0113"/>
  <anchor x="545.0" y="1200.0" name="_top"/>
  <anchor x="545.0" y="0.0" name="bottom"/>
  <anchor x="785.0" y="0.0" name="ogonek"/>
  <anchor x="545.0" y="1200.0" name="top"/>
  <outline>
    <contour>
      <point x="610.0" y="-18.0" type="curve" smooth="yes"/>
      <point x="705.5" y="-18.0"/>
      <point x="798.5" y="-2.0"/>
      <point x="902.5" y="32.5" type="curve"/>
      <point x="902.5" y="100.5" type="line"/>
      <point x="795.0" y="66.0"/>
      <point x="703.0" y="48.0"/>
      <point x="614.0" y="48.0" type="curve" smooth="yes"/>
      <point x="346.5" y="48.0"/>
      <point x="190.0" y="185.0"/>
      <point x="190.0" y="535.5" type="curve" smooth="yes"/>
      <point x="190.0" y="549.0" type="line" smooth="yes"/>
      <point x="190.0" y="893.5"/>
      <point x="322.5" y="1030.0"/>
      <point x="541.5" y="1030.0" type="curve" smooth="yes"/>
      <point x="760.0" y="1030.0"/>
      <point x="883.0" y="892.0"/>
      <point x="883.0" y="549.0" type="curve"/>
      <point x="915.5" y="576.0" type="line"/>
      <point x="145.5" y="576.0" type="line"/>
      <point x="145.5" y="510.0" type="line"/>
      <point x="953.5" y="510.0" type="line"/>
      <point x="953.5" y="540.0" type="line" smooth="yes"/>
      <point x="953.5" y="922.0"/>
      <point x="800.5" y="1096.0"/>
      <point x="541.5" y="1096.0" type="curve" smooth="yes"/>
      <point x="284.5" y="1096.0"/>
      <point x="118.0" y="922.5"/>
      <point x="118.0" y="540.0" type="curve" smooth="yes"/>
      <point x="118.0" y="148.5"/>
      <point x="299.5" y="-18.0"/>
    </contour>
    <contour>
      <point x="245.5" y="1394.0" type="line"/>
      <point x="844.5" y="1394.0" type="line"/>
      <point x="844.5" y="1453.5" type="line"/>
      <point x="245.5" y="1453.5" type="line"/>
    </contour>
  </outline>
</glyph>
<glyph name="Ebreve" format="2">
  <advance width="1199.5"/>
  <unicode hex="0114"/>
  <anchor x="673.0" y="1520.0" name="_top"/>
  <anchor x="676.0" y="0.0" name="bottom"/>
  <anchor x="1030.0" y="0.0" name="ogonek"/>
  <anchor x="673.0" y="1520.0" name="top"/>
  <anchor x="43.5" y="1480.0" name="topleft"/>
  <outline>
    <contour>
      <point x="203.0" y="0.0" type="line"/>
      <point x="1110.0" y="0.0" type="line"/>
      <point x="1110.0" y="66.0" type="line"/>
      <point x="271.0" y="66.0" type="line"/>
      <point x="271.0" y="1414.0" type="line"/>
      <point x="1100.0" y="1414.0" type="line"/>
      <point x="1100.0" y="1480.0" type="line"/>
      <point x="203.0" y="1480.0" type="line"/>
    </contour>
    <contour>
      <point x="248.0" y="728.0" type="line"/>
      <point x="1002.5" y="728.0" type="line"/>
      <point x="1002.5" y="794.0" type="line"/>
      <point x="248.0" y="794.0" type="line"/>
    </contour>
    <contour>
      <point x="675.0" y="1628.0" type="curve" smooth="yes"/>
      <point x="870.5" y="1628.0"/>
      <point x="962.0" y="1723.5"/>
      <point x="975.0" y="1860.0" type="curve"/>
      <point x="916.0" y="1860.0" type="line"/>
      <point x="901.5" y="1752.5"/>
      <point x="841.5" y="1687.5"/>
      <point x="675.0" y="1687.5" type="curve" smooth="yes"/>
      <point x="508.5" y="1687.5"/>
      <point x="445.5" y="1752.5"/>
      <point x="430.0" y="1860.0" type="curve"/>
      <point x="371.0" y="1860.0" type="line"/>
      <point x="384.0" y="1725.5"/>
      <point x="479.5" y="1628.0"/>
    </contour>
  </outline>
</glyph>
<glyph name="Eogonek" format="2">
  <advance width="1199.5"/>
  <unicode hex="0118"/>
  <anchor x="1030.0" y="0.0" name="_ogonek"/>
  <anchor x="676.0" y="0.0" name="bottom"/>
  <anchor x="1030.0" y="0.0" name="ogonek"/>
  <anchor x="673.0" y="1520.0" name="top"/>
  <anchor x="43.5" y="1480.0" name="topleft"/>
  <outline>
    <contour>
      <point x="203.0" y="0.0" type="line"/>
      <point x="1110.0" y="0.0" type="line"/>
      <point x="1110.0" y="66.0" type="line"/>
      <point x="271.0" y="66.0" type="line"/>
      <point x="271.0" y="1414.0" type="line"/>
      <point x="1100.0" y="1414.0" type="line"/>
      <point x="1100.0" y="1480.0" type="line"/>
      <point x="203.0" y="1480.0" type="line"/>
    </contour>
    <contour>
      <point x="248.0" y="728.0" type="line"/>
      <point x="1002.5" y="728.0" type="line"/>
      <point x="1002.5" y="794.0" type="line"/>
      <point x="248.0" y="794.0" type="line"/>
    </contour>
    <contour>
      <point x="984.0" y="-400.0" type="curve" smooth="yes"/>
      <point x="1042.5" y="-400.0"/>
      <point x="1102.5" y="-386.5"/>
      <point x="1161.5" y="-360.5" type="curve"/>
      <point x="1161.5" y="-306.5" type="line"/>
      <point x="1087.5" y="-335.0"/>
      <point x="1037.5" y="-348.0"/>
      <point x="980.5" y="-348.0" type="curve" smooth="yes"/>
      <point x="879.5" y="-348.0"/>
      <point x="825.5" y="-305.5"/>
      <point x="825.5" y="-228.0" type="curve" smooth="yes"/>
      <point x="825.5" y="-148.0"/>
      <point x="870.0" y="-80.0"/>
      <point x="1030.0" y="0.0" type="curve"/>
      <point x="1005.0" y="47.5" type="line"/>
      <point x="828.5" y="-40.5"/>
      <point x="769.5" y="-128.0"/>
      <point x="769.5" y="-230.5" type="curve" smooth="yes"/>
      <point x="769.5" y="-337.5"/>
      <point x="846.0" y="-400.0"/>
    </contour>
  </outline>
</glyph>
<glyph name="eogonek" format="2">
  <advance width="1052.0"/>
  <unicode hex="0119"/>
  <outline>
    <contour>
      <point x="743.5" y="-400.0" type="curve" smooth="yes"/>
      <point x="794.0" y="-400.0"/>
      <point x="856.0" y="-384.5"/>
      <point x="902.5" y="-358.5" type="curve"/>
      <point x="902.5" y="-302.5" type="line"/>
      <point x="847.5" y="-333.5"/>
      <point x="794.0" y="-348.0"/>
      <point x="740.0" y="-348.0" type="curve" smooth="yes"/>
      <point x="656.5" y="-348.0"/>
      <point x="605.0" y="-303.0"/>
      <point x="605.0" y="-226.5" type="curve" smooth="yes"/>
      <point x="605.0" y="-142.0"/>
      <point x="662.0" y="-41.5"/>
      <point x="902.5" y="32.5" type="curve"/>
      <point x="902.5" y="100.5" type="line"/>
      <point x="795.0" y="66.0"/>
      <point x="703.0" y="48.0"/>
      <point x="614.0" y="48.0" type="curve" smooth="yes"/>
      <point x="346.5" y="48.0"/>
      <point x="190.0" y="185.0"/>
      <point x="190.0" y="535.5" type="curve" smooth="yes"/>
      <point x="190.0" y="549.0" type="line" smooth="yes"/>
      <point x="190.0" y="893.5"/>
      <point x="322.5" y="1030.0"/>
      <point x="541.5" y="1030.0" type="curve" smooth="yes"/>
      <point x="760.0" y="1030.0"/>
      <point x="883.0" y="892.0"/>
      <point x="883.0" y="549.0" type="curve"/>
      <point x="915.5" y="576.0" type="line"/>
      <point x="145.5" y="576.0" type="line"/>
      <point x="145.5" y="510.0" type="line"/>
      <point x="953.5" y="510.0" type="line"/>
      <point x="953.5" y="540.0" type="line" smooth="yes"/>
      <point x="953.5" y="922.0"/>
      <point x="800.5" y="1096.0"/>
      <point x="541.5" y="1096.0" type="curve" smooth="yes"/>
      <point x="284.5" y="1096.0"/>
      <point x="118.0" y="922.5"/>
      <point x="118.0" y="540.0" type="curve" smooth="yes"/>
      <point x="118.0" y="148.5"/>
      <point x="299.5" y="-18.0"/>
      <point x="610.0" y="-18.0" type="curve" smooth="yes"/>
      <point x="642.0" y="-18.0"/>
      <point x="676.0" y="-16.0"/>
      <point x="706.5" y="-11.0" type="curve"/>
      <point x="703.0" y="0.5" type="line"/>
      <point x="607.5" y="-52.0"/>
      <point x="549.0" y="-135.0"/>
      <point x="549.0" y="-230.5" type="curve" smooth="yes"/>
      <point x="549.0" y="-335.0"/>
      <point x="622.5" y="-400.0"/>
    </contour>
  </outline>
</glyph>
<glyph name="Gbreve" format="2">
  <advance width="1398.5"/>
  <unicode hex="011E"/>
  <anchor x="754.5" y="1520.0" name="_top"/>
  <anchor x="754.5" y="0.0" name="bottom"/>
  <anchor x="754.5" y="1520.0" name="top"/>
  <outline>
    <contour>
      <point x="874.5" y="-10.0" type="curve" smooth="yes"/>
      <point x="987.0" y="-10.0"/>
      <point x="1078.0" y="-4.0"/>
      <point x="1215.0" y="18.5" type="curve"/>
      <point x="1215.0" y="720.0" type="line"/>
      <point x="1147.0" y="720.0" type="line"/>
      <point x="1147.0" y="47.5" type="line"/>
      <point x="1169.0" y="82.0" type="line"/>
      <point x="1085.5" y="65.0"/>
      <point x="994.0" y="56.0"/>
      <point x="874.5" y="56.0" type="curve" smooth="yes"/>
      <point x="431.0" y="56.0"/>
      <point x="201.5" y="263.0"/>
      <point x="200.0" y="741.0" type="curve" smooth="yes"/>
      <point x="198.5" y="1246.5"/>
      <point x="462.0" y="1432.0"/>
      <point x="825.0" y="1432.0" type="curve" smooth="yes"/>
      <point x="929.0" y="1432.0"/>
      <point x="1037.0" y="1420.5"/>
      <point x="1180.5" y="1379.5" type="curve"/>
      <point x="1180.5" y="1447.5" type="line"/>
      <point x="1055.5" y="1481.0"/>
      <point x="945.0" y="1498.0"/>
      <point x="823.5" y="1498.0" type="curve" smooth="yes"/>
      <point x="424.0" y="1498.0"/>
      <point x="126.5" y="1282.5"/>
      <point x="128.0" y="738.0" type="curve" smooth="yes"/>
      <point x="129.5" y="223.5"/>
      <point x="388.5" y="-10.0"/>
    </contour>
    <contour>
      <point x="756.5" y="1628.0" type="curve" smooth="yes"/>
      <point x="952.0" y="1628.0"/>
      <point x="1043.5" y="1723.5"/>
      <point x="1056.5" y="1860.0" type="curve"/>
      <point x="997.5" y="1860.0" type="line"/>
      <point x="983.0" y="1752.5"/>
      <point x="923.0" y="1687.5"/>
      <point x="756.5" y="1687.5" type="curve" smooth="yes"/>
      <point x="590.0" y="1687.5"/>
      <point x="527.0" y="1752.5"/>
      <point x="511.5" y="1860.0" type="curve"/>
      <point x="452.5" y="1860.0" type="line"/>
      <point x="465.5" y="1725.5"/>
      <point x="561.0" y="1628.0"/>
    </contour>
  </outline>
</glyph>
<glyph name="Gcommaaccent" format="2">
  <advance width="1398.5"/>
  <unicode hex="0122"/>
  <anchor x="754.5" y="0.0" name="_bottom"/>
  <anchor x="754.5" y="0.0" name="bottom"/>
  <anchor x="754.5" y="1520.0" name="top"/>
  <outline>
    <contour>
      <point x="874.5" y="-10.0" type="curve" smooth="yes"/>
      <point x="987.0" y="-10.0"/>
      <point x="1078.0" y="-4.0"/>
      <point x="1215.0" y="18.5" type="curve"/>
      <point x="1215.0" y="720.0" type="line"/>
      <point x="1147.0" y="720.0" type="line"/>
      <point x="1147.0" y="47.5" type="line"/>
      <point x="1169.0" y="82.0" type="line"/>
      <point x="1085.5" y="65.0"/>
      <point x="994.0" y="56.0"/>
      <point x="874.5" y="56.0" type="curve" smooth="yes"/>
      <point x="431.0" y="56.0"/>
      <point x="201.5" y="263.0"/>
      <point x="200.0" y="741.0" type="curve" smooth="yes"/>
      <point x="198.5" y="1246.5"/>
      <point x="462.0" y="1432.0"/>
      <point x="825.0" y="1432.0" type="curve" smooth="yes"/>
      <point x="929.0" y="1432.0"/>
      <point x="1037.0" y="1420.5"/>
      <point x="1180.5" y="1379.5" type="curve"/>
      <point x="1180.5" y="1447.5" type="line"/>
      <point x="1055.5" y="1481.0"/>
      <point x="945.0" y="1498.0"/>
      <point x="823.5" y="1498.0" type="curve" smooth="yes"/>
      <point x="424.0" y="1498.0"/>
      <point x="126.5" y="1282.5"/>
      <point x="128.0" y="738.0" type="curve" smooth="yes"/>
      <point x="129.5" y="223.5"/>
      <point x="388.5" y="-10.0"/>
    </contour>
    <contour>
      <point x="728.5" y="-448.0" type="curve"/>
      <point x="772.5" y="-448.0" type="line"/>
      <point x="802.5" y="-386.0"/>
      <point x="816.5" y="-318.0"/>
      <point x="816.5" y="-270.0" type="curve" smooth="yes"/>
      <point x="816.5" y="-212.0"/>
      <point x="790.5" y="-184.0"/>
      <point x="750.5" y="-184.0" type="curve" smooth="yes"/>
      <point x="716.5" y="-184.0"/>
      <point x="692.5" y="-210.0"/>
      <point x="692.5" y="-246.0" type="curve" smooth="yes"/>
      <point x="692.5" y="-284.0"/>
      <point x="718.5" y="-310.0"/>
      <point x="754.5" y="-310.0" type="curve" smooth="yes"/>
      <point x="766.5" y="-310.0" type="line"/>
      <point x="762.5" y="-278.0" type="line"/>
      <point x="762.5" y="-326.0"/>
      <point x="756.5" y="-376.0"/>
    </contour>
  </outline>
</glyph>
<glyph name="gcommaaccent" format="2">
  <advance width="1149.5"/>
  <unicode hex="0123"/>
  <anchor x="591.5" y="1200.0" name="_top"/>
  <anchor x="591.5" y="-440.0" name="bottom"/>
  <anchor x="591.5" y="1200.0" name="top"/>
  <outline>
    <contour>
      <point x="503.0" y="-460.0" type="curve" smooth="yes"/>
      <point x="809.0" y="-460.0"/>
      <point x="966.5" y="-328.0"/>
      <point x="966.5" y="10.5" type="curve" smooth="yes"/>
      <point x="966.5" y="1051.0" type="line"/>
      <point x="868.5" y="1080.0"/>
      <point x="762.0" y="1096.0"/>
      <point x="654.5" y="1096.0" type="curve" smooth="yes"/>
      <point x="304.5" y="1096.0"/>
      <point x="118.0" y="910.5"/>
      <point x="118.0" y="518.0" type="curve" smooth="yes"/>
      <point x="118.0" y="123.0"/>
      <point x="311.0" y="-18.0"/>
      <point x="554.5" y="-18.0" type="curve" smooth="yes"/>
      <point x="699.5" y="-18.0"/>
      <point x="816.0" y="38.5"/>
      <point x="892.5" y="119.5" type="curve"/>
      <point x="898.5" y="119.5" type="line"/>
      <point x="898.5" y="5.0" type="line" smooth="yes"/>
      <point x="898.5" y="-291.0"/>
      <point x="771.5" y="-394.0"/>
      <point x="504.5" y="-394.0" type="curve" smooth="yes"/>
      <point x="404.5" y="-394.0"/>
      <point x="302.0" y="-377.0"/>
      <point x="185.5" y="-337.5" type="curve"/>
      <point x="185.5" y="-405.5" type="line"/>
      <point x="280.5" y="-441.0"/>
      <point x="408.0" y="-460.0"/>
    </contour>
    <contour>
      <point x="558.5" y="48.0" type="curve" smooth="yes"/>
      <point x="349.5" y="48.0"/>
      <point x="190.0" y="161.5"/>
      <point x="190.0" y="526.0" type="curve" smooth="yes"/>
      <point x="190.0" y="877.0"/>
      <point x="347.5" y="1030.0"/>
      <point x="648.5" y="1030.0" type="curve" smooth="yes"/>
      <point x="746.0" y="1030.0"/>
      <point x="834.5" y="1017.0"/>
      <point x="898.5" y="999.5" type="curve"/>
      <point x="898.5" y="211.5" type="line"/>
      <point x="813.5" y="97.5"/>
      <point x="684.0" y="48.0"/>
    </contour>
    <contour>
      <point x="595.5" y="1360.0" type="curve" smooth="yes"/>
      <point x="629.5" y="1360.0"/>
      <point x="653.5" y="1386.0"/>
      <point x="653.5" y="1422.0" type="curve" smooth="yes"/>
      <point x="653.5" y="1460.0"/>
      <point x="627.5" y="1486.0"/>
      <point x="591.5" y="1486.0" type="curve" smooth="yes"/>
      <point x="579.5" y="1486.0" type="line"/>
      <point x="583.5" y="1454.0" type="line"/>
      <point x="583.5" y="1502.0"/>
      <point x="589.5" y="1552.0"/>
      <point x="617.5" y="1624.0" type="curve"/>
      <point x="573.5" y="1624.0" type="line"/>
      <point x="543.5" y="1562.0"/>
      <point x="529.5" y="1494.0"/>
      <point x="529.5" y="1446.0" type="curve" smooth="yes"/>
      <point x="529.5" y="1388.0"/>
      <point x="555.5" y="1360.0"/>
    </contour>
  </outline>
</glyph>
<glyph name="Hcircumflex" format="2">
  <advance width="1487.0"/>
  <unicode hex="0124"/>
  <anchor x="743.5" y="1520.0" name="_top"/>
  <anchor x="743.5" y="0.0" name="bottom"/>
  <anchor x="743.5" y="1140.0" name="center"/>
  <anchor x="743.5" y="1520.0" name="top"/>
  <anchor x="43.5" y="1480.0" name="topleft"/>
  <outline>
    <contour>
      <point x="203.0" y="0.0" type="line"/>
      <point x="271.0" y="0.0" type="line"/>
      <point x="271.0" y="728.0" type="line"/>
      <point x="1216.0" y="728.0" type="line"/>
      <point x="1216.0" y="0.0" type="line"/>
      <point x="1284.0" y="0.0" type="line"/>
      <point x="1284.0" y="1480.0" type="line"/>
      <point x="1216.0" y="1480.0" type="line"/>
      <point x="1216.0" y="794.0" type="line"/>
      <point x="271.0" y="794.0" type="line"/>
      <point x="271.0" y="1480.0" type="line"/>
      <point x="203.0" y="1480.0" type="line"/>
    </contour>
    <contour>
      <point x="443.5" y="1616.0" type="line"/>
      <point x="530.0" y="1616.0" type="line"/>
      <point x="759.0" y="1859.5" type="line"/>
      <point x="728.0" y="1859.5" type="line"/>
      <point x="957.0" y="1616.0" type="line"/>
      <point x="1043.5" y="1616.0" type="line"/>
      <point x="781.5" y="1888.0" type="line"/>
      <point x="705.5" y="1888.0" type="line"/>
    </contour>
  </outline>
</glyph>
<glyph name="hcircumflex" format="2">
  <advance width="1165.5"/>
  <unicode hex="0125"/>
  <anchor x="591.5" y="1616.0" name="_top"/>
  <anchor x="591.5" y="0.0" name="bottom"/>
  <anchor x="591.5" y="540.0" name="center"/>
  <anchor x="183.0" y="1356.0" name="stroke"/>
  <anchor x="591.5" y="1616.0" name="top"/>
  <outline>
    <contour>
      <point x="183.0" y="0.0" type="line"/>
      <point x="251.0" y="0.0" type="line"/>
      <point x="251.0" y="853.0" type="line"/>
      <point x="355.0" y="978.5"/>
      <point x="505.0" y="1028.0"/>
      <point x="636.0" y="1028.0" type="curve" smooth="yes"/>
      <point x="812.5" y="1028.0"/>
      <point x="930.5" y="951.5"/>
      <point x="930.5" y="723.0" type="curve" smooth="yes"/>
      <point x="930.5" y="0.0" type="line"/>
      <point x="998.5" y="0.0" type="line"/>
      <point x="998.5" y="723.5" type="line" smooth="yes"/>
      <point x="998.5" y="996.0"/>
      <point x="852.5" y="1096.0"/>
      <point x="638.5" y="1096.0" type="curve" smooth="yes"/>
      <point x="494.0" y="1096.0"/>
      <point x="359.5" y="1047.5"/>
      <point x="257.0" y="951.5" type="curve"/>
      <point x="251.0" y="951.5" type="line"/>
      <point x="251.0" y="1616.0" type="line"/>
      <point x="183.0" y="1616.0" type="line"/>
    </contour>
    <contour>
      <point x="291.5" y="1712.0" type="line"/>
      <point x="378.0" y="1712.0" type="line"/>
      <point x="607.0" y="1955.5" type="line"/>
      <point x="576.0" y="1955.5" type="line"/>
      <point x="805.0" y="1712.0" type="line"/>
      <point x="891.5" y="1712.0" type="line"/>
      <point x="629.5" y="1984.0" type="line"/>
      <point x="553.5" y="1984.0" type="line"/>
    </contour>
  </outline>
</glyph>
<glyph name="hbar" format="2">
  <advance width="1165.5"/>
  <unicode hex="0127"/>
  <anchor x="183.0" y="1356.0" name="_stroke"/>
  <anchor x="591.5" y="0.0" name="bottom"/>
  <anchor x="591.5" y="540.0" name="center"/>
  <anchor x="183.0" y="1356.0" name="stroke"/>
  <anchor x="591.5" y="1616.0" name="top"/>
  <outline>
    <contour>
      <point x="183.0" y="0.0" type="line"/>
      <point x="251.0" y="0.0" type="line"/>
      <point x="251.0" y="853.0" type="line"/>
      <point x="355.0" y="978.5"/>
      <point x="505.0" y="1028.0"/>
      <point x="636.0" y="1028.0" type="curve" smooth="yes"/>
      <point x="812.5" y="1028.0"/>
      <point x="930.5" y="951.5"/>
      <point x="930.5" y="723.0" type="curve" smooth="yes"/>
      <point x="930.5" y="0.0" type="line"/>
      <point x="998.5" y="0.0" type="line"/>
      <point x="998.5" y="723.5" type="line" smooth="yes"/>
      <point x="998.5" y="996.0"/>
      <point x="852.5" y="1096.0"/>
      <point x="638.5" y="1096.0" type="curve" smooth="yes"/>
      <point x="494.0" y="1096.0"/>
      <point x="359.5" y="1047.5"/>
      <point x="257.0" y="951.5" type="curve"/>
      <point x="251.0" y="951.5" type="line"/>
      <point x="251.0" y="1616.0" type="line"/>
      <point x="183.0" y="1616.0" type="line"/>
    </contour>
    <contour>
      <point x="13.5" y="1326.0" type="line"/>
      <point x="647.0" y="1326.0" type="line"/>
      <point x="647.0" y="1386.0" type="line"/>
      <point x="13.5" y="1386.0" type="line"/>
    </contour>
  </outline>
</glyph>
<glyph name="Itilde" format="2">
  <advance width="474.0"/>
  <unicode hex="0128"/>
  <anchor x="237.0" y="1520.0" name="_top"/>
  <anchor x="237.0" y="0.0" name="bottom"/>
  <anchor x="271.0" y="0.0" name="ogonek"/>
  <anchor x="237.0" y="1520.0" name="top"/>
  <outline>
    <contour>
      <point x="203.0" y="0.0" type="line"/>
      <point x="271.0" y="0.0" type="line"/>
      <point x="271.0" y="1480.0" type="line"/>
      <point x="203.0" y="1480.0" type="line"/>
    </contour>
    <contour>
      <point x="389.0" y="1697.5" type="curve" smooth="yes"/>
      <point x="463.5" y="1697.5"/>
      <point x="517.0" y="1718.5"/>
      <point x="554.5" y="1758.0" type="curve"/>
      <point x="554.5" y="1825.5" type="line"/>
      <point x="509.0" y="1777.5"/>
      <point x="460.0" y="1755.0"/>
      <point x="389.0" y="1755.0" type="curve" smooth="yes"/>
      <point x="292.0" y="1755.0"/>
      <point x="203.0" y="1830.0"/>
      <point x="85.0" y="1830.0" type="curve" smooth="yes"/>
      <point x="10.5" y="1830.0"/>
      <point x="-43.0" y="1809.0"/>
      <point x="-80.5" y="1769.5" type="curve"/>
      <point x="-80.5" y="1702.0" type="line"/>
      <point x="-35.0" y="1750.0"/>
      <point x="14.0" y="1772.5"/>
      <point x="85.0" y="1772.5" type="curve" smooth="yes"/>
      <point x="182.0" y="1772.5"/>
      <point x="271.0" y="1697.5"/>
    </contour>
  </outline>
</glyph>
<glyph name="itilde" format="2">
  <advance width="434.0"/>
  <unicode hex="0129"/>
  <anchor x="217.0" y="1200.0" name="_top"/>
  <anchor x="217.0" y="0.0" name="bottom"/>
  <anchor x="251.0" y="0.0" name="ogonek"/>
  <anchor x="217.0" y="1200.0" name="top"/>
  <outline>
    <contour>
      <point x="183.0" y="0.0" type="line"/>
      <point x="251.0" y="0.0" type="line"/>
      <point x="251.0" y="1080.0" type="line"/>
      <point x="183.0" y="1080.0" type="line"/>
    </contour>
    <contour>
      <point x="359.0" y="1380.0" type="curve" smooth="yes"/>
      <point x="425.5" y="1380.0"/>
      <point x="479.0" y="1401.0"/>
      <point x="516.5" y="1440.5" type="curve"/>
      <point x="516.5" y="1508.0" type="line"/>
      <point x="471.0" y="1460.0"/>
      <point x="422.0" y="1437.5"/>
      <point x="359.0" y="1437.5" type="curve" smooth="yes"/>
      <point x="272.0" y="1437.5"/>
      <point x="183.0" y="1512.5"/>
      <point x="75.0" y="1512.5" type="curve" smooth="yes"/>
      <point x="8.5" y="1512.5"/>
      <point x="-45.0" y="1491.5"/>
      <point x="-82.5" y="1452.0" type="curve"/>
      <point x="-82.5" y="1384.5" type="line"/>
      <point x="-37.0" y="1432.5"/>
      <point x="12.0" y="1455.0"/>
      <point x="75.0" y="1455.0" type="curve" smooth="yes"/>
      <point x="162.0" y="1455.0"/>
      <point x="251.0" y="1380.0"/>
    </contour>
  </outline>
</glyph>
<glyph name="Imacron" format="2">
  <advance width="474.0"/>
  <unicode hex="012A"/>
  <anchor x="237.0" y="1520.0" name="_top"/>
  <anchor x="237.0" y="0.0" name="bottom"/>
  <anchor x="271.0" y="0.0" name="ogonek"/>
  <anchor x="237.0" y="1520.0" name="top"/>
  <outline>
    <contour>
      <point x="203.0" y="0.0" type="line"/>
      <point x="271.0" y="0.0" type="line"/>
      <point x="271.0" y="1480.0" type="line"/>
      <point x="203.0" y="1480.0" type="line"/>
    </contour>
    <contour>
      <point x="-48.0" y="1722.5" type="line"/>
      <point x="522.0" y="1722.5" type="line"/>
      <point x="522.0" y="1782.0" type="line"/>
      <point x="-48.0" y="1782.0" type="line"/>
    </contour>
  </outline>
</glyph>
<glyph name="imacron" format="2">
  <advance width="434.0"/>
  <unicode hex="012B"/>
  <anchor x="217.0" y="1200.0" name="_top"/>
  <anchor x="217.0" y="0.0" name="bottom"/>
  <anchor x="251.0" y="0.0" name="ogonek"/>
  <anchor x="217.0" y="1200.0" name="top"/>
  <outline>
    <contour>
      <point x="183.0" y="0.0" type="line"/>
      <point x="251.0" y="0.0" type="line"/>
      <point x="251.0" y="1080.0" type="line"/>
      <point x="183.0" y="1080.0" type="line"/>
    </contour>
    <contour>
      <point x="-82.5" y="1394.0" type="line"/>
      <point x="516.5" y="1394.0" type="line"/>
      <point x="516.5" y="1453.5" type="line"/>
      <point x="-82.5" y="1453.5" type="line"/>
    </contour>
  </outline>
</glyph>
<glyph name="Ibreve" format="2">
  <advance width="474.0"/>
  <unicode hex="012C"/>
  <anchor x="237.0" y="1520.0" name="_top"/>
  <anchor x="237.0" y="0.0" name="bottom"/>
  <anchor x="271.0" y="0.0" name="ogonek"/>
  <anchor x="237.0" y="1520.0" name="top"/>
  <outline>
    <contour>
      <point x="203.0" y="0.0" type="line"/>
      <point x="271.0" y="0.0" type="line"/>
      <point x="271.0" y="1480.0" type="line"/>
      <point x="203.0" y="1480.0" type="line"/>
    </contour>
    <contour>
      <point x="239.0" y="1628.0" type="curve" smooth="yes"/>
      <point x="434.5" y="1628.0"/>
      <point x="526.0" y="1723.5"/>
      <point x="539.0" y="1860.0" type="curve"/>
      <point x="480.0" y="1860.0" type="line"/>
      <point x="465.5" y="1752.5"/>
      <point x="405.5" y="1687.5"/>
      <point x="239.0" y="1687.5" type="curve" smooth="yes"/>
      <point x="72.5" y="1687.5"/>
      <point x="9.5" y="1752.5"/>
      <point x="-6.0" y="1860.0" type="curve"/>
      <point x="-65.0" y="1860.0" type="line"/>
      <point x="-52.0" y="1725.5"/>
      <point x="43.5" y="1628.0"/>
    </contour>
  </outline>
</glyph>
<glyph name="ibreve" format="2">
  <advance width="434.0"/>
  <unicode hex="012D"/>
  <anchor x="217.0" y="1200.0" name="_top"/>
  <anchor x="217.0" y="0.0" name="bottom"/>
  <anchor x="251.0" y="0.0" name="ogonek"/>
  <anchor x="217.0" y="1200.0" name="top"/>
  <outline>
    <contour>
      <point x="183.0" y="0.0" type="line"/>
      <point x="251.0" y="0.0" type="line"/>
      <point x="251.0" y="1080.0" type="line"/>
      <point x="183.0" y="1080.0" type="line"/>
    </contour>
    <contour>
      <point x="219.0" y="1276.0" type="curve" smooth="yes"/>
      <point x="395.5" y="1276.0"/>
      <point x="491.5" y="1398.0"/>
      <point x="499.0" y="1588.0" type="curve"/>
      <point x="440.0" y="1588.0" type="line"/>
      <point x="431.0" y="1431.0"/>
      <point x="368.5" y="1333.5"/>
      <point x="219.0" y="1333.5" type="curve" smooth="yes"/>
      <point x="69.5" y="1333.5"/>
      <point x="4.0" y="1431.0"/>
      <point x="-6.0" y="1588.0" type="curve"/>
      <point x="-65.0" y="1588.0" type="line"/>
      <point x="-57.5" y="1400.0"/>
      <point x="41.0" y="1276.0"/>
    </contour>
  </outline>
</glyph>
<glyph name="Iogonek" format="2">
  <advance width="474.0"/>
  <unicode hex="012E"/>
  <anchor x="271.0" y="0.0" name="_ogonek"/>
  <anchor x="237.0" y="0.0" name="bottom"/>
  <anchor x="271.0" y="0.0" name="ogonek"/>
  <anchor x="237.0" y="1520.0" name="top"/>
  <outline>
    <contour>
      <point x="203.0" y="0.0" type="line"/>
      <point x="271.0" y="0.0" type="line"/>
      <point x="271.0" y="1480.0" type="line"/>
      <point x="203.0" y="1480.0" type="line"/>
    </contour>
    <contour>
      <point x="225.0" y="-400.0" type="curve" smooth="yes"/>
      <point x="283.5" y="-400.0"/>
      <point x="343.5" y="-386.5"/>
      <point x="402.5" y="-360.5" type="curve"/>
      <point x="402.5" y="-306.5" type="line"/>
      <point x="328.5" y="-335.0"/>
      <point x="278.5" y="-348.0"/>
      <point x="221.5" y="-348.0" type="curve" smooth="yes"/>
      <point x="120.5" y="-348.0"/>
      <point x="66.5" y="-305.5"/>
      <point x="66.5" y="-228.0" type="curve" smooth="yes"/>
      <point x="66.5" y="-148.0"/>
      <point x="111.0" y="-80.0"/>
      <point x="271.0" y="0.0" type="curve"/>
      <point x="246.0" y="47.5" type="line"/>
      <point x="69.5" y="-40.5"/>
      <point x="10.5" y="-128.0"/>
      <point x="10.5" y="-230.5" type="curve" smooth="yes"/>
      <point x="10.5" y="-337.5"/>
      <point x="87.0" y="-400.0"/>
    </contour>
  </outline>
</glyph>
<glyph name="iogonek" format="2">
  <advance width="434.0"/>
  <unicode hex="012F"/>
  <anchor x="217.0" y="1200.0" name="_top"/>
  <anchor x="217.0" y="0.0" name="bottom"/>
  <anchor x="251.0" y="0.0" name="ogonek"/>
  <anchor x="217.0" y="1200.0" name="top"/>
  <outline>
    <contour>
      <point x="183.0" y="0.0" type="line"/>
      <point x="251.0" y="0.0" type="line"/>
      <point x="251.0" y="1080.0" type="line"/>
      <point x="183.0" y="1080.0" type="line"/>
    </contour>
    <contour>
      <point x="217.0" y="1360.0" type="curve" smooth="yes"/>
      <point x="253.0" y="1360.0"/>
      <point x="279.0" y="1384.0"/>
      <point x="279.0" y="1422.0" type="curve" smooth="yes"/>
      <point x="279.0" y="1460.0"/>
      <point x="253.0" y="1486.0"/>
      <point x="217.0" y="1486.0" type="curve" smooth="yes"/>
      <point x="181.0" y="1486.0"/>
      <point x="155.0" y="1460.0"/>
      <point x="155.0" y="1422.0" type="curve" smooth="yes"/>
      <point x="155.0" y="1384.0"/>
      <point x="181.0" y="1360.0"/>
    </contour>
    <contour>
      <point x="205.0" y="-400.0" type="curve" smooth="yes"/>
      <point x="255.5" y="-400.0"/>
      <point x="317.5" y="-384.5"/>
      <point x="364.0" y="-358.5" type="curve"/>
      <point x="364.0" y="-302.5" type="line"/>
      <point x="309.0" y="-333.5"/>
      <point x="255.5" y="-348.0"/>
      <point x="201.5" y="-348.0" type="curve" smooth="yes"/>
      <point x="118.0" y="-348.0"/>
      <point x="66.5" y="-303.0"/>
      <point x="66.5" y="-228.0" type="curve" smooth="yes"/>
      <point x="66.5" y="-142.0"/>
      <point x="120.0" y="-75.5"/>
      <point x="251.0" y="0.0" type="curve"/>
      <point x="226.0" y="47.5" type="line"/>
      <point x="77.0" y="-37.0"/>
      <point x="10.5" y="-123.0"/>
      <point x="10.5" y="-230.5" type="curve" smooth="yes"/>
      <point x="10.5" y="-335.0"/>
      <point x="84.0" y="-400.0"/>
    </contour>
  </outline>
</glyph>
